<?xml version="1.0" encoding="utf-8"?>
<!-- Generator: Adobe Illustrator 15.1.0, SVG Export Plug-In . SVG Version: 6.00 Build 0)  -->
<!DOCTYPE svg PUBLIC "-//W3C//DTD SVG 1.1//EN" "http://www.w3.org/Graphics/SVG/1.1/DTD/svg11.dtd">
<svg version="1.1" id="Layer_1" xmlns="http://www.w3.org/2000/svg" xmlns:xlink="http://www.w3.org/1999/xlink" x="0px" y="0px"
	 width="959px" height="593px" viewBox="0 0 959 593" enable-background="new 0 0 959 593" xml:space="preserve">
<path id="jqvmap1_ctsw" fill="#FFFFFF" stroke="#BCBEC0" stroke-miterlimit="10" stroke-opacity="0.25" d="M498.515,240.542l-254.223,38.273c-6.492,61.059-17.969,123.041-33.461,182.264c-69.167,73.204,41.147,57.428,78.528,12.431c48.773-28.264,97.426-55.115,141.672-90.063c14.063,14.195,33.383,14.161,54.741,10.371L498.515,240.542z"/>
<path id="jqvmap1_ctse" fill="#FFFFFF" stroke="#BCBEC0" stroke-miterlimit="10" stroke-opacity="0.25" d="M489.687,393.219c29.746-6.04,64.979-17.839,92.97-7.334c61.116-0.894,120.626-20.12,181.018-28.117c-1.64-51.707-2.814-105.299-4.408-156.943l-255.839,38.55L489.687,393.219z"/>
<path id="jqvmap1_ctne" fill="#FFFFFF" stroke="#BCBEC0" stroke-miterlimit="10" stroke-opacity="0.25" d="M503.557,232.073l254.971-39.707c-1.265-40.91-2.532-81.827-3.829-122.789c-28.942-0.434-57.674-0.831-86.636-1.267l0.21,0.044c-56.163,0.53-113.438,1.104-169.564,1.654L503.557,232.073z"/>
<path id="jqvmap1_ctnw" fill="#FFFFFF" stroke="#BCBEC0" stroke-miterlimit="10" stroke-opacity="0.25" d="M493.338,70.037c-83.201,0.817-166.393,1.667-249.659,2.567c8.466,66.399,8.34,133.249,1.817,199.531l253.368-39.396L493.338,70.037z"/>
</svg>
