<?xml version="1.0" encoding="utf-8"?>
<!-- Generator: Adobe Illustrator 15.1.0, SVG Export Plug-In . SVG Version: 6.00 Build 0)  -->
<!DOCTYPE svg PUBLIC "-//W3C//DTD SVG 1.1//EN" "http://www.w3.org/Graphics/SVG/1.1/DTD/svg11.dtd">
<svg version="1.1" id="Layer_1" xmlns="http://www.w3.org/2000/svg" xmlns:xlink="http://www.w3.org/1999/xlink" x="0px" y="0px"
	 width="959px" height="593px" viewBox="0 0 959 593" enable-background="new 0 0 959 593" xml:space="preserve">
<path id="_x30_9003" inkscape:label="Hartford, CT" fill="#D0D0D0" stroke="#000000" stroke-width="3.2809" stroke-linejoin="bevel" d="
	M368.54,72.575l156.07-5.975l7.269,36.837l33.243,133.093l0.559,2.493l-0.124,9.934l-17.244,8.68l-13.669-26.177l-38.364,4.829
	l-26.802,6.791l-10.917,21.349l-73.877-22.186l-13.816-67.032l21.116-4.445l15.882-71.948l-44.407,4.999L368.54,72.575"/>
<path id="_x30_9005" inkscape:label="Litchfield, CT" fill="#D0D0D0" stroke="#000000" stroke-width="3.2809" stroke-linejoin="bevel" d="
	M354.615,72.994l13.927-0.418l-5.086,31.245l44.407-4.999l-15.881,71.949l-21.116,4.444l13.816,67.032l-39.929,33.764
	l-63.147,28.293l-2.095,5.35l0.016,3.578l2.124,3.16l3.479,3.229l-0.797,0.74l-4.364-0.729l-15.664-7.691l-22.745-13.214
	l-1.768-5.294l-3.964-10.75l-9.529-37.299l-2.046-3.552l-8.083-3.398l2.558-163.456L354.615,72.994"/>
<path id="_x30_9001" inkscape:label="Fairfield, CT" fill="#D0D0D0" stroke="#000000" stroke-width="3.2809" stroke-linejoin="bevel" d="
	M214.762,297.844l1.404-59.407l8.083,3.398l2.047,3.552l9.529,37.297l3.964,10.751l1.768,5.294l22.744,13.214l15.664,7.691
	l4.364,0.729l0.797-0.74l10.429,6.419l22.832,12.774L364.91,387.6l-5.023,19.942l-5.479,7.955l-1.35,3.215l-2.995,19.932
	l0.495,2.139l4.36,4.072l-22.05,1.552l-60.363,29.409l-84.07,47.057l-2.426,3.051l-1.82,4.28l-24.253-48.12l27.167-18.636
	l2.26-1.531l23.025-65.093l0.657-30.303L214.762,297.844"/>
<path id="_x30_9009" inkscape:label="New Haven, CT" fill="#D0D0D0" stroke="#000000" stroke-width="3.2809" stroke-linejoin="bevel" d="
	M458.559,264.432l4.213,34.44l17.598,27.124l12.282-3.353l3.791,3.633l10.534,17.871l27.389,52.114l-15.804-4.001l-10.605,0.465
	l-44.294,4.435l-28.251,5.87l-14.615-0.73l-5.106-9.591l-2.646,0.507l-43.496,34.304l-6.093,5.759l-7.763,9.612l-0.685,1.497
	l-0.09,0.456l-4.36-4.072l-0.495-2.139l2.995-19.933l1.35-3.215l5.479-7.954l5.023-19.942l-46.523-48.782l-22.832-12.774
	l-10.429-6.419l-3.479-3.229l-2.124-3.16l-0.017-3.578l2.095-5.351l63.148-28.292l39.929-33.764L458.559,264.432"/>
<path id="_x30_9007" inkscape:label="Middlesex, CT" fill="#D0D0D0" stroke="#000000" stroke-width="3.2809" stroke-linejoin="bevel" d="
	M548.313,257.639l48.044,126.218l-61.99,12.408l-27.387-52.114l-10.532-17.871l-3.794-3.633l-12.282,3.352l-17.597-27.122
	l-4.213-34.441l10.917-21.35l26.802-6.791l38.364-4.829L548.313,257.639"/>
<path id="_x30_9011" inkscape:label="New London, CT" fill="#D0D0D0" stroke="#000000" stroke-width="3.2809" stroke-linejoin="bevel" d="
	M760.96,239.859l-15.001,118.06l-40.593,3.202l-85.336,20.902l-17.604,3.191l-3.162-0.183l-2.907-1.175l-48.044-126.218
	l17.244-8.681l51.085-50.689l17.463,15.165l9.6,7.335l65.079,6.11l29.356-5.815l21.653,0.479L760.96,239.859"/>
<path id="_x30_9013" inkscape:label="Tolland, CT" fill="#D0D0D0" stroke="#000000" stroke-width="3.2809" stroke-linejoin="bevel" d="
	M651.925,62.05l2.622,29.573l-30.097,1.621l-6.623,0.806l2.655,52.37l12.619,10.899l8.487,22.644l-10.851,8.696l-14.097,9.609
	l-51.085,50.689l0.12-9.934l-0.558-2.493l-33.24-133.093l-7.269-36.837l116.8-4.542L651.925,62.05"/>
<path id="_x30_9015" inkscape:label="Windham, CT" fill="#D0D0D0" stroke="#000000" stroke-width="3.2809" stroke-linejoin="bevel" d="
	M747.174,65.198l10.281,120.31l2.334,36.033l-21.653-0.479l-29.353,5.815l-65.079-6.11l-9.6-7.335l-17.463-15.165l14.097-9.609
	l10.851-8.696l-8.491-22.644l-12.619-10.899l-2.651-52.37l6.623-0.806l30.097-1.621l-2.622-29.573l13.282-0.137l81.08-3.206
	L747.174,65.198"/>
</svg>
