<?xml version="1.0" encoding="utf-8"?>
<!-- Generator: Adobe Illustrator 15.1.0, SVG Export Plug-In . SVG Version: 6.00 Build 0)  -->
<!DOCTYPE svg PUBLIC "-//W3C//DTD SVG 1.1//EN" "http://www.w3.org/Graphics/SVG/1.1/DTD/svg11.dtd">
<svg version="1.1" id="Layer_1" xmlns="http://www.w3.org/2000/svg" xmlns:xlink="http://www.w3.org/1999/xlink" x="0px" y="0px"
	 width="959px" height="593px" viewBox="0 0 959 593" enable-background="new 0 0 959 593" xml:space="preserve">
<path id="jackson" fill="#D0D0D0" stroke="#000000" stroke-width="1.1356" stroke-linejoin="bevel" d="M805.388,210.344l6.434,7.463
	l0.311,0.477l0.066,0.555l-0.621,4.142l-0.62,1.375v0.932l1.508,3.372l0.088,0.162l3.062,3.836l0.111,0.094l1.842,1.486l1.994,1.281
	l4.503,1.442l18.942,22.557l-80.446,4.563l-2.063-38.498l25.086-1.281l-0.665-12.893L805.388,210.344"/>
<path id="dubuque" fill="#D0D0D0" stroke="#000000" stroke-width="1.1356" stroke-linejoin="bevel" d="M732.55,174.388l25.042-5.583
	l13.861,2.656l5.368,1.281l1.22,0.604l0.775,0.77l6.81,12.393l1.177,3.687l0.065,0.832l-0.398,0.704l-1.509,2.562l-0.044,0.345
	l0.11,0.814l0.244,0.738l0.864,0.91l2.506,1.796l7.231,3.738l9.204,6.404l0.044,0.044l0.266,0.261l-20.471,1.064l0.665,12.893
	l-25.086,1.281l-24.975,1.241L732.55,174.388"/>
<path id="delaware" fill="#D0D0D0" stroke="#000000" stroke-width="1.1356" stroke-linejoin="bevel" d="M681.714,178.139
	l50.836-2.751l2.974,51.435l-25.132,1.181l-25.173,1.215l-0.62-11.312l-1.862-14.073l-0.711-14.534L681.714,178.139"/>
<path id="clayton" fill="#D0D0D0" stroke="#000000" stroke-width="1.1356" stroke-linejoin="bevel" d="M724.566,111.761
	l2.262,13.923l2.395,11.2l9.781,21.709l1.331,2.761l8.628,5.734l2.995,1.375l5.634,1.342l-25.042,5.583l-50.836,2.751l-2.75-64.387
	L724.566,111.761"/>
<path id="allamakee" fill="#D0D0D0" stroke="#000000" stroke-width="1.1356" stroke-linejoin="bevel" d="M717.135,50.234
	l1.842,11.312l-0.088,7.53l11.355,7.996l2.462,3.121l3.216,5.168l-0.398,1.824l-8.186,13.779l-2.771,10.797l-45.604,1.991
	l-1.642-38.283l-0.775,0.056l-1.065-23.289L717.135,50.234"/>
<path id="winneshiek" fill="#D0D0D0" stroke="#000000" stroke-width="1.1356" stroke-linejoin="bevel" d="M675.481,52.236
	l1.064,23.289l0.775-0.056l1.642,38.283l-50.792,2.062l-0.687-19.152l-1.708-42.28l37.062-1.58L675.481,52.236"/>
<path id="fayette" fill="#D0D0D0" stroke="#000000" stroke-width="1.1356" stroke-linejoin="bevel" d="M628.172,115.813
	l50.792-2.062l2.75,64.387l-50.901,2.462l-1.598-38.947L628.172,115.813"/>
<path id="buchanan" fill="#D0D0D0" stroke="#000000" stroke-width="1.1356" stroke-linejoin="bevel" d="M681.714,178.139
	l0.312,11.162l0.711,14.534l1.862,14.073l0.62,11.312l-25.307,0.726l-25.175,1.337l-0.82-21.753l-1.997-3.272l-1.108-25.656
	L681.714,178.139"/>
<path id="jones" fill="#D0D0D0" stroke="#000000" stroke-width="1.1356" stroke-linejoin="bevel" d="M735.521,226.823l24.975-1.241
	l2.063,38.498l0.645,12.904l-50.615,2.406l-2.196-51.386L735.521,226.823"/>
<path id="cedar" fill="#D0D0D0" stroke="#000000" stroke-width="1.1356" stroke-linejoin="bevel" d="M763.203,276.983l1.396,25.684
	l1.221,25.662l-50.771,2.396l-2.462-51.334L763.203,276.983"/>
<path id="linn" fill="#D0D0D0" stroke="#000000" stroke-width="1.1356" stroke-linejoin="bevel" d="M710.392,228.004l2.196,51.386
	l0.621,12.842l-50.525,2.091l-2.771-64.377l25.307-0.726L710.392,228.004"/>
<path id="johnson" fill="#D0D0D0" stroke="#000000" stroke-width="1.1356" stroke-linejoin="bevel" d="M713.209,292.231
	l1.841,38.494l1.021,25.793l-12.6,0.512l-2.815-10.092l-1.798-2.552l-33.668,1.464l-2.508-51.528L713.209,292.231"/>
<path id="muscatine" fill="#D0D0D0" stroke="#000000" stroke-width="1.1356" stroke-linejoin="bevel" d="M765.819,328.329
	l13.573,20.562l-6.72,0.055l-15.35,4.191l-4.103,1.486l-1.177,0.766l-0.088,0.045v0.055l-0.776,1.087l-0.11,0.276l-1.51,6.267
	l-1.309,5.024l-31.627,1.219l-0.555-12.842l-1.021-25.795L765.819,328.329"/>
<path id="louisa" fill="#D0D0D0" stroke="#000000" stroke-width="1.1356" stroke-linejoin="bevel" d="M703.473,357.029l12.6-0.512
	l0.555,12.844l31.627-1.221v0.045l-3.126,12.498l0.109,1.209l0.066,0.11l7.408,8.916l3.503,1.729l1.465-0.199l0.889,0.41
	l0.932,0.965l5.146,8.45l-0.11,3.526l-46.2,2.15l-13.265-12.398L703.473,357.029"/>
<path id="des_x5F_moines" fill="#D0D0D0" stroke="#000000" stroke-width="1.1356" stroke-linejoin="bevel" d="M764.534,405.803
	l0.109,0.365l0.398,1.275l0.555,3.946l-0.421,11.923l-0.932,4.358l-0.621,0.91l-3.172,1.795l-1.175,1.153l-8.563,12.199
	l-0.397,1.896l-0.756,16.581l-33.579-15.504l2.353-38.749L764.534,405.803"/>
<path id="lee" fill="#D0D0D0" stroke="#000000" stroke-width="1.1356" stroke-linejoin="bevel" d="M681.892,448.188l34.091-1.485
	l33.58,15.504l-7.696,9.027l-3.571,0.088l-2.927,0.211l-0.865,0.044h-0.044l-5.812,2.029l-0.156,0.11l-0.644,0.377l-2.771,1.574
	l-0.977,0.61l-0.354,0.377l-0.398,0.389l-0.421,0.466l-4.658,7.164l-0.155,1.087l0.354,1.22l2.264,1.075l1.841,2.674l0.62,1.774
	l0.09,1.484l-0.312,13.175l-0.044,0.09l-0.244,1.274l-1.177,0.976l-0.153,0.102l-3.394,1.187l-7.254-0.521l-4.613-3.738
	l-11.155-13.718l-0.423-1.021l0.377-2.973l-0.266-0.977l-8.762-6.608l-2.308-1.442L681.892,448.188"/>
<path id="henry" fill="#D0D0D0" stroke="#000000" stroke-width="1.1356" stroke-linejoin="bevel" d="M705.069,395.555l13.265,12.398
	l-2.354,38.749l-34.09,1.485l-0.53-12.908l-1.486-38.582L705.069,395.555"/>
<path id="washington" fill="#D0D0D0" stroke="#000000" stroke-width="1.1356" stroke-linejoin="bevel" d="M665.19,345.852
	l33.668-1.465l1.798,2.551l2.815,10.093l1.598,38.524l-25.195,1.144l-25.175,0.966l-2.195-51.126L665.19,345.852"/>
<path id="keokuk" fill="#D0D0D0" stroke="#000000" stroke-width="1.1356" stroke-linejoin="bevel" d="M614.177,348.27l38.327-1.731
	l2.195,51.126l-25.641,1.219l-25.219,1.099l-2.173-51.202L614.177,348.27"/>
<path id="iowa" fill="#D0D0D0" stroke="#000000" stroke-width="1.1356" stroke-linejoin="bevel" d="M612.07,296.263l50.612-1.94
	l2.508,51.528l-12.688,0.687l-38.327,1.731L612.07,296.263"/>
<path id="benton" fill="#D0D0D0" stroke="#000000" stroke-width="1.1356" stroke-linejoin="bevel" d="M659.912,229.945l2.771,64.377
	l-50.612,1.94l-2.552-64l25.219-0.981L659.912,229.945"/>
<path id="jefferson" fill="#D0D0D0" stroke="#000000" stroke-width="1.1356" stroke-linejoin="bevel" d="M679.874,396.697
	l1.486,38.582l-50.659,2.352l-1.643-38.749l25.641-1.219L679.874,396.697"/>
<path id="van_x5F_buren" fill="#D0D0D0" stroke="#000000" stroke-width="1.1356" stroke-linejoin="bevel" d="M630.701,437.631
	l50.659-2.352l0.53,12.909l1.663,31.604l-25.063,0.065l-26.105,1.842L630.701,437.631"/>
<path id="davis" fill="#D0D0D0" stroke="#000000" stroke-width="1.1356" stroke-linejoin="bevel" d="M630.701,437.631l1.686,44.07
	l-18.831,1.229l-31.693,2.142l-1.775-45.446L630.701,437.631"/>
<path id="wapello" fill="#D0D0D0" stroke="#000000" stroke-width="1.1356" stroke-linejoin="bevel" d="M603.841,399.979
	l25.219-1.098l1.643,38.749l-50.615,1.995L578.579,401L603.841,399.979"/>
<path id="mahaska" fill="#D0D0D0" stroke="#000000" stroke-width="1.1356" stroke-linejoin="bevel" d="M564.118,350.221l37.55-1.443
	l2.173,51.203l-25.263,1.021l-25.107,0.909l-1.862-51.225L564.118,350.221"/>
<path id="poweshiek" fill="#D0D0D0" stroke="#000000" stroke-width="1.1356" stroke-linejoin="bevel" d="M561.279,298.164
	l50.791-1.901l2.105,52.006l-12.509,0.508l-37.55,1.443L561.279,298.164"/>
<path id="tama" fill="#D0D0D0" stroke="#000000" stroke-width="1.1356" stroke-linejoin="bevel" d="M609.52,232.263l2.552,64
	l-50.791,1.901l-2.354-63.934L609.52,232.263"/>
<path id="black_x5F_hawk" fill="#D0D0D0" stroke="#000000" stroke-width="1.1356" stroke-linejoin="bevel" d="M630.813,180.601
	l1.107,25.656l1.997,3.272l0.82,21.753l-25.219,0.981l-25.352,0.986l-3.481-37.955l-0.601-12.736L630.813,180.601"/>
<path id="bremer" fill="#D0D0D0" stroke="#000000" stroke-width="1.1356" stroke-linejoin="bevel" d="M578.689,143.605l50.524-1.951
	l1.597,38.947l-50.726,1.957L578.689,143.605"/>
<path id="chickasaw" fill="#D0D0D0" stroke="#000000" stroke-width="1.1356" stroke-linejoin="bevel" d="M627.485,96.661
	l0.687,19.152l1.043,25.841l-50.524,1.951l-1.643-44.947L627.485,96.661"/>
<path id="howard" fill="#D0D0D0" stroke="#000000" stroke-width="1.1356" stroke-linejoin="bevel" d="M586.741,55.973l39.036-1.591
	l1.708,42.28l-50.438,1.997l-1.375-42.28L586.741,55.973"/>
<path id="mitchell" fill="#D0D0D0" stroke="#000000" stroke-width="1.1356" stroke-linejoin="bevel" d="M575.673,56.377l1.375,42.28
	l-49.949,1.691l-1.375-42.186L575.673,56.377"/>
<path id="floyd" fill="#D0D0D0" stroke="#000000" stroke-width="1.1356" stroke-linejoin="bevel" d="M527.099,100.349l49.949-1.691
	l1.643,44.947l-50.305,1.58L527.099,100.349"/>
<path id="butler" fill="#D0D0D0" stroke="#000000" stroke-width="1.1356" stroke-linejoin="bevel" d="M528.386,145.185l50.305-1.58
	l1.396,38.953l0.602,12.736l-50.882,1.582L528.386,145.185"/>
<path id="grundy" fill="#D0D0D0" stroke="#000000" stroke-width="1.1356" stroke-linejoin="bevel" d="M580.688,195.294l3.48,37.955
	l-25.195,0.993l0.422,12.736l-25.22,0.921l-4.369-51.024L580.688,195.294"/>
<path id="marshall" fill="#D0D0D0" stroke="#000000" stroke-width="1.1356" stroke-linejoin="bevel" d="M534.175,247.9l25.219-0.921
	l1.887,51.186l-50.504,1.542l-1.486-50.98L534.175,247.9"/>
<path id="jasper" fill="#D0D0D0" stroke="#000000" stroke-width="1.1356" stroke-linejoin="bevel" d="M510.775,299.706l50.504-1.542
	l2.839,52.057l-12.511,0.465l-49.883,1.643l-3.549-52.321L510.775,299.706"/>
<path id="marion" fill="#D0D0D0" stroke="#000000" stroke-width="1.1356" stroke-linejoin="bevel" d="M551.607,350.686l1.862,51.226
	l-25.129,0.809l-25.106,0.723l-1.421-48.763l-0.089-2.352L551.607,350.686"/>
<path id="monroe" fill="#D0D0D0" stroke="#000000" stroke-width="1.1356" stroke-linejoin="bevel" d="M578.578,401.001l1.508,38.625
	l-50.436,1.752l-1.31-38.659l25.129-0.809L578.578,401.001"/>
<path id="appanoose" fill="#D0D0D0" stroke="#000000" stroke-width="1.1356" stroke-linejoin="bevel" d="M580.086,439.626
	l1.775,45.446l-8.45,0.467l-42.274,2.217l-1.485-46.378L580.086,439.626"/>
<path id="wayne" fill="#D0D0D0" stroke="#000000" stroke-width="1.1356" stroke-linejoin="bevel" d="M529.65,441.378l1.485,46.378
	l-30.606,1.42l-20.207,0.556l-1.176-46.866L529.65,441.378"/>
<path id="lucas" fill="#D0D0D0" stroke="#000000" stroke-width="1.1356" stroke-linejoin="bevel" d="M503.234,403.44l25.106-0.723
	l1.31,38.659l-50.504,1.486l-1.063-38.814L503.234,403.44"/>
<path id="warren" fill="#D0D0D0" stroke="#000000" stroke-width="1.1356" stroke-linejoin="bevel" d="M501.814,354.68l1.42,48.762
	l-25.151,0.608l-25.396,0.532l-1.331-51.611L501.814,354.68"/>
<path id="polk" fill="#D0D0D0" stroke="#000000" stroke-width="1.1356" stroke-linejoin="bevel" d="M498.177,300.006l3.549,52.321
	l0.09,2.353l-50.458-1.709l-0.355-12.986l-2.706-6.397l-0.932-32.351l12.798-0.299L498.177,300.006"/>
<path id="story" fill="#D0D0D0" stroke="#000000" stroke-width="1.1356" stroke-linejoin="bevel" d="M509.289,248.726l1.486,50.98
	l-12.6,0.3l-38.015,0.932l-1.287-50.937l25.44-0.626L509.289,248.726"/>
<path id="hardin" fill="#D0D0D0" stroke="#000000" stroke-width="1.1356" stroke-linejoin="bevel" d="M529.806,196.875l4.369,51.024
	l-24.886,0.826l-24.974,0.648l-5.278-51.158L529.806,196.875"/>
<path id="franklin" fill="#D0D0D0" stroke="#000000" stroke-width="1.1356" stroke-linejoin="bevel" d="M477.772,146.566
	l50.612-1.381l1.42,51.69l-50.769,1.341L477.772,146.566"/>
<path id="cerro_x5F_gordo" fill="#D0D0D0" stroke="#000000" stroke-width="1.1356" stroke-linejoin="bevel" d="M476.552,95.536
	l50.349-1.48l0.198,6.294l1.287,44.836l-50.612,1.381L476.552,95.536"/>
<path id="worth" fill="#D0D0D0" stroke="#000000" stroke-width="1.1356" stroke-linejoin="bevel" d="M525.724,58.163l1.177,35.892
	l-50.349,1.48l-0.931-35.886l47.485-1.375L525.724,58.163"/>
<path id="winnebago" fill="#D0D0D0" stroke="#000000" stroke-width="1.1356" stroke-linejoin="bevel" d="M475.621,59.649
	l0.931,35.886l-50.325,1.225l-0.821-35.931l34.135-0.771L475.621,59.649"/>
<path id="hancock" fill="#D0D0D0" stroke="#000000" stroke-width="1.1356" stroke-linejoin="bevel" d="M476.552,95.536l1.222,51.03
	l-50.593,1.331l-0.954-51.136L476.552,95.536"/>
<path id="wright" fill="#D0D0D0" stroke="#000000" stroke-width="1.1356" stroke-linejoin="bevel" d="M427.181,147.896l50.593-1.331
	l1.265,51.651l-50.748,1.125l-0.267-12.752L427.181,147.896"/>
<path id="hamilton" fill="#D0D0D0" stroke="#000000" stroke-width="1.1356" stroke-linejoin="bevel" d="M479.037,198.217
	l5.278,51.158l-25.44,0.626l-25.174,0.466l-0.864-38.533l-4.303,0.045l-0.244-12.638L479.037,198.217"/>
<path id="boone" fill="#D0D0D0" stroke="#000000" stroke-width="1.1356" stroke-linejoin="bevel" d="M458.875,250.001l1.287,50.937
	l-12.798,0.299l-37.773,0.877l-1.063-51.068l25.173-0.577L458.875,250.001"/>
<path id="dallas" fill="#D0D0D0" stroke="#000000" stroke-width="1.1356" stroke-linejoin="bevel" d="M447.364,301.236l0.932,32.35
	l2.706,6.396l0.355,12.988l-49.195,2.271l-0.243-14.338h-4.259l-0.732-38.551l12.664-0.242L447.364,301.236"/>
<path id="madison" fill="#D0D0D0" stroke="#000000" stroke-width="1.1356" stroke-linejoin="bevel" d="M451.356,352.971l1.33,51.611
	l-24.665,1.331l-24.93,0.397l-0.932-51.067L451.356,352.971"/>
<path id="clarke" fill="#D0D0D0" stroke="#000000" stroke-width="1.1356" stroke-linejoin="bevel" d="M478.083,404.05l1.063,38.814
	l-50.37,1.331l-0.754-38.282l24.665-1.331L478.083,404.05"/>
<path id="decatur" fill="#D0D0D0" stroke="#000000" stroke-width="1.1356" stroke-linejoin="bevel" d="M428.777,444.195l50.37-1.331
	l1.176,46.866l-23.998,0.997l-26.683,1.121L428.777,444.195"/>
<path id="ringgold" fill="#D0D0D0" stroke="#000000" stroke-width="1.1356" stroke-linejoin="bevel" d="M378.584,444.75
	l50.192-0.555l0.865,47.653l-23.932,0.742l-26.416,0.632L378.584,444.75"/>
<path id="union" fill="#D0D0D0" stroke="#000000" stroke-width="1.1356" stroke-linejoin="bevel" d="M403.093,406.313l24.931-0.398
	l0.754,38.282l-50.192,0.555l-0.621-38.071L403.093,406.313"/>
<path id="adams" fill="#D0D0D0" stroke="#000000" stroke-width="1.1356" stroke-linejoin="bevel" d="M377.964,406.679l0.621,38.071
	l-50.436,0.51l-0.302-38.017l24.941-0.267L377.964,406.679"/>
<path id="taylor" fill="#D0D0D0" stroke="#000000" stroke-width="1.1356" stroke-linejoin="bevel" d="M378.584,444.75l0.71,48.474
	l-17.744,0.21l-31.296-0.153l-0.111-22.47h-1.674l-0.32-25.551L378.584,444.75"/>
<path id="page" fill="#D0D0D0" stroke="#000000" stroke-width="1.1356" stroke-linejoin="bevel" d="M328.148,445.26l0.32,25.551
	h1.674l0.111,22.47l-31.828-0.199l-18.942-0.167l-0.11-10.99l-1.287-16.491l-0.155-19.859L328.148,445.26"/>
<path id="montgomery" fill="#D0D0D0" stroke="#000000" stroke-width="1.1356" stroke-linejoin="bevel" d="M302.818,407.377
	l25.03-0.134l0.302,38.017l-50.216,0.313l-0.044-37.983L302.818,407.377"/>
<path id="mills" fill="#D0D0D0" stroke="#000000" stroke-width="1.1356" stroke-linejoin="bevel" d="M277.888,407.588l0.044,37.983
	l-48.196,0.198l-4.87-21.382l1.498-16.689L277.888,407.588"/>
<path id="fremont" fill="#D0D0D0" stroke="#000000" stroke-width="1.1356" stroke-linejoin="bevel" d="M229.737,445.771
	l48.196-0.199l0.155,19.859l1.287,16.491l0.11,10.99l-43.306-0.455l-9.881-29.276L229.737,445.771"/>
<path id="pottawattamie" fill="#D0D0D0" stroke="#000000" stroke-width="1.1356" stroke-linejoin="bevel" d="M265.002,356.52
	l37.46-0.154l0.355,51.013l-24.93,0.211l-51.523,0.11l-7.685-4.604l-1.631-29.787l-4.768-16.789H265.002"/>
<path id="cass" fill="#D0D0D0" stroke="#000000" stroke-width="1.1356" stroke-linejoin="bevel" d="M352.057,355.964l0.732,51.014
	l-24.941,0.267l-25.03,0.134l-0.355-51.013l12.488-0.067L352.057,355.964"/>
<path id="adair" fill="#D0D0D0" stroke="#000000" stroke-width="1.1356" stroke-linejoin="bevel" d="M402.161,355.243l0.932,51.067
	l-25.129,0.367l-25.175,0.299l-0.732-51.014L402.161,355.243"/>
<path id="guthrie" fill="#D0D0D0" stroke="#000000" stroke-width="1.1356" stroke-linejoin="bevel" d="M359.111,303.032
	l37.815-0.677l0.732,38.549h4.259l0.243,14.339l-50.104,0.721l-0.198-14.46l-4.813-6.388l-0.51-31.873L359.111,303.032"/>
<path id="audubon" fill="#D0D0D0" stroke="#000000" stroke-width="1.1356" stroke-linejoin="bevel" d="M308.763,303.543l37.772-0.3
	l0.51,31.873l4.813,6.388l0.198,14.46l-37.104,0.333l-0.155-14.316l-5.688,0.057L308.763,303.543"/>
<path id="shelby" fill="#D0D0D0" stroke="#000000" stroke-width="1.1356" stroke-linejoin="bevel" d="M258.348,303.842l50.415-0.299
	l0.345,38.493l5.688-0.056l0.155,14.315l-12.488,0.067l-37.46,0.154l-0.056-14.184l-6.554,0.055L258.348,303.842"/>
<path id="harrison" fill="#D0D0D0" stroke="#000000" stroke-width="1.1356" stroke-linejoin="bevel" d="M258.348,303.842
	l0.045,38.549l6.554-0.055l0.056,14.184h-52.722l-15.26-25.895l-1.929-27.025l50.703,0.354L258.348,303.842"/>
<path id="monona" fill="#D0D0D0" stroke="#000000" stroke-width="1.1356" stroke-linejoin="bevel" d="M245.794,252.656v51.298
	l-50.703-0.354l-14.395-26.722l-8.96-24.764L245.794,252.656"/>
<path id="crawford" fill="#D0D0D0" stroke="#000000" stroke-width="1.1356" stroke-linejoin="bevel" d="M308.452,252.419
	l0.311,51.124l-50.415,0.299l-12.553,0.112v-51.298l37.528-0.082L308.452,252.419"/>
<path id="carroll" fill="#D0D0D0" stroke="#000000" stroke-width="1.1356" stroke-linejoin="bevel" d="M333.581,252.257l24.82-0.305
	l0.71,51.08l-12.576,0.211l-37.772,0.3l-0.311-51.124L333.581,252.257"/>
<path id="greene" fill="#D0D0D0" stroke="#000000" stroke-width="1.1356" stroke-linejoin="bevel" d="M383.396,251.599l25.131-0.555
	l1.063,51.067l-12.664,0.244l-37.815,0.677l-0.71-51.08L383.396,251.599"/>
<path id="webster" fill="#D0D0D0" stroke="#000000" stroke-width="1.1356" stroke-linejoin="bevel" d="M428.022,186.589
	l0.511,25.391l4.303-0.045l0.864,38.533l-25.173,0.577l-25.131,0.555l-0.688-38.904l-4.902,0.044l-0.154-12.592l-0.267-12.637
	L428.022,186.589"/>
<path id="calhoun" fill="#D0D0D0" stroke="#000000" stroke-width="1.1356" stroke-linejoin="bevel" d="M326.928,200.656l50.726-0.51
	l0.154,12.592l4.902-0.044l0.688,38.904l-24.996,0.354l-24.82,0.305l-0.31-38.937h-6.244L326.928,200.656"/>
<path id="sac" fill="#D0D0D0" stroke="#000000" stroke-width="1.1356" stroke-linejoin="bevel" d="M276.047,200.917l50.881-0.261
	l0.101,12.665h6.244l0.31,38.937l-25.129,0.162l-25.129,0.155l-0.156-38.915l-7.008,0.056L276.047,200.917"/>
<path id="ida" fill="#D0D0D0" stroke="#000000" stroke-width="1.1356" stroke-linejoin="bevel" d="M276.047,200.917l0.112,12.798
	l7.008-0.056l0.156,38.915l-37.528,0.082v-38.791h-3.515l-4.203-2.081l-0.044-10.651L276.047,200.917"/>
<path id="woodbury" fill="#D0D0D0" stroke="#000000" stroke-width="1.1356" stroke-linejoin="bevel" d="M225.278,201.227
	l12.754-0.094l0.044,10.651l4.203,2.081h3.515v38.791l-74.058-0.542l1.331-9.066l-3.271-6.144l-1.276-16.85l0.754-2.037
	l-0.044-2.256l-0.444-1.69l-1.131-1.582l-1.441-0.554l-3.682-0.26l-3.837-10.607L225.278,201.227"/>
<path id="humboldt" fill="#D0D0D0" stroke="#000000" stroke-width="1.1356" stroke-linejoin="bevel" d="M376.787,148.772
	l50.394-0.876l0.843,38.693l-50.636,0.92L376.787,148.772"/>
<path id="kossuth" fill="#D0D0D0" stroke="#000000" stroke-width="1.1356" stroke-linejoin="bevel" d="M425.405,60.83l0.821,35.931
	l0.954,51.136l-50.394,0.876l-0.886-51.035l-0.556-36.086l20.738-0.355L425.405,60.83"/>
<path id="emmet" fill="#D0D0D0" stroke="#000000" stroke-width="1.1356" stroke-linejoin="bevel" d="M375.346,61.651l0.556,36.086
	l-50.062,0.659l-0.554-36.019l6.455-0.105L375.346,61.651"/>
<path id="palo_x5F_alto" fill="#D0D0D0" stroke="#000000" stroke-width="1.1356" stroke-linejoin="bevel" d="M375.901,97.738
	l0.886,51.035l-50.37,0.455l-0.577-50.831L375.901,97.738"/>
<path id="pocahontas" fill="#D0D0D0" stroke="#000000" stroke-width="1.1356" stroke-linejoin="bevel" d="M326.417,149.227
	l50.37-0.455l0.6,38.737l0.267,12.637l-50.726,0.51L326.417,149.227"/>
<path id="buena_x5F_vista" fill="#D0D0D0" stroke="#000000" stroke-width="1.1356" stroke-linejoin="bevel" d="M326.417,149.227
	l0.511,51.429l-50.881,0.261l-0.355-51.235L326.417,149.227"/>
<path id="clay" fill="#D0D0D0" stroke="#000000" stroke-width="1.1356" stroke-linejoin="bevel" d="M275.382,98.863l50.458-0.467
	l0.577,50.831l-50.725,0.455L275.382,98.863"/>
<path id="dickinson" fill="#D0D0D0" stroke="#000000" stroke-width="1.1356" stroke-linejoin="bevel" d="M275.183,62.826
	l50.103-0.449l0.554,36.019l-50.458,0.467L275.183,62.826"/>
<path id="osceola" fill="#D0D0D0" stroke="#000000" stroke-width="1.1356" stroke-linejoin="bevel" d="M268.129,62.826h7.054
	l0.199,36.037l-50.459-0.15l0.044-35.621L268.129,62.826"/>
<path id="obrien" fill="#D0D0D0" stroke="#000000" stroke-width="1.1356" stroke-linejoin="bevel" d="M224.923,98.713l50.459,0.15
	l0.31,50.819l-50.414,0.271L224.923,98.713"/>
<path id="cherokee" fill="#D0D0D0" stroke="#000000" stroke-width="1.1356" stroke-linejoin="bevel" d="M275.692,149.682
	l0.355,51.235l-38.015,0.216l-12.754,0.094v-51.273L275.692,149.682"/>
<path id="plymouth" fill="#D0D0D0" stroke="#000000" stroke-width="1.1356" stroke-linejoin="bevel" d="M225.278,149.954v51.273
	l-66.583-0.16l-3.893-10.23l-2.762-4.453l-3.538-3.282l-2.806-2.146l4.292-19.645l4.303-11.473L225.278,149.954"/>
<path id="sioux" fill="#D0D0D0" stroke="#000000" stroke-width="1.1356" stroke-linejoin="bevel" d="M148.603,98.147l76.32,0.566
	l0.355,51.24l-70.986-0.116l7.419-25.596l1.686-4.507l0.31-1.01l-4.104-14.745l-1.009-0.477l-7.63-0.033L148.603,98.147"/>
<path id="lyon" fill="#D0D0D0" stroke="#000000" stroke-width="1.1356" stroke-linejoin="bevel" d="M146.772,62.782l15.449,0.105
	l42.43,0.145l20.315,0.061l-0.044,35.621l-76.32-0.566L146.772,62.782"/>
<path id="clinton" fill="#D0D0D0" stroke="#000000" stroke-width="1.1356" stroke-linejoin="bevel" d="M762.56,264.08l80.446-4.563
	l1.175,15.32l-8.45,21.891l-7.675,8.612l-14.838-4.357l-36.439,1.031l-12.179,0.653l-1.396-25.684L762.56,264.08"/>
<path id="scott" fill="#D0D0D0" stroke="#000000" stroke-width="1.1356" stroke-linejoin="bevel" d="M764.6,302.667l12.179-0.653
	l36.439-1.031l14.838,4.357l-1.686,15.958l-5.679,7.63l-6.497,7.563L793.5,346.738l-8.806,2.251l-3.727,0.1l-1.575-0.198
	l-13.573-20.562L764.6,302.667"/>
</svg>
