<?xml version="1.0" encoding="utf-8"?>
<!-- Generator: Adobe Illustrator 15.1.0, SVG Export Plug-In . SVG Version: 6.00 Build 0)  -->
<!DOCTYPE svg PUBLIC "-//W3C//DTD SVG 1.0//EN" "http://www.w3.org/TR/2001/REC-SVG-20010904/DTD/svg10.dtd">
<svg version="1.0" id="Layer_1" xmlns="http://www.w3.org/2000/svg" xmlns:xlink="http://www.w3.org/1999/xlink" x="0px" y="0px"
	 width="959px" height="593px" viewBox="0 0 959 593" enable-background="new 0 0 959 593" xml:space="preserve">
<path id="lyon_4_" fill="#C4E6F2" stroke="#C9C9C9" stroke-width="1.1356" stroke-linejoin="bevel" d="M375.346,61.651
	l-43.604,0.621l-6.455,0.105l-50.103,0.449h-7.054l-43.162,0.266l-0.001,0.001l-20.315-0.061l-42.43-0.145l-15.449-0.105
	c0,0,1.83,35.366,1.831,35.365l2.361,5.322l7.63,0.033l1.009,0.477l4.104,14.745l-0.31,1.01l-1.686,4.507l-7.419,25.596
	l-0.001,0.001l-4.303,11.473l-4.292,19.645l2.806,2.146l3.538,3.282l2.762,4.453l3.893,10.23v0.001l3.837,10.607l3.682,0.26
	l1.441,0.554l1.131,1.582l0.444,1.69l0.044,2.256l-0.754,2.037l1.276,16.85l3.271,6.144l-1.331,9.066l8.96,24.764l14.395,26.722
	h0.001l1.929,27.025l15.26,25.895h0l4.768,16.789l1.631,29.787l7.685,4.604v-0.001l-1.498,16.689l4.87,21.382l0.001,0.002
	l-3.439,17.41l9.881,29.276l43.306,0.455l-0.001,0.001l18.942,0.167l31.828,0.199l31.296,0.153l17.744-0.21v-0.001l26.416-0.632
	l23.932-0.742h0.001l26.683-1.121l23.998-0.997l-0.001,0.001l20.207-0.556l30.606-1.42h0.001l42.274-2.217l8.45-0.467h0.001
	l31.693-2.142l18.831-1.229l-0.001-0.001l26.105-1.842l25.063-0.065l-1.663-31.604c0-0.001,34.09-1.486,34.09-1.486l2.354-38.749
	l-13.265-12.398l-1.598-38.524v-0.001l12.6-0.512l-1.021-25.793h-0.001l50.771-2.396l-1.221-25.662c0,0-1.396-25.684-1.396-25.683
	l-0.645-12.904l-2.063-38.498l-24.975,1.241h0.002l-2.974-51.435l-50.836,2.751c0-0.001-2.75-64.388-2.75-64.388l-0.001,0.001
	l-1.642-38.283l-0.775,0.056l-1.064-23.289l-12.644,0.566l-37.062,1.58c0.001,0-39.035,1.591-39.035,1.591l-11.069,0.406
	l0.001-0.002l-49.949,1.785c0,0.001-2.617,0.112-2.617,0.112l-47.485,1.375l-16.081,0.409l-34.135,0.771
	c0,0.001-29.321,0.468-29.321,0.468L375.346,61.651l50.06-0.821l50.216-1.181l50.103-1.486L375.346,61.651z"/>
<path id="scott_3_" fill="#1E6D8E" stroke="#C9C9C9" stroke-width="1.1356" stroke-linejoin="bevel" d="M718.135,50.234
	l-41.653,2.002l1.065,23.289l0.775-0.056l1.642,38.283l2.75,64.387l50.836-2.751v-1l2.971,51.435l24.975-1.241l0.003,0.001
	l2.063,38.498l-0.001,0.999l0.645,12.903l1.396,25.684l1.22,25.662l-50.771,2.396l1.021,25.795l0.003-0.002l-12.6,0.512
	l1.599,38.523l13.265,12.398l-0.003,0.001l-2.353,38.749l0.002,0.001l-34.091,1.485l1.663,31.605l2.308,1.442l8.762,6.608
	l0.266,0.977l-0.377,2.973l0.423,1.021l11.155,13.718l4.613,3.738l7.254,0.521l3.394-1.187l0.153-0.102l1.177-0.976l0.244-1.274
	l0.044-0.09l0.312-13.175l-0.09-1.484l-0.62-1.774l-1.841-2.674l-2.264-1.075l-0.354-1.22l0.155-1.087l4.658-7.164l0.421-0.466
	l0.398-0.389l0.354-0.377l0.977-0.61l2.771-1.574l0.644-0.377l0.156-0.11l5.812-2.029h0.044l0.865-0.044l2.927-0.211l3.571-0.088
	l7.696-9.027l-0.003-0.001l0.756-16.581l0.397-3.896l8.563-12.199l1.175-1.153l3.172-1.795l0.621-0.91l0.932-4.358l0.421-11.923
	l-0.555-3.946l-0.398-1.275l-0.109-0.365l0.002,1.998l0.11-3.526l-5.146-8.45l-0.932-0.965l-0.889-0.41l-1.465,0.199l-3.503-1.729
	l-7.408-8.916l-0.066-0.11l-0.109-1.209l3.126-12.498v-0.045l-0.003,0.002l1.309-5.024l1.51-6.267l0.11-0.276l0.776-1.087v-0.055
	l0.088-0.045l1.177-0.766l4.103-1.486l15.35-4.191l6.72-0.055l1.575,0.198l3.727-0.1l8.806-2.251l20.694-10.247l6.497-7.563
	l5.679-7.63l1.686-15.958l7.675-8.612l8.45-21.891l-1.175-15.32l0.001-0.999l-18.942-22.557l-4.503-2.442l-1.994-1.281l-1.842-1.486
	l-0.111-0.094l-3.062-3.836l-0.088-0.162l-1.508-3.372v-0.932l0.62-1.375l0.621-4.142l-0.066-0.555l-0.311-0.477l-6.434-7.463v2
	l-0.001-1l-0.266-0.261l-0.044-0.044l-9.204-6.404l-7.231-3.738l-2.506-1.796l-0.864-0.91l-0.244-0.738l-0.11-0.814l0.044-0.345
	l1.509-2.562l0.398-0.704l-0.065-0.832l-1.177-3.687l-6.81-12.393l-0.775-0.77l-1.22-0.604l-5.368-1.281l-13.861-2.656v1
	l-5.634-1.342l-2.995-1.375l-8.628-5.734l-1.331-2.761l-9.781-21.709l-2.395-11.2c0,0-2.262-13.923-2.261-13.923l2.771-10.797
	l8.186-13.779l0.398-1.824l-3.216-5.168l-2.462-3.121l-11.355-7.996l0.088-7.53L718.135,50.234z"/>
</svg>
