<?xml version="1.0" encoding="utf-8"?>
<!-- Generator: Adobe Illustrator 15.1.0, SVG Export Plug-In . SVG Version: 6.00 Build 0)  -->
<!DOCTYPE svg PUBLIC "-//W3C//DTD SVG 1.1//EN" "http://www.w3.org/Graphics/SVG/1.1/DTD/svg11.dtd">
<svg version="1.1" id="Layer_1" xmlns="http://www.w3.org/2000/svg" xmlns:xlink="http://www.w3.org/1999/xlink" x="0px" y="0px"
	 width="959px" height="593px" viewBox="0 0 959 593" enable-background="new 0 0 959 593" xml:space="preserve">
<g transform="scale(1) translate(0)">
	<path id="jqvmap1_hi" fill="#FFFFFF" stroke="#818181" stroke-linecap="round" stroke-linejoin="round" stroke-opacity="0.25" d="
		M244.66,512.25c-2.48,3.8,2.23,4.04,4.74,5.38c3.06,0.16,3.51-4.28,2.66-6.56c-2.72-0.771-5.01-0.19-7.41,1.189L244.66,512.25z
		 M235.35,516.22c-4.02,5.11,3.64,0.48,0.63-0.09l-0.5,0.07l-0.14,0.02H235.35z M275.04,524.189c-0.62,2.091,1.91,6.73,4.39,6.2
		c2.41-1.46,3.73,1.73,6.48,0.561c1.23-1.48-3.77-3.2-3.7-6.08c-0.95-3.8-3.28-3.2-5.96-1.28c-0.41,0.2-0.81,0.4-1.22,0.6H275.04z
		 M294.98,534.22c3.58,0.95,7.91,2.99,11.25,0.47c-1.05-1.63-5.061-0.59-7.101-0.859C297.69,533.84,295.59,532.2,294.98,534.22z
		 M307.11,538.6c2.33,2.45,3.64,6.83,7.239,7.4c2.36-0.69,6.841-0.66,7.32-3.43c-2.09-2.511-5.77-3.351-8.88-4.29
		c-2.53-1.2-4.11-3.25-5.68,0.33V538.6z M300.05,539.6c-0.29,3.69,5.55,3.98,3.67,0.551C303.45,538.9,299.89,538.41,300.05,539.6z
		 M323.71,554.29c0.271,2.45,3.18,3.93,0.47,6.15c-0.649,2.42-5.54,2.869-2.52,5.529c2.359,1.46,2.01,4.851,2.92,7.141
		c-0.72,2.689-1.43,6.779,1.72,8.06c2.8,2.95,4.5-1.93,6.19-3.68c1.27-1.69,3.85-4.101,5.939-2.59c3.04-0.811,6.301-2.42,7.78-5.221
		c-2.79-1.31-4.88-3.189-5.57-6.29c-2.399-5.329-8.949-6.26-13.579-8.979c-1.29-0.521-2.261-1.62-3.341-0.11L323.71,554.29z"/>
	<path id="jqvmap1_ak" fill="#FFFFFF" stroke="#818181" stroke-linecap="round" stroke-linejoin="round" stroke-opacity="0.25" d="
		M107.84,436.56c-2.27,0.551-4.87,0.32-6.84-0.34c-2.41,1.221-5.63,4.03-8.25,1.88c-3.1,0.931-3.51,3.841-5.22,5.971
		c-1.82,2.52-4.21,3.649-7.31,3.14c-2.5-0.94-5.49-1.15-7.5,0.98c2.03,4.34,6.39,8.13,5.82,13.229c-1.85,2.94,6.31,2.99,2.68,5.021
		c0.15,2.8,3.07,5.68,2.91,7.88c-2.35,2.21-5.24-0.38-7.71-1.061c-3.24-0.64-2.73-3.35-0.82-5.22c-1.57-1.51-7.35-1.81-6.51,1.12
		c-2.01,0.04-3.81-1.66-6.27-0.771c-3.72-0.439-5.97,0.65-2.94,4.051c3.68,1.449,1.06,4.72,1.17,7.569
		c0.76,2.63,3.66,4.891,6.67,4.17c3.2-0.06,5.87,3.591,9.21,1.65c2.16-1.3,5.33-0.99,4.79,1.89c-2.53,2.07-1.36,6.13-2.78,8.75
		c-1.96,1.88-4.53,1.591-6.59,0.16c-1.52,1.37-4.7,3.681-6.28,2.22c0.72-3.71-4.77-3.63-5.51-0.609c-1.21,3.97-6.27,4.46-8.31,7.63
		c-0.7,2.42-1.55,6.7,1.74,6.3c1.26,1.11-1.2,4.8-2.77,5.521c1.62,2.189,2.65,4.59,2.72,7.34c1.71,1.55,6.35,1.979,7.5-0.16
		c2.45-0.95,1.79,4.1,2.08,5.97c2.47,2.95-4.02,1.28-1.61,4.561c-0.85,2.93-1.76,5.02,2,2.72c2.76-0.47,5.11-0.69,5.66,2.09
		c2.59-3.91,2.26,2.78,3.25,4.66c0.59-0.75,1.3-5.69,3.94-3.06c-0.17,4.52,5.33-0.45,5.78-0.04c0.54,2.92-1.63,4.239-2.86,6.409
		c-1.51,2.24-2.07,5.631-4.21,7.17c-3.87-0.42-3.37,4.101-5.5,5.021c-2.65-0.72-5.73,0.71-8.44,1.41c-1.35,2.41-3.61,4.2-5.78,1.81
		c-2.56,0.05-5.63,0.681-7.63,2.33c-2.48,2.43-6.32,3.11-9.66,2.29c-2.78-1.91-7.11,3.41-3.11,2.311c2.5-1.91,4.66,0.64,7.25,0.63
		c2.21-1.15,4.17-2.75,6.84-2.061c2.32-3.35,5.1-0.319,7.92-1.16c2.31-0.39,7.01-3.909,5.26,0.66c0.09-2.91,3.42-2.729,5.54-2.04
		c4.21,0.96,0.29-3.159,2.08-3.43c3.47-2.05,7.52-2.41,11.2-3.72c5.48-3.19,11.62-5.7,16.21-10.101c4.27-2.97-2.78-3.479-1.21-6.319
		c1.68-2.431,4.58-3.811,7.47-4.5c1.5-3.07,3.53-6.11,5.88-8.521c2.49-1.319,4.83-3.39,7.83-2.319c2.67,0.71,3.74,5.319-0.52,3.659
		c-1.27-1.88-5.56-0.09-5.25,2.41c-0.21,2.44-2.56,4.22-3.06,6.66c4.79,0.85,0.24,3.54-1.38,3.8c1.67,1.91,5.66,0.6,7.57-1.14
		c1.25-1.851,3.43-3.8,5.41-4.22c1.81,2.8,5.1-1.16,5.74,2.72c0.71,2.78,6.02-4.86,3.34-3.101c-3.03,3.11-3.78,2.86-1.94-1.239
		c1.43-4.851-1.76,6.17-1.45,0.81c-0.81-3.189-0.93-6.03,3.05-6.4c2.7-0.859,5.37-0.869,5.79,2.521c0.42,3.479,3.8,2.84,5.95,4.76
		c2.41,2.2,4.76,1.95,7.8,1.78c4.34-0.47,8.01,4.04,12.28,3.17c2.49-0.42,5.1-5.2,4.29-0.23c-2.26,2.83-0.02,4.12,2.5,5.41
		c3.13,1.351,5.87,3.141,7.94,5.851c1.31,3.02,6.05,0.279,6.18,2.43c-3.83,1.25-1.23,3.54,0.21,5.47c1.81,1.95,0.33,5.721,3.64,5.82
		c1.14,1.28,3.49,7.439,4.01,5.38c-0.35-2.32-0.7-7.86,1.61-3.76c0.37,1.42,1.04,8.7,2.07,4.74c1.07-4.881,3.18,0.18,2.22,2.93
		c3.33,1.689-1.23,3.33,0.69,4.88c0.69-3.24,1.31-0.36,2.16,1.56c1.05,1,1.54,3.94,3.13,3.721c-1.68-1.721-2.94-6.23,0.4-3
		c2.42,2.79,4.05,2.12,2.74-1.66c-2.65-2.66,0.28-4.96,2.58-2.29c3.12-0.05,2.84,5.21,5.28,4.53c3.31-3.17,1.5-7.87,0.69-11.7
		c-3.3-1.55-7.04-2.54-10.22-4.061c-1.5-5.33-6.29-8.689-8.4-13.77c-0.44-3.33-4.71-2.62-5.75-5.23c-2.32-1.72-2.7-4.399-4.56-6.35
		c-1.65-1.53-5.22,0.95-5.51,2.94c0.59,3.09-3.23,3.04-5.06,4.72c0.05-4.271-4.3-6.15-6.7-9.1c-1.33-1.99-1.32-5.36-4.45-2.341
		c-2.37,0.24-6.38-0.31-5.34-3.62c0.1-27.699,0.2-55.399,0.31-83.09c-2.75-1.88-5.88-4.17-9.15-4.399
		c-2.52,1.72-5.07,1.09-7.39-0.62c-2.72,0.229-5.12-0.65-7.7-2.891c-3.08-2.739-8.58,0.171-10.98-3.649c1.13-3.561-3.22-4.83-5-2.09
		c-2.09,0.26-0.65-4.311-3.64-4.931c-2.57-2.85-4.01-1.279-5.86,1.21L107.84,436.56z M36.38,480.63c-0.67,3.11,4.27,1.311,4.72,4.66
		c0.24,3.82,5.37,3.9,2.34-0.08c-0.1-3.22-3.92-1.83-5.06-4.43c-0.76-2.021-0.9-1.86-2-0.16V480.63z M19.22,503.79
		c2.57,4.06,1.45,1.37,0.13-1.28C18.99,502.52,19.35,503.51,19.22,503.79z M41.06,518.6c1.27,1.79,4.99,5.58,6.22,2.03
		c2.26-3.3-3.27-2.89-5.23-3.68C40.22,516.05,41.17,517.49,41.06,518.6L41.06,518.6z M132.78,537.38
		C132.84,540.59,135.59,535.4,132.78,537.38z M101.31,552.07c-3.2,2.91-7.24,4.67-10.56,7.38c0.22,2.75,0.99,7.64,4.67,5.149
		c2.5-1.439,4.98-2.899,7.45-4.369c-1.84-3.311-0.81-3.15-4.55-3.48c-4.15,0.09,1.06-3.729,2.64-1.62c3.74-1.04,3.95-2.359,1.5-3.66
		c0.7-1.079-1,0.61-1.16,0.591L101.31,552.07z M55.75,570.75C57.17,573.58,59.28,568.76,55.75,570.75z M19.97,571.09
		c0.53,2.46-4.04,4.84,1.05,3.59c4.2,0.471,3.46-4.35,0.01-3.84c-0.35,0.08-0.7,0.16-1.06,0.24V571.09z M82.16,571.78
		C83.73,574.69,83.47,569.75,82.16,571.78z M58.63,573.13C61.86,573.62,59.62,570.08,58.63,573.13z M9.63,573.22
		c-4.84,2.561-0.44,1.811,2.29,0.58c2.89,0.16,5.05-0.479,0.84-1.46C11.72,572.63,10.68,572.92,9.63,573.22z M16.88,574.6
		C18.16,574.811,14.65,574.01,16.88,574.6z"/>
	<path id="jqvmap1_fl" fill="#FFFFFF" stroke="#818181" stroke-linecap="round" stroke-linejoin="round" stroke-opacity="0.25" d="
		M748.38,439.94c1.69,2.92,1.5,6.119,1.16,9.34c-4.12,0.54-2.15-4.69-5.56-3.99c-6.181-0.07-12.341,1.13-18.54,1.19
		c-10.091,0.289-20.37,2.14-30.33,0.64c-2.57-1.57-2.841-6.15-6.5-5.33c-9.12-0.12-18.181,1.79-27.261,2.55
		c-5.819,0.63-11.619,1.37-17.43,2.12c-1.42,3.25,2.6,4.37,4.061,6.34c0.8,2.28-1.561,8.42,2.189,7.101
		c4.11-1.2,8.08-2.931,12.48-2.721c3.34-0.819,6.63-0.729,9.89,0.45c4.09,0.8,7.77,3.09,11.41,4.98c1.77,1.939,5.5,1.87,5.97,5
		c-0.14,3.27,4.32-0.94,6.5,0.529c3.19-0.8,5.24-3.68,7.69-5.5c4.859,1.69,0.619-2.899,3.27-3.97c3.13-0.83,6.62-1.39,9.35,0.79
		c3.04,0.57,5.431,2,6.57,4.99c3.68,0.02,2.88,4.13,5.48,5.3c2.96,0.49,2.979,4.52,6.3,4.3c2.91,0.36,5.45,1.15,5.84,4.45
		c2.05,2.11,3.92,4.26,3.09,7.41c0.18,3.68,0.12,7.33-1.439,10.75c0.39,3.68,1.369,7.939,3.279,10.78
		c2.25-3.46,0.17-3.87-1.739-6.03c2.189-1.76,4.859-0.22,7.3,0.16c0.82,3.149-2.16,5.6-3.48,8.189c-3.3,2.21,1.65,4.09,2.73,6.301
		c3.109,3.34,4.35,7.939,7.53,11.26c0.779,2.29,2.51,7.47,4.63,3.09c2.54-0.24,3.88,3.439,5.279,5.41
		c-0.02,2.26,1.931,7.04,3.591,6.439c2.88-0.8,6.04,0.65,8.279,2.59c2.561,3.301,4.58,6.98,4.561,11.271
		c1.37,2.729,4.55,0.44,5.81-1.14c3.74,0.449,7.26-1.25,9.221-4.471c-1.011-2.359-0.57-4.83-0.32-7.17
		c-0.04-2.18,4.33-3.189,2.25-6.51c-0.98-6.33-0.19-12.96-1.87-19.25c-2.46-6.93-7.54-12.74-10.4-19.56
		c-1.51-2.41-4.239-3.92-4.62-7.04c-0.939-2.28-2.67-4.95-0.069-6.71c-0.391-3.561-4.86-5.42-6.84-8.41
		c-5.381-5.57-8.29-12.94-12.351-19.44c-2.149-5.529-4.29-11.069-5.91-16.779c-3.43,0.069-7.3-1.03-10.46-0.351l-0.34,0.37
		l-0.26,0.29L748.38,439.94z M801.29,549.16c-1.9,4.58,0.72,0.38,0.66-1.91C801.73,547.89,801.51,548.521,801.29,549.16z
		 M796.6,559.07c2.561-1.971,3.681-6.84,1.04-1.681C797.29,557.95,796.95,558.51,796.6,559.07z M794.35,561.29
		c1.46-1.22,2.04-2.07,0.181-0.18L794.35,561.29z M788.63,565.45c-5.229,3.689,4.03-2.141,0.33-0.19L788.63,565.45z M777.91,568.67
		c-3.41,3.16,5.71-0.32,4.1-0.81C780.21,567.3,779.45,567.15,777.91,568.67z M773.32,571.83
		C773.4,571.99,773.72,571.53,773.32,571.83z"/>
	<path id="jqvmap1_nh" fill="#FFFFFF" stroke="#818181" stroke-linecap="round" stroke-linejoin="round" stroke-opacity="0.25" d="
		M862.56,94c-1.399-0.41-3.869-0.72-3.05,3c0.221,3.63-0.729,7.84,2.23,10.59c0.33,2.78,0.08,5.36-2.17,7.29
		c-0.19,2.83-5.98,2.58-3.351,5.32c1.16,7.35-0.56,15.03-0.62,22.51c1.2,1.95,0.98,4.39,0.761,6.75c-1.07,3.79,4.84-0.05,6.89,0.06
		c3.93-1.29,8.46-1.74,12.04-3.54c0.771-3.1,4.37-2.75,5.94-4.96c2.59-3.52-3.011-2.73-2-6.59c-3.83,0.01-4.271-2.46-4.66-5.62
		c-3.84-11.98-7.32-24.45-11.49-36.1c-0.18,0.43-0.35,0.85-0.53,1.28L862.56,94z"/>
	<path id="jqvmap1_mi" fill="#FFFFFF" stroke="#818181" stroke-linecap="round" stroke-linejoin="round" stroke-opacity="0.25" d="
		M697.86,177.24l-3.23-8.25l-2.27-9.05l-2.42-3.23l-2.591-1.78l-1.609,1.13l-3.88,1.78l-1.94,5.01l-2.75,3.72l-1.13,0.64l-1.46-0.64
		c0,0-2.59-1.46-2.42-2.1c0.16-0.65,0.479-5.02,0.479-5.02l3.4-1.29l0.8-3.39l0.65-2.59l2.43-1.62l-0.33-10.02l-1.609-2.26
		l-1.301-0.81l-0.81-2.1l0.81-0.81l1.62,0.32l0.16-1.61l-2.42-2.27l-1.3-2.58h-2.58l-4.53-1.46l-5.5-3.39h-2.75l-0.64,0.64
		l-0.971-0.48l-3.069-2.27l-2.91,1.78l-2.91,2.27l0.32,3.55l0.97,0.33l2.1,0.48l0.49,0.81l-2.59,0.81l-2.59,0.32l-1.45,1.78
		l-0.32,2.1l0.32,1.62l0.32,5.49l-3.55,2.1l-0.65-0.16v-4.2l1.29-2.42l0.65-2.43l-0.811-0.81l-1.939,0.81l-0.971,4.2l-2.75,1.13
		l-1.779,1.94l-0.16,0.97l0.649,0.81l-0.649,2.59l-2.261,0.48v1.14l0.811,2.42l-1.13,6.14l-1.62,4.05l0.65,4.68l0.479,1.14
		l-0.81,2.42l-0.32,0.81l-0.32,2.75l3.55,5.98l2.91,6.46l1.46,4.85l-0.81,4.69l-0.97,5.98l-2.431,5.18l-0.319,2.75l-3.261,3.08
		l4.41-0.16l21.42-2.26l7.28-0.99l0.09,1.66l6.86-1.21l10.29-1.5l3.859-0.46l0.141-0.59l0.16-1.45l2.1-3.72l2-1.74l-0.22-5.05
		l1.59-1.6l1.09-0.34l0.23-3.56l1.529-3.03l1.05,0.61l0.171,0.64l0.8,0.16l1.939-0.97L697.86,177.24z M581.62,82.06l1.83-2.06
		l2.17-0.8l5.37-3.89l2.29-0.57l0.46,0.46l-5.15,5.14l-3.31,1.95l-2.061,0.91L581.62,82.06z M667.79,114.19l0.65,2.5l3.229,0.16
		l1.3-1.21c0,0-0.08-1.45-0.41-1.61c-0.319-0.17-1.609-1.86-1.609-1.86l-2.19,0.24l-1.609,0.16l-0.33,1.13L667.79,114.19z
		 M567.49,111.21l0.72-0.58l2.75-0.81l3.55-2.26v-0.97l0.65-0.65l5.979-0.97l2.431-1.94l4.359-2.1l0.16-1.29l1.94-2.91l1.779-0.81
		l1.29-1.78l2.271-2.26l4.36-2.42l4.689-0.49l1.13,1.13l-0.319,0.97l-3.721,0.97l-1.45,3.07l-2.27,0.81l-0.48,2.43l-2.43,3.23
		l-0.32,2.59l0.811,0.48l0.97-1.13l3.55-2.91l1.301,1.29h2.26l3.229,0.97l1.46,1.13l1.45,3.08l2.75,2.74l3.88-0.16l1.46-0.97
		l1.61,1.3l1.62,0.48l1.29-0.81h1.13l1.62-0.97l4.04-3.55l3.399-1.14l6.63-0.32l4.521-1.94l2.59-1.29l1.45,0.16v5.66l0.49,0.32
		l2.91,0.81l1.939-0.49l6.14-1.61l1.131-1.13l1.46,0.48v6.95l3.229,3.07l1.29,0.65l1.3,0.97l-1.3,0.32l-0.8-0.32l-3.72-0.48
		l-2.101,0.64l-2.27-0.16l-3.23,1.46h-1.78l-5.819-1.3l-5.17,0.16l-1.94,2.59l-6.95,0.65l-2.43,0.81l-1.13,3.07l-1.29,1.13
		l-0.49-0.16l-1.45-1.62l-4.529,2.43h-0.65l-1.13-1.62l-0.81,0.16l-1.94,4.37l-0.97,4.04l-3.181,7l-1.17-1.04l-1.37-1.03
		L607.9,127.1l-3.54-1.37l-2.051-2.28l-12.119-2.75l-2.86-1.03l-8.23-2.17l-7.89-1.14L567.49,111.21z"/>
	<path id="jqvmap1_vt" fill="#FFFFFF" stroke="#818181" stroke-linecap="round" stroke-linejoin="round" stroke-opacity="0.25" d="
		M833.16,106.59c0.189,6,4.649,11.21,3.72,17.28c-2.479,4.23,4.521,7.29,2.22,11.58c0.9,1.59,4.66,1.96,4.061,5.25
		c1.08,4.21,2.859,8.34,1.84,12.76c3.35-0.51,7.06-1.17,10.13-1.97c-0.21-2.13,1.51-5.75-0.53-7.81c0.2-7.64,1.011-15.26,1.13-22.91
		c-3.25-2.41,0.32-3.79,2.12-5.18c1.96-2.28,3.9-5.07,2.601-8.1c-2.62-1.63-1.021-5.94-2.391-7.22c-8.3,2.1-16.59,4.21-24.89,6.31
		L833.16,106.59z"/>
	<path id="jqvmap1_me" fill="#B4E0F4" stroke="#818181" stroke-linecap="round" stroke-linejoin="round" stroke-opacity="0.25" d="
		M889.88,40.22c-2.16,1.31-3.689,2.74-4.84,4.69c-2.29,0.6-4.99-1.37-4.88-3.94c-2.97-0.82-3.33,3.68-4.37,5.71
		c-1.09,4.29-3.271,8.39-3.97,12.69c-0.061,3.04,1,6.63-1.351,9.09c0.08,2.92-0.75,6.18,2,8.16c-1.37,5.7-6.229,10.36-5.409,16.56
		c-4.271-2.21-1.74,2.47-1.091,4.73c3.511,11.08,7.19,22.16,10.25,33.35c0.21,3.01,5.811,1.35,4.53,5.7c2.9,2,2.061-3.92,2.66-5.87
		c-1.01-3.29,2.7-4.63,0.66-7.62c0.939-1.05,2.92-5.9,4.609-3.46c2.03,1.03,5.28-1.89,6.74-3.19c-0.979-4.02,4.21-1.75,4.73-5.32
		c-1.11-2.61,0.739-5.45-0.57-7.44c-2.42-1.59,3.53-4.63,3.31-0.78c2.271,0.48,2.15,2.8,3.66,3.93c1.94-2.82-2.149-3.81,0.351-6.03
		c2.43-0.81,3.1-3.96,6-3.31c-0.171,1.46,1.029,3.34,2.26,1.38c2.939-2.9,5.24-7.08,9.37-8.34c1.17-2.61,3.34-5.74,0.71-8.24
		c-0.551-1.64-3.681-4.84-4.15-2.58c-0.75,2.6-4.66-0.65-4.92-2.22c0.1-2.8,0.29-7.17-3.8-5.81c-3.96,1.36-3.641-3.04-4.69-5.61
		c-2.46-8.15-4.93-16.3-7.399-24.45c-2.86-1.25-5.71-2.92-8.811-3.38c-0.529,0.53-1.06,1.06-1.59,1.59V40.22z M910.35,101.22
		c-2.81,1.7,1.87,5.16,1.131,1.22C912.96,101.54,911.61,100.04,910.35,101.22z M902.54,109.03
		C905.7,115.7,905.17,105.44,902.54,109.03z"/>
	<path id="jqvmap1_ri" fill="#FFFFFF" stroke="#818181" stroke-linecap="round" stroke-linejoin="round" stroke-opacity="0.25" d="
		M871,164.28c1.15,4.66,2.29,9.31,3.44,13.97c2.56-0.49,4.659-2.29,5.84-4.56c4.17,0.76,4-2.64,1.51-4.97
		c-1.79-1.94-3.16-5.31-5.74-5.92C874.37,163.29,872.68,163.79,871,164.28L871,164.28z"/>
	<path id="jqvmap1_ny" fill="#FFFFFF" stroke="#818181" stroke-linecap="round" stroke-linejoin="round" stroke-opacity="0.25" d="
		M825.56,108.66c-2.699,1.12-5.449,1.68-8.329,1.43c-5.07,0.72-10.171,2.73-12.921,7.31c-2.84,3.43-4.89,7.49-7.18,11.2
		c-1.649,2.36-5.82,3.73-5.55,6.84c-0.17,3.56,5.77,0.73,4.43,4.38c-2.689,2.3,0.8,4.23,0.561,6.59c0.5,3.47-4.261,1.99-5.36,4
		c-1.62,2.71-3.35,6.62-7.22,6.05c-3.04-0.43-5.351,2.05-7.98,2.63c-2.5-0.75-4.699-2.05-7.59-1.31
		c-5.31,0.21-10.62,1.979-15.229,4.53c-0.29,1.77,0.609,6.25,3.17,6.14c1.55,2.48,2.09,4.96-0.63,6.72
		c-1.511,1.76-1.801,4.25-4.16,5.3c-1.931,1.14-2.681,3.51-4.8,4.54c0.329,3.07-0.221,7.29,4.079,5.12
		c22.141-4.26,44.261-8.68,66.23-13.74c0.98,3.85,5.67,1.32,6.44,4c0.64,2.93,1.359,7.4,5.329,6.88c3.141,1.9,6.9,3.68,10.69,4.22
		c2.71,0.47,7.18,1.43,6.44,5.06c-0.33,1.97-1.62,7.56,1.97,5.93c5.3-1.65,10.96-2.84,15.06-6.85c3.23-2.49,6.761-4.64,9.351-7.86
		c-2.99-2.44-4.65,0.46-6.811,2.42c-2.91,1.56-6.01,3.51-9.16,4.32c-2.6-0.63-4.829-0.86-6.18,2.07c-1.03,2.04-4.86,2.98-3.979-0.15
		c4.26-1.87-2.17-3.97-0.33-6.21c1.189-3.13,0.56-6.87,0.42-10.21c-1.431-7.38-3.69-14.76-2.54-22.36
		c-0.08-4.46,1.55-8.97-0.51-13.21c-1.221-2.56-0.471-6.83-4.051-7.34c-2.989-0.66,0.75-4.31-1.569-6.2
		c-1.7-2.43-3.17-4.91-1.54-7.81c0.38-5.77-3.83-10.57-3.55-16.35c-2.32,0.65-4.65,1.29-6.971,1.94L825.56,108.66z"/>
	<path id="jqvmap1_pa" fill="#9FD2E9" stroke="#818181" stroke-linecap="round" stroke-linejoin="round" stroke-opacity="0.25" d="
		M798.88,181.63c-17.5,3.38-34.87,7.42-52.47,10.28c-0.61-2,0.479-8.42-2.41-4.31c-2.18,2.73-5.479,3.74-8.09,5.97
		c1.52,9.75,2.63,19.57,5.439,29.05c1.141,6.09,2.271,12.17,3.41,18.26c8.851-1.42,17.79-2.25,26.51-4.41
		c16.391-3.45,33.03-6.46,49.33-9.87c2.48-3.07,8.03-1.69,8.971-6.19c0.64-2.36,4.859-3.99,4.33-5.9
		c-2.301-1.89-5.94-2.77-6.391-6.13c-3.14,1.09-4.42-3.94-3.12-5.32c3.86-1.1-0.489-3.68,0.551-5.96c2.52-1.88,1.119-5.15,2.81-7.07
		c3.87-2.7-2.98-1.1-3.72-3.99c-1.351-2.18-0.28-7.24-4.16-5.92c-2.34-1.13-3.87-3.75-7.09-1.7c-4.641,1.07-9.28,2.15-13.92,3.22
		L798.88,181.63z"/>
	<path id="jqvmap1_nj" fill="#FFFFFF" stroke="#818181" stroke-linecap="round" stroke-linejoin="round" stroke-opacity="0.25" d="
		M827.84,191.34c1.03,2.99-1.82,4.8-2.06,7.47c2.859,1.63,0.489,4.87-0.92,5.73c-0.41,3.86,4.01,1.68,4.159,5.14
		c1.37,2.19,4.721,3.02,6.261,4.94c-0.15,2.61-3.851,3.5-4.69,6.06c-0.26,3.07-4.09,3.19-4.18,5.96c-0.99,2.38-0.74,5.09,1.7,6.47
		c2.85,2.76,6.859,3.99,10.729,4.38c0.48,1.55-1.84,7.18,1.101,3.59c1.5-2.42,0.59-5.95,3.109-8.01c2.5-4.08,5.03-8.84,4.88-13.61
		c-1.35-4.07,0.801-9.01-1.81-12.82c-1.101,1.32-6.17,1.23-4.13-0.8c2.39-1.39,3.37-3.62,2.39-6.31c0.21-2.31,1.58-5.42-1.689-6.19
		c-4.351-1.15-8.82-2.13-12.881-4.26c-0.659,0.75-1.31,1.5-1.97,2.25V191.34z"/>
	<path id="jqvmap1_de" fill="#398BB0" stroke="#818181" stroke-linecap="round" stroke-linejoin="round" stroke-opacity="0.25" d="
		M824.88,225.34c-3.72,0.25-3.47,3.52-1.91,6.13c3.351,6.89,3.86,14.58,6.03,21.81c3.45,0.11,6.811-0.49,10.16-1.25
		c-1.2-2.17-0.68-6.38-3.32-6.38c-2.899-1.2-4.17-3.69-4.899-6.58c-0.91-3.11-3.62-4.96-5.48-7.35c-1.85-1.82,0.94-5.5-0.26-6.47
		l-0.33,0.09H824.88z"/>
	<path id="jqvmap1_md" fill="#B1DEF2" stroke="#818181" stroke-linecap="round" stroke-linejoin="round" stroke-opacity="0.25" d="
		M813.59,229.19c-17.31,3.18-34.529,6.83-51.779,10.28c0.739,3.02,1.31,6.08,1.779,9.16c2.141-1.9,3.29-5.35,6.59-5.34
		c2.141-1.85,2.67-5.25,5.771-3.55c3.46,0.18,5.43-5.35,9.01-3.85c2.63,1.63,5.66,2.79,7.34,5.59c4.19,0.11,3.681,3.73,5.74,4.96
		c2.73,1.11,5.021,1.18,6.38-0.53c4.29,1.38,2.24,3.74,1.44,6.9c0.09,2.97-3.7,4.92-1.66,7.97c3.1,1.31,6.4,1.2,9.63,1.4
		c2.17,1.58,6.83,1.03,3.79-2.1c0.41-2.74-3.08-3.35-3.32-6.04c-1.699-2.67-1.42-5.47-0.359-8.32c1.68-2.42-2.83-3.82-0.4-5.41
		c1.25-1.53,0.43-4.16,2.98-4.7c1.62-3.02,5.1-1.45,2.35,1.02c-2.54,2.98-0.81,4.5,0.57,6.3c1.409,3.55-0.681,5.07-1.53,7.31
		c-0.22-0.81,3.62-1.01,3.22,1.79c-3.149,1.64-1.45,6.12,1.09,7.31c2.98,0.99,5.58-1.8,6.98,2.14c1.5,3.75,4.92,0.81,7.41-0.02
		c2.739-1.21,3.47-4.93,2.779-7.7c-1.13-1.58-4.819,0.92-7.13,0.4c-3.859,1.26-4.899-1.25-5.279-4.64
		c-1.681-5.97-2.141-12.33-5.16-17.9c-0.04-4.32-2.71-4.2-6.07-2.91c-0.729,0.16-1.45,0.31-2.18,0.47L813.59,229.19z M824.53,261.78
		c1.319,0.99,0.59,4.97,2.06,4.63C826.11,265.1,826.23,261.42,824.53,261.78z"/>
	<path id="jqvmap1_va" fill="#FFFFFF" stroke="#818181" stroke-linecap="round" stroke-linejoin="round" stroke-opacity="0.25" d="
		M792.88,242.88c-0.16,1.46,0.24,5.89-2.399,4.29c-2.58-0.67-6.421-3.2-8.23-2.73c0.7,3.72-1.46,6.77-2.99,9.94
		c-3.05,1.14-2.29,5.83-5.84,5.58c-1.62,1.74-1.47,5.31-2.45,7.73c-3.09,1.14-5.37-0.48-7.28-1.75c0.11,6.5-3.72,11.95-5.909,17.84
		c-1.69,1.73,1.189,3.8-0.74,5.77c-1.35,3.56-3.79,2.72-6.19,4.19c-2.72,1.1-4.899,0.5-5.399,4.609
		c-2.07,1.141-4.83,2.631-6.91,0.471c-2.38,1.51-5.021,3.209-7.81,1.6c-2.69-0.01-3.9-6.55-6.07-2.939
		c-3.271,4.09-7.891,7.479-10.21,12.09c0.43,3.25-4.46,3.32-6.42,5.149c-4.271,1.95,3.62-0.11,5.159-0.069
		c5.561-0.791,11.141-1.371,16.761-1.36c1.95-2.649,4.979-1.81,7.77-1.649c7.86-0.32,15.65-2.121,23.48-2.99
		c12.85-1.4,25.439-4.271,38.04-7.051c11.649-2.52,23.3-5.03,34.96-7.55c-1.641-2.66-2.75-6.67-6.42-4.14
		c-1.99,2.03-6.61-1.82-2.7-2.48c2.65-1.62-1.75-4.07-1.8-5.97c-2.73-0.62-2.88-5.12,0.54-3.6c-0.17-1.37-1.24-3.62-1.62-5.68
		c1.47-3.51-0.84-4.97-3.72-5.16c0.31-3.42-2.9-2.93-5.221-3.97c-3.33,0.21-7.06-0.25-9.91-1.66c-1.22-2.41-0.909-5.12,1.25-6.88
		c1.391-2.83-0.279-5.7-3.3-6.27c-2.649-0.83-6.97-0.29-5.729-4.3C794.74,243.64,793.521,242.88,792.88,242.88L792.88,242.88z
		 M832.04,264.47c0.44,4.71-3.15,8.7-2.62,13.48c-0.34,4.11,2.64,5.72,3.48,0.92c1.71-3.04-0.23-6.47,0.8-9.73
		c0.399-2.53,3.66-3.88,3.52-6.73c-1.729,0.69-3.46,1.38-5.189,2.06H832.04z"/>
	<path id="jqvmap1_wv" fill="#FFFFFF" stroke="#818181" stroke-linecap="round" stroke-linejoin="round" stroke-opacity="0.25" d="
		M739.75,223.25c-1.6,2.23,1.3,5.02,0.25,7.75c-0.18,4.04-0.63,8.11-0.84,12.13c-1.94,3.58-4.43,7.35-8.16,9.13
		c-3.15-1.33-3.92,3.25-5.76,4.98c-1.561,2.28,2.64,4.93-0.3,6.69c-2.57,3.58-2.601-4.8-4.46-0.71c-1.32,2.59,0.02,6.02-1.351,8.33
		c-1.82,1.54-0.53,5.19-4.16,4.81c-2.229,0.13-1.45,6.19,1,6.81c2.24,1.47,2.49,4.74,5.5,5.92c1.92,1.96,2.28,5.18,5.391,6.05
		c1.64,2.19,3.069,4.959,6.25,4.879c2.63,0.5,4.77-3.859,7.22-1.35c1.49,0.811,3.93-0.57,4.58-1.83c0.43-4.57,3.42-2.71,6.03-4.39
		c2.39-0.94,4.819-0.98,5.62-4.44c-1.261-2.59,0.3-5,1.56-7.64c2.229-4.81,4.72-9.61,4.67-15.05c2.65-2.31,3.72,3.56,7.05,1.41
		c1.641-1.77,1.12-5.67,2.601-7.59c3.47,0.39,2.97-3.96,5.76-5.21c2.29-3.11,3.52-6.8,3.06-10.7c1.061-1.29,5.101,1.62,7.23,2.15
		c3.3,3.35,4.34-1.98,2.85-4.05c-2-2.28-5.12-3.7-7.62-4.75c-3.31,0.98-5.439,5.47-9.38,3.97c-1.859-0.23-2.38,3.98-4.859,3.88
		c-2.891,0.71-3.79,4.38-6.03,6.22c-1.101-0.06-0.99-4.82-1.62-6.64c-0.01-3.93-1.771-5.3-5.48-3.82
		c-4.21,0.6-8.409,1.23-12.609,1.91c-1.17-6.45-2.29-12.92-3.44-19.38l-0.35,0.35l-0.181,0.18H739.75z"/>
	<path id="jqvmap1_oh" fill="#FFFFFF" stroke="#818181" stroke-linecap="round" stroke-linejoin="round" stroke-opacity="0.25" d="
		M729.5,197.78c-4.85,2.06-7.38,6.9-11.47,9.97c-4.08,0.86-8.09,1.75-11.72,3.88c-3.41,1.61-4.391-4.09-7.671-2.63
		c-3.13,1.35-5.489-1.1-8.109-2.41c-8.601,1.15-17.15,2.64-25.66,4.38c1.45,17.83,4.12,35.53,5.87,53.33
		c-0.69,3.82,4.06,2.26,6.229,1.48c2.74,0.41,4.83,2.16,5.48,4.94c1.26,2.48,5.82-0.87,6.96,2.54c2.189,1.53,4.46-2.33,7.03-0.58
		c2.52,0.04,5.62,1.51,6.84-1.56c1.49-0.55,5.37-3.85,5.41-0.71c0.38,2.53,3.819,3.57,5.77,4.7c3.53,0.63,2.32-3.91,4.21-5.51
		c-0.109-2.74,0.21-5.73,1.391-8.13c2.529-2.81,3.8,4.53,4.979,0.39c-2.02-2.27-0.99-5.41,0.93-7.41c1.07-4.06,4.051-2.41,6.5-4.39
		c2.931-3.16,6.591-6.57,5.971-11.27c0.439-4.71,1.18-9.75-0.53-14.23c1.47-2.48,2.58-4.29,0.96-7.33
		c-2.04-7.53-2.56-15.37-3.93-23.04C733.13,195.39,731.311,196.59,729.5,197.78L729.5,197.78z"/>
	<path id="jqvmap1_in" fill="#539DBE" stroke="#818181" stroke-linecap="round" stroke-linejoin="round" stroke-opacity="0.25" d="
		M658.66,210.31c-9.12,0.93-18.351,1.98-27.41,2.68c-2.6,0.39-4.21,5.08-6.89,2.98c-3.83-2.84-2.641,1.83-2.41,4.45
		c1.1,14.81,2.729,29.61,3.439,44.42c-0.76,3.69-1.39,7.89,1.36,10.91c0.1,2.99,1.4,6.28-1.14,8.65
		c-1.83,2.73-2.551,6.09-5.021,8.42c0.09,2.08-2.02,8.2,1.63,5.161c3.49-0.601,7.25-1.53,10.69-1.34c2.359,4.08,2.67-0.62,5.26-1.29
		c2.03-2.62,4.78,2.05,5.34,1.04c-1.26-3.41,3.05-3.77,5.101-5.22c1.09,0.63,6.05,3.38,5.3-0.64c-0.46-2.47,2.02-4.71,3.649-6.34
		c3.11-1.39,4.33-3.9,4.16-7.23c1.83-1,4.931-1.01,6.97-2.47c4.23-1.03,0.261-3.48,1.221-5.92c-0.83-12.56-2.8-25.13-4.08-37.69
		c-0.851-6.99-1.44-14.01-2.141-21.02c-1.68,0.16-3.35,0.31-5.029,0.47V210.31z"/>
	<path id="jqvmap1_il" fill="#80BCD7" stroke="#818181" stroke-linecap="round" stroke-linejoin="round" stroke-opacity="0.25" d="
		M569.75,200.44c-0.29,2.58,4.2,1.83,3.73,5.07c2.069,2.09,5.71,4.21,4.38,7.77c-0.311,3.04-2.61,5.44-3.08,8.4
		c-2.38,2.71-6.061,2.98-9.311,3.94c-1.609,2.47-1.05,4.91,1.28,6.47c0.63,3.25-1.08,5.07-2.74,7.38c1.41,3.63-2.39,2.86-3.56,5.02
		c1.08,3.12-2.11,3.8-2.53,6.64c0.19,3.95,1.33,8.21,3.28,11.58c3.68,3.96,7.38,7.9,12.21,10.47c-0.61,2.88-0.641,6.7,3.43,5.71
		c2.05,0,6.18,0.38,6.26,2.68c-0.189,4.39-3.6,8.24-3.279,12.53c1.6,3.83,5.33,6.259,8.59,8.419c3.37-0.289,5.359,1.271,5.9,4.601
		c1.01,2.64,3.84,4.729,1.729,7.67c0.55,1.74,2.58,7.7,4.31,4.05c1.211-2.98,5.41-4.779,8.07-2.46c3.1,2.46,5.94,0.47,3.13-2.8
		c-0.979-3.391,2.61-4.96,5.37-5.33c1.01-1.55-1.6-4.46,1.4-5.97c1.8-3.97-0.561-9.39,3.319-12.49c1.431-2.97,3.23-5.97,4.4-8.97
		c0.13-3-0.7-5.7-2.34-8.16c-0.45-4.59,1.31-9.09,0.02-13.65c-1.159-15-2.22-30.05-3.67-45.01c-1.02-3.1-1.609-6.46-4.04-8.77
		c-2.27-1.83-0.51-5.93-1.97-7.32c-14.76,0.83-29.52,1.67-44.28,2.5L569.75,200.44z"/>
	<path id="jqvmap1_ct" fill="#FFFFFF" stroke="#818181" stroke-linecap="round" stroke-linejoin="round" stroke-opacity="0.25" d="
		M865.78,165.41c-6.91,1.54-13.811,3.08-20.72,4.63c2.17,6.2,2.739,12.83,2.439,19.34c-2.62,4.3,2.61,2.38,3.97-0.21
		c2.091-1.89,4.19-3.71,5.99-5.88c2.06,1.35,4.78-1.86,7.44-1.46c2.979-0.68,5.689-2.24,8.56-3.26c-1.15-4.67-2.29-9.33-3.44-14
		c-1.42,0.28-2.829,0.56-4.25,0.84H865.78z"/>
	<path id="jqvmap1_wi" fill="#FFFFFF" stroke="#818181" stroke-linecap="round" stroke-linejoin="round" stroke-opacity="0.25" d="
		M559.53,104.97c-4.061,2.75-8.71,4.92-13.53,5.84c-2.88-1.08-5.54-1.12-5.57,2.68c-0.479,3.34,0.511,7.03-0.47,10.17
		c-2.02,3.26-6.91,4.03-7.36,8.38c-2.63,2.78,2.211,3.06,2.23,5.53c1.79,2.9-2.13,4.74-1.33,7.65c0.29,2.93-0.4,6.49,1.14,8.93
		c1.33,3.48,5.88,0.21,6.641,3.93c1.56,2.26,5.47,1.03,6.189,4.78c2.15,5.1,9.7,4.85,11.21,10.39c0.681,3.38,0.351,7.34,1.94,10.32
		c3.26,1.05,1.94,4.34,0.25,6.21c-0.79,3.96,2.53,8.34,6.75,8.25c2.28,1.6,4.86,1.65,7.83,1.19c13.03-0.77,26.07-1.53,39.1-2.3
		c-0.02-4.45-1.979-8.61-1.859-13.13c-1.7-2.04-0.86-4.17-0.04-6.39c0.319-2.84,3.069-4.93,1.51-7.87
		c-1.05-2.94-0.88-6.21,1.729-8.27c-0.199-2.83-0.5-5.03-0.159-7.93c-1.141-4.2,2.64-7.5,3.689-11.36c0.92-1.13,3.15-8.34,0.73-4.93
		c-2.65,3.81-4.99,8.01-8.181,11.29c-0.859,2.06-3.21,4.55-5.21,4.5c-2.569-1.26,0.28-4.49,0.9-6.41c0.47-2.94,3.2-4.25,4.09-6.85
		c-3.31-1.29-2.77-5.03-3.54-7.92c0.021-3.09-1.229-5.08-4.29-5.57c-2.14-3.67-7.04-2.78-10.59-4.12
		c-7.13-1.87-14.21-4.39-21.67-4.99c-2.48-0.54-2.84-5.51-5.51-4.729c-1.71-1.54-3.851-0.7-5.82,0.13c-2.8-1.32,0.68-4.59,1.5-6.38
		c2.18-1.34-1.53-2.14-2.31-1L559.53,104.97z"/>
	<path id="jqvmap1_nc" fill="#FFFFFF" stroke="#818181" stroke-linecap="round" stroke-linejoin="round" stroke-opacity="0.25" d="
		M830.06,295.97c-18.3,3.799-36.529,8-54.859,11.65c-12.74,1.51-25.38,4.069-38.181,4.94c-3.319-0.82-1.17,3.719-2.5,5.529
		c-2.619,1.34-3.489,4.59-5.029,6.381c-3.24-1.361-5.07,1.459-6.34,3.969c-1.091-0.569-2.961,0.031-3.41-1.41
		c-2.021,1.961-4.37,3.73-4.311,6.811c-3.66,1.1-6.31,3.82-9.279,5.96c-2.641,0.94-5.761,2.16-7.4,4.351
		c0.729,4.06-2.98,3.3-5.1,5.289c-1.98,4.69,2.739,2.66,5.58,2.5c6.409-1.189,13.319-0.489,19.18-3.729
		c5.04-1.899,9.41-5.899,15.06-5.67c6.5-0.64,13.15-0.601,19.62-0.69c2.99,0.53,3.36,4.791,5.58,5.01
		c5.37-0.81,10.87-1.67,16.25-1.789c5.38,1.359,9.61,5.449,14.521,7.93c3.59,2.641,6.93,5.66,10.43,8.439
		c3.149-0.859,6.32-1.58,9.59-1.72c1.06-4.55,2.04-9.29,5.39-12.78c4.2-4.27,9.23-8.289,15.33-9.289c2.91,1.949,3.69-2.9,5.271-4.53
		c2.72-5-2.44,3.909-2.46-1.22c-3.87,0.699-5.43-0.26-3.29-4c2.77-4.25-2.73-2.51-2.12-6.021c-1.42-3.76,2.84,2.19,5.06,0.81
		c2.811,0.121,5.101-1.869,5.591-4.6c0.449-2.9,4.59-2.699,3.279-6.48c-4.02-2.43,4.25-0.659,0.4-3.93
		c-3.52-3.439-5.24-8.33-7.23-12.76c-1.539,0.35-3.079,0.71-4.63,1.06L830.06,295.97z M847.19,319.689
		c1.55,2.61-4.641,4.261-0.521,2.69c1.38-1.92,0.21-5.22,0.24-7.62c-0.74-2.05,0.37,4.57,0.28,4.94V319.689z"/>
	<path id="jqvmap1_dc" fill="#FFFFFF" stroke="#818181" stroke-linecap="round" stroke-linejoin="round" stroke-opacity="0.25" d="
		M803.44,248.16c2.67,3.43,3.85-1.02,0.55-0.75l-0.29,0.4l-0.25,0.35H803.44z"/>
	<path id="jqvmap1_ma" fill="#8EC6DF" stroke="#818181" stroke-linecap="round" stroke-linejoin="round" stroke-opacity="0.25" d="
		M877.59,144.41c-1.04,3.1-4.01,3.5-6.79,4.13c-8.62,2.32-17.17,4.6-25.96,6.12c-0.109,4.77-1.17,9.59-0.03,14.31
		c10.66-2.6,21.54-4.29,32-7.44c3.57,2.81,6.011,6.73,8.28,10.59c2.13-0.78,0.01-5.15,3.771-5.38c2.93-3.28,1.83,4.78,3.17,2.62
		c2.13-3.09,6.1-3.9,9.41-5.21c-0.11-3.41-2.21-8.55-6.381-7.53c1.641-0.1,4.891,0.87,4.91,3.82c0.851,2.24-2.55,3.71-4.35,4.24
		c-3.37,0.51-4.99-1.76-6.32-4.47c-1.38-2.05-3.58-6.56-6.3-3.6c-1.89-1.72-3.13-4.04-1.33-6.3c2.3-2.34,1.23-6.2-1.28-7.16
		c-0.93,0.41-1.859,0.82-2.79,1.24L877.59,144.41z M902.25,172.69c-1.6,2.76,3.05-2.44,0.08-0.32L902.25,172.69z M890.97,173.97
		c1.59,0.78,6.09-2.26,1.78-2.03C892.16,172.62,891.56,173.29,890.97,173.97z"/>
	<path id="jqvmap1_tn" fill="#99CDE5" stroke="#818181" stroke-linecap="round" stroke-linejoin="round" stroke-opacity="0.25" d="
		M730.41,314.34c-8.87-0.109-17.76,1.5-26.57,2.73c-10.24,2.859-20.99,2.66-31.479,4.02c-16.341,1.45-32.65,3.29-48.96,4.95
		c-4.57-1.71-0.431,5.739-5.061,4.14c-6.97,0.061-13.87,1.23-20.84,0.711c-0.95,4.26-1.37,9.039-3.6,12.76
		c-3.45,1.82-4.011,5.81-4.431,9.33c-3.1,1.1-4.68,2.609-2.53,5.59c-1.75,3.9-0.579,5.24,3.511,3.979
		c33.91-3.26,67.83-6.53,101.739-9.79c-0.229-2.539,0.721-5.31,3.53-5.689c3.11-0.4,0.99-5.41,4.88-5.811
		c2.771-2.02,6.49-2.189,8.62-5.18c1.761-2.26,6.311-1.641,5.78-5.38c1.19-1.771,3.1-3.841,5.03-4.851
		c1.04-0.39,0.28,1.78,1.72,1.19c2.38,0.56,2.2-4.36,5.22-3.86c3.3,1.271,2.681-2.92,4.96-4.18c2.051-0.939,3.811-6.68,0.92-6.59
		c-0.81,0.64-1.63,1.27-2.439,1.91V314.34z"/>
	<path id="jqvmap1_ar" fill="#75B5D1" stroke="#818181" stroke-linecap="round" stroke-linejoin="round" stroke-opacity="0.25" d="
		M509.47,335.311c1.73,4.899,1.5,10.02,1.53,15.119c2.15,12.211,1.13,24.641,1.47,36.971c0.021,3.709,0.04,7.42,0.061,11.13
		c2.06,3.2,5.05-1.45,7.689,1.47c1.53,1.76-0.88,7.54,2.97,6.49c17.61-0.36,35.23-0.721,52.841-1.08c1.97-2.601,0.409-5.9-1.28-8.22
		c3.3-1.61-1.59-3.96,0.84-6.53c0.75-2.77,0.62-6.34,3.78-7.689c-1.88-3.07,2.08-5.24,3.189-7.881c3.771-0.38,1.58-3.3,2.641-5.42
		c1.12-2.67,2.56-5.279,4.85-6.58c1.2-4.119,0.21-2.67-1.53-5.609c-2.76-3.32,1.95-3.961,2.36-6.84c-0.05-1.94,3.31-6.69,1.22-6.75
		c-2.649,0.85-5.34-0.181-8.02-0.33c-0.09-3.381,4.399-3.881,4.22-7.301c0.58-3.869-3.58-3.68-6.34-3.26
		c-24.17,0.77-48.34,1.54-72.5,2.311H509.47z"/>
	<path id="jqvmap1_mo" fill="#FFFFFF" stroke="#818181" stroke-linecap="round" stroke-linejoin="round" stroke-opacity="0.25" d="
		M490.44,245.63c-2.391-0.46-0.19,4.05,0.069,5.6c2.45,3.32,4.51,7.86,8.55,9.22c2.811-0.24,3.61,2.67,2.79,4.84
		c-3.22,1.64-1.72,5.03,0.19,7.07c0.9,2.55,4.61,3.05,4.89,5.61c2.101,12.97,1.12,26.139,1.511,39.219
		c0,5.721,0.079,11.44,0.72,17.131c24.99-0.94,49.979-1.801,74.97-2.51c3.021-1.121,4.351,1.719,5.311,3.979
		c0.52,3.479-2.86,4.46-4.141,6.86c2.37,0.64,5.57,0.649,8.21-0.08c1.46-3.59,1.87-7.45,2.38-11.221
		c0.841-2.83,5.271-2.89,4.61-6.029c1.37-2.94,0.14-4.6-2.22-4.28c-2.15-1.81-2.84-5.03-2.86-7.601c1.45-2.84-2.08-5.069-2.439-7.89
		c-0.66-3.239-5.341-0.87-6.891-3.659c-2.64-2.341-6.24-3.94-6.91-7.761c-0.939-3.21,1.521-6.47,2.17-9.64
		c2.2-3.53-1.34-4.7-4.33-4.5c-2.659,0.39-5.34-1.15-4.81-4.1c0.86-4.07-4.71-4.05-6.43-6.93c-2.7-3.4-6.72-6.05-7.25-10.67
		c-1.101-3.16-2.12-6.86-0.62-10.06c-2.3-1.34-2.28-5.77-5.37-4.89c-20.69,0.77-41.38,1.53-62.06,2.3L490.44,245.63z"/>
	<path id="jqvmap1_ga" fill="#A8D8ED" stroke="#818181" stroke-linecap="round" stroke-linejoin="round" stroke-opacity="0.25" d="
		M672.78,356c-0.74,7.061,4.28,12.689,5.29,19.4c1.359,6.57,3.439,12.959,5.029,19.439c0.94,4.88,2.17,9.95,5.53,13.75
		c-0.85,3.5,3.37,3.17,2.59,6.44c-1.89,4.45-3.569,9.649-0.84,14.13c0.05,2.63,0.94,5.399-0.38,7.88c2.95,0.94,1.45,4.01,3.07,6.01
		c1.35,2.67,3.68,4.75,6.83,4c12.35-0.01,24.689-1.31,37.029-1.92c3.32-0.58,6.67-0.74,10.04-0.59c-0.779,4.24,3.04,4.15,2.091-0.09
		c-0.9-2.141-2.94-6.23,0.59-6.62c3.199,0.5,6.42,0.91,9.66,1.02c-0.841-3.8-0.801-7.569,0.5-11.27
		c0.199-3.54,2.619-6.73,2.21-10.21c-0.721-2.93,3.26-5.26,2.85-8.05c-2.19,1.37-5.29-0.71-5.34-3.19
		c-0.561-3.12-2.71-5.83-6.03-6.06c-1.33-3.9-2.62-8.17-4.99-11.43c-3.12-1.07-6.13-2.99-7.17-6.291
		c-2.06-2.33-5.229-3.209-6.66-6.16c-2.08-2.199-5.239-2.83-7.659-4.189c-0.761-2.529-3.21-4.09-3.94-6.67
		c-1.36-2.63-2.97-4.65-6.15-3.77c-2.33-1.57-7.149-3.381-5.31-6.971c2.02-2.01,3.76-4.109-0.8-3.109
		c-12.681,1.51-25.37,3.01-38.05,4.52H672.78z"/>
	<path id="jqvmap1_sc" fill="#BEE7FA" stroke="#818181" stroke-linecap="round" stroke-linejoin="round" stroke-opacity="0.25" d="
		M737.03,343.189c-4.261,0.4-8.641,0.431-12.24,3.07c-3.2,1.75-6.479,3.19-9.88,4.49c2.21,3.311-4.28,2.74-2.34,6.439
		c2.27,2.24,5.199,4.131,8.5,3.281c2.529,3.149,3.83,6.939,6.529,9.879c0.91,2.76,5.131,2.061,6.851,4.461
		c2.18,1.379,2.96,4.25,5.62,5.01c2.989,1.949,3.359,6.38,7.26,7.24c3.61,0.619,3.77,4.77,5.34,7.379
		c0.38,3.351,2.021,4.841,4.79,5.961c3.36,1.79,1.76,7.229,5.67,8.159c3.63-1.38,5.8-4.63,8.38-7.34
		c-2.35-3.93,0.29-3.319,3.01-4.439c1.95-2.4,5.021-3.3,6.25-6.28c2.171-2,3.86-4.52,5.4-6.9c2.811-0.17,3.42-3.58,4.92-5.029
		c-0.28-4.131,1.3-7.891,3.12-11.471c1.03-2.109,7.03-4.5,3.47-6.34c-5.97-5.35-12.779-9.5-19.71-13.47
		c-4.45-2.681-9.739-0.069-14.569-0.06c-2.57-0.23-6.631,2.479-7.32-1.28c-1.66-4.5-6.93-2.82-10.63-2.96
		c-2.8,0.07-5.61,0.14-8.41,0.21L737.03,343.189z"/>
	<path id="jqvmap1_ky" fill="#FFFFFF" stroke="#818181" stroke-linecap="round" stroke-linejoin="round" stroke-opacity="0.25" d="
		M675,267.5c-2.76-0.77-6,1.11-3.38,3.78c1.52,3.15-3.12,4.12-5.19,5.27c-2.939,0.53-4.71,1.29-4.3,4.82
		c-1.149,2.66-5.3,3.24-6.32,6.32c-2.159,1.4,0.74,6.22-2.84,5.92c-3.06,0.61-4.359-2.79-7.09,0.11c-2.26,0.51-1.1,6.98-3.85,3.1
		c-2.271-2.54-5.57,0.14-6.16,2.81c-1.91,1.07-3.4-3.73-6.021-1.909c-3.319,0.609-7.479,0.469-9.92,2.909
		c0.08,2.649-3.39,3.78-1.699,6.05c2.34,2.66-2.23,2.68-3.86,3.301c-3.57,1.35-0.68,4.35-0.76,6.72c0.33,3.45-3.761,1.44-5.49,0.72
		c-2.5-2.29-6.26-0.38-7.13,2.53c2.859,2.28-0.04,4.76,0.41,7.659c-3.471,2.041-3.19,2.73,0.939,2.351
		c5.84,0.011,11.641-0.95,17.5-0.76c-0.7-3.74,0.98-4.99,4.561-4.19c24.33-3.01,48.819-4.699,73.159-7.43
		c4.301-0.7,8.2-2.38,11.75-4.88c3.301-0.8,4.04-2.71,5.12-5.351c3.46-4.09,7.13-8.06,10.79-12c-3.27-1.24-3.03-5.51-6.21-6.95
		c-2.6-1.25-2.07-4.66-5.16-5.36c-2.38-2.64,0.801-7.28-3.02-8.87c-3.021-0.01-2.37-4.65-4.57-3.51c-2.95,0.61-3.67,4.78-7.02,3.29
		c-2.69-0.23-5.511-1.19-7.82,0.71c-3,0.83-3.99-3.61-7.44-2.06c-3.51,0.82-2.17-5.19-5.649-5.26
		C677.17,266.43,676.21,267.17,675,267.5z"/>
	<path id="jqvmap1_al" fill="#A9D9EE" stroke="#818181" stroke-linecap="round" stroke-linejoin="round" stroke-opacity="0.25" d="
		M628.53,359.63c-0.2,14.37,0.12,28.75-0.54,43.12c-0.04,9.01-0.88,18.1-0.07,27.07c1.55,10,2.94,20.01,3.85,30.09
		c3.07,1.09,3.69-1.92,4.4-4.18c-0.3-3.891,4.271-3.021,4.891-0.04c0.72,2.06,4.079,5.27,0.77,6.649
		c-0.15,0.92,6.17-0.899,5.88-2.89c-0.439-3.01,0.64-6.86-2.87-8.19c-2.29-0.88-3.029-5.59-0.319-5.67
		c14.079-1.859,28.21-3.59,42.35-4.8c2.7,1.07,6.76-0.25,2.97-2.5c-1.8-2,0.95-5.03-0.27-7.65c-0.311-3.1-2.63-5.899-1.311-9.149
		c0.01-2.92,2.49-5.36,1.931-8.3c-3.521-0.45-1.341-5.11-4.261-6.7c-3.479-5.82-3.359-13.04-5.96-19.211
		c-2.02-8.09-3.34-16.409-7.25-23.879c-0.51-2.391-1.08-4.851-0.72-7.311c-14.49,1.18-28.98,2.35-43.47,3.53V359.63z"/>
	<path id="jqvmap1_la" fill="#AFDDF1" stroke="#818181" stroke-linecap="round" stroke-linejoin="round" stroke-opacity="0.25" d="
		M521.09,407.28c0.101,7.529-0.24,15.319,1.67,22.609c2.08,2.49,2.82,5.511,3.15,8.67c1.87,2.78,5.27,4.95,4.59,8.721
		c1.61,2.18-0.21,5.689,0.08,8.38c0.42,2.64-4.36,4.89-2.01,7.12c1.069,2.26-0.92,5.31-0.53,7.95c0.38,3.22-2.37,5.699-1.55,8.93
		c5.18-2.4,10.979-0.86,16.47-1.09c5.72,1.7,11.56,4.87,17.56,4.26c2.931-2.25,5.94,0.36,8.98,0.93c1.08-3.399-4.22-0.81-5.8-2.2
		c-1.91-0.359-2.891-2.3-1.17-3.399c2.08-1.101,4.08-1.09,5.66,0.04c2.149-1.391,5.6-0.24,6.26,2.38c-0.33,3.62,3.42,1.7,5.28,3.15
		c3.83,1.5-1.41,4.069,0.83,5.369c2.88,0.971,5.729,2.94,8.619,3.29c3.511-0.05,2.811-4.529,6.471-4.17
		c1.83-2.899,4.439-0.25,4.39,2.311c1.53,1.64,4-3.681,1.979-3.66c0.221-3.37,2.171-3.21,4.311-5.41c1.59,0.95,0.91,2.82,1.41,4.16
		c3.33,0.39,7.439,1.09,9.34,4.06c2.79,0.08,5.17,1.101,5.56-2.56c-2.68-0.271-4.149-3.88-7.35-3.19c-2.31,0.061-6.3-1.62-6.15-3.77
		c1.62-3.62,2.23-1.74,2.03-4.38c2.88,1.09,5.69-2.271,3.22-4.471c0.46-4.619-3.729-0.149-3.34,2.19c-1.359,1.21-6.35-0.96-4.6-3.27
		c1.71-1.841,4.2-4.5,2.189-6.95c-0.13-3.261-2.689-5.21-4.47-7.38c0.521-2.7,2.26-7.351-2.359-5.46
		c-10.431,1.279-20.971,0.689-31.45,1.119c-1.61-3.72-0.021-7.76,0.159-11.59c2.66-4.859,5.461-9.649,8.25-14.439
		c-2.039-2.82,3.521-4.45-0.739-6.48c-0.53-2.149-1.29-4.649-2.32-6.83c-0.08-3.1,0.9-7.3-3.62-5.79
		C555.09,406.71,538.09,407,521.09,407.28L521.09,407.28z"/>
	<path id="jqvmap1_ms" fill="#FFFFFF" stroke="#818181" stroke-linecap="round" stroke-linejoin="round" stroke-opacity="0.25" d="
		M591.03,363.5c-1.45,1.74-4.03,3.15-4.63,6.029c-1.4,2.221,1.43,5.74-2.69,6.07c-1.479,1.971-4.77,4.42-3.4,7.17
		c-1.359,1.83-3.59,3.951-3.479,7.011c-2.16,2.659,1.55,5.28-0.271,7.12c-0.449,1.84,2.25,4.42,1.351,7.029
		c-1.92,2.71-1.63,6.551-0.61,9.53c1.601,2.4,0.78,5.54,3.73,6.94c-0.95,2.529-1.41,3.75-1.87,6.31
		c-2.55,4.96-6.07,9.62-7.891,14.84c0.011,2.98-1.439,6.141-0.14,8.97c11.4-0.359,22.87,0.25,34.19-1.5
		c2.75,2.211-2.19,6.391,1.33,8.15c2.819,1.62,2.279,5.18,3.89,7.63c2.07-1.859,2.51-6.189,5.82-4.069
		c3.21-0.671,6.85-3.021,9.89-0.641c3.62,0.73,6.01-0.27,4.42-4.26c-0.81-10.1-2.99-20.07-3.84-30.15
		c0.14-21.989,1.479-43.979,0.64-65.97c-12.149,1.261-24.29,2.521-36.439,3.78V363.5z"/>
	<path id="jqvmap1_ia" fill="#FFFFFF" stroke="#818181" stroke-linecap="round" stroke-linejoin="round" stroke-opacity="0.25" d="
		M476.25,181.16c-3.42-0.05-2.16,5.68,0.72,6.29c0.54,2.07-0.75,5.06-1.41,7.35c-2.13,2.82-0.93,5.45,1.04,7.92
		c1.221,4.34,2.24,8.85,4.051,13.06c0.6,3.22,1.29,6.38,3.409,9c0.021,3.49,1.271,6.69,2.301,9.91c-0.04,3.54,0.029,7.05,2.08,10.09
		c22.199-1.02,44.439-1.75,66.659-2.63c0.771,1.43,3.25,7.11,4.37,4.25c-0.96-2.5,1.19-4.52,3.57-4.72
		c-0.88-2.62,1.19-4.59,2.5-6.28c1.27-2.92-1.39-4.02-2.41-6.31c0.69-2.9,1.79-5.3,5.13-5.46c2.88-0.83,6.57-1.81,6.65-5.41
		c1.76-3.04,3.729-8.01-0.26-10.18c-2.74-1.06-1.75-5.27-5.21-5.14c-0.641-1.97-0.851-4.76-4.19-4.21c-2.75-0.8-4.55-3.47-5.37-6
		c-1.36-2.89,2.01-4.72,1.65-7.28c-3.82-0.4-1.19-6.5-5.03-5.47C529.75,180.35,503,180.75,476.25,181.16L476.25,181.16z"/>
	<path id="jqvmap1_mn" fill="#B0DDF2" stroke="#818181" stroke-linecap="round" stroke-linejoin="round" stroke-opacity="0.25" d="
		M497.03,53.84c-0.69,2.52,0.93,7.42-1.311,8.34c-9.649-0.01-19.29-0.02-28.939-0.03c1.16,2.87,2.18,5.76,0.97,8.81
		c0.05,5.74-0.79,11.86,2.51,16.95c2.04,3.78,0.641,8.47,1.5,12.6c0.82,6.84,1.76,13.67,3.55,20.32c0.051,3.83,0.881,7.8,0.03,11.53
		c-1.57,1.74-4.91,3.29-2.22,5.78c1.89,1.83,5.05,2.94,4.58,6.1c0.28,11.9,0.25,23.83,0.42,35.75c26.72-0.38,53.439-0.75,80.16-1.13
		c-0.15-3.62-0.46-7.93-4.36-9.47c-3.02-1.66-6.24-3.1-7.63-6.5c-0.72-3.61-5.32-1.16-6.05-4.61c-1.561-2.09-5.29-0.37-6.57-3.78
		c-1.66-2.1-0.52-5.5-1.1-8.1c-1.34-2.93,1.649-4.99,1.47-7.54c-0.2-3.22-5.36-3.85-2.24-7.43c0.41-4.47,5.391-5.33,7.61-8.59
		c0.24-3.87-0.73-8.14,0.52-11.77c1.761-3.14,5.17-5.1,8.28-6.26c1.92-2.08,3.66-4.57,6.13-5.81c2.54-4.97,6.04-9.99,11.811-11.4
		c4.55-1.98,9.12-3.92,13.6-6.04c0.73-3.15-3.7-0.18-5.06,0.03c-0.82-3.87-4.2-3.09-7.28-2.87c-2.25-0.87-5.34,2.83-6-0.66
		c-1.13-3.5-4.51,0.72-5.88,2.13c-2.33,1.63-6.22,1.16-8.061-0.56c0.94-3.05-4.609-0.39-4.529-3.96c-0.16-2.3-3.48,1.3-5.771-1.2
		c-3.04-0.91-5.5-3.22-8.29-4.38c-2.49,0.4-5.86-2.38-6.7,1.5c-1.17,0.79-7.149,1.83-5.93-1.54c-2.99,0.03-6.03-0.05-7.53-1.75
		c-2.6,0.59-5.72-0.41-5.899-3.43c-0.88-3.28-1.44-6.61-1.88-9.98c-1.23-0.6-2.54-1.02-3.91-1.06V53.84z"/>
	
		<path id="jqvmap1_ok" fill="#666666" fill-opacity="0.7" stroke="#818181" stroke-linecap="round" stroke-linejoin="round" stroke-opacity="0.25" d="
		M363.31,330.029c17.511,1.121,35.04,1.73,52.561,2.471c-1.37,13.62-2.89,27.23-2.83,40.93c-0.92,3.93,3.479,5.78,6.14,7.66
		c0.561-5.561,2.96,1.46,4.25-1.311c0.931-1.5,5.57,1.681,3.391,4.421c1.59,0.659,4.76,0.51,6.729,1.819
		c2.79-0.989,5.16,3.32,7.03,1.261c1.82-1.931,5.59-0.31,6.5,2.02c2.44,0.79,1.71,5.841,4.76,3.05c1.391-1.649,6.25-1.17,6.69,1.211
		c1.28,1.5,5.689,3.72,7.39,1.92c0.33-2.75,3.38-5.951,4.59-1.83c3.59,0.38,6.96,2,10.46,3c2.28-1.86,2.44-4.68,6.53-3.41
		c2.53,1.92,3.8-1.41,6.311-1.16c0.85,2.42,5.199,2.41,6.189-0.5c3.2-0.2,3.66,3.71,6.55,4.35c1.86,0.4,6.311,3.63,5.36,0.181
		c-0.32-12.271,0.1-24.591-0.7-36.82c-1.15-6.03-1.01-12.181-1.43-18.25c-1.32-5.29-2.05-10.729-2.07-16.181
		c-20.01,0.66-40.04-0.039-60.06-0.219c-27.851-1.32-55.73-2.301-83.53-4.561c-0.271,3.311-0.54,6.63-0.811,9.939V330.029z"/>
	<path id="jqvmap1_tx" fill="#FFFFFF" stroke="#818181" stroke-linecap="round" stroke-linejoin="round" stroke-opacity="0.25" d="
		M359.47,330.971C361.81,330.859,358.61,329.16,359.47,330.971z M360.19,349.279c-1.641,20.841-2.521,41.75-4.681,62.551
		c-0.51,4.33-0.99,8.66-1.51,12.979c-17.84-0.869-35.67-1.93-53.42-3.89c-4.16-0.41-8.32-0.76-12.48-1.11
		c-0.67,3.74,2.27,3.681,4.04,6.12c2.26,1.83,1.13,6.03,4.65,6.5c3.52,0.48,2.9,4.601,5.45,6.34c3.38,3.15,5.5,7.91,10.27,9.061
		c1.91,1.27,4,3.22,4.53,5.46c0.69,3.96,4.53,7.02,3.47,11.33c-0.88,5.149,2.221,9.63,5.931,12.88c2.18,2.95,5.14,4.76,8.63,5.78
		c1.88,1.95,3.01,3.88,5.72,4.88c2.59,0.18,5.38,4.34,7.35,1.18c2.591-3.14,5.48-6.41,6.051-10.55c1.26-2.82,3.579-4.32,6.5-5.06
		c2.72-1.591,5.319-2.131,7.47,0.619c4.91,0.57,10.2,0.53,14.79,2.221c2.83,1.43,2.56,4.529,5.17,6.33
		c1.729,2.05,4.83,3.369,5.81,5.819c1.37,2.07,2.66,4.261,2.69,7.03c1.62,4.34,4.17,8.51,5.31,12.94
		c-0.239,2.77,4.65,2.489,4.95,5.51c2.24,4.08,4.37,9.17,9.21,10.489c3.28,2,0.03,5.04,0.91,7.5c3.28,0.87-0.01,4.681,0.94,6.671
		c2.529,1.359,4.369,3.199,4.22,6.439c0.39,3.34,2.13,6.83,5.689,7.54c3.011,1.93,6.69,2.13,9.87,3.4c2.28,1.79,5.15,4.09,8.16,2.83
		c3.46,0.46,6.771,1.29,9.37,3.75c1.43,2.54,6.51-0.91,4.31-2.891c-2.04-3.39-1.3-7.79-2.829-11.46
		c-0.631-3.069-2.391-5.95-0.99-9.1c1.17-4.9,2.87-9.76,4.04-14.71c-3.37-1.01-2.07-5.471,1.21-4.71
		c3.99,0.42,3.649-6.431,7.81-6.05c5.25-1.561,9.07-6,14.16-8.051c6.91-2.81,13.62-6.46,18.72-12.05
		c2.58-2.979,7.091-3.95,8.69-7.75c5-2.22,9.8-4.93,15.22-6c-0.97-2.64,0.521-4.86,1.32-7.22c0.39-2.99,0.189-6.07,1.18-8.94
		c-3.149-2.27,0.38-4.91,1.38-7.41c-0.2-2.8,1.42-6.25,0.091-8.659c0.3-2.931-1.49-5.141-3.351-7.29
		c-2.46-2.641-1.11-6.91-3.87-9.521c-2.529-4.57-1.59-10.189-2.25-15.22c0.021-5,0.19-10-0.5-14.97c-2.63-2.311-5.52,2.33-7.52-1.37
		c-3.101-2.07-7.66-2.101-9.73-5.681c-2.31-2.479-3.819,2.841-7.18,0.961c-1.91-2.73-3.59,0.029-5.98,0.18
		c-2.27-1.15-6.069-1.48-6.09,1.76c-2.76,2.37-5.95-0.93-8.939-1.279c-3,1.379-5.23-3.83-6.301-1.871
		c-0.149,2.66-2.52,5.101-5.13,3.341c-3.229-0.15-4.909-2.49-6.569-3.891c-2.95-1.739-4.301,2.32-6.94,0.88
		c-1.479-1.39-1.87-3.6-3.92-5.65c-3.06-2.829-5.03,3.171-7.13,0.23c-2.05-2.109-5.57-0.83-7.94-2.689
		c-3.56,0.59-5.54-0.24-4.13-4.11c-1.89-1.851-2.28,1.21-4.77-0.14c-0.59-0.41-3.45,1.779-5-1.11c-1.9-1.899-5.13-3.22-4.181-6.45
		c0.03-10.58,0.25-21.15,1.66-31.65c0.3-2.989,0.601-5.979,0.891-8.979c-17.65-0.63-35.301-1.271-52.94-2.22
		c-0.52,6.07-1.04,12.15-1.56,18.22V349.279z M466.53,518.63C461.33,525.8,469.46,515.36,466.53,518.63z"/>
	<path id="jqvmap1_nm" fill="#FFFFFF" stroke="#818181" stroke-linecap="round" stroke-linejoin="round" stroke-opacity="0.25" d="
		M242.72,428.78c4.82,0.63,9.65,1.25,14.47,1.88c0.43-3.33,0.85-6.67,1.28-10c9.7,0.89,19.4,1.859,29.09,2.78
		c-0.9-3.141-1.39-5.98,2.84-4.5c18.291,1.279,36.48,3.79,54.81,4.489c2.45-0.6,7.66,2.13,7.99-1.01
		c3.06-22.93,3.75-46.09,5.59-69.141c0.54-7.789,1.39-15.56,2.02-23.34c3.21,0.65,1.171-4.81,2.07-6.859
		c1.79-4.38-2.87-3.37-5.729-3.85c-32.351-3.301-64.71-6.59-97.061-9.891c-5.79,39.811-11.58,79.63-17.38,119.44H242.72z"/>
	<path id="jqvmap1_ks" fill="#FFFFFF" stroke="#818181" stroke-linecap="round" stroke-linejoin="round" stroke-opacity="0.25" d="
		M380.53,320.34c25.06,1.17,50.109,2.71,75.189,3.35c17.221,0.07,34.44,0.631,51.66,0.181c-0.25-12.69,0.23-25.42-0.47-38.08
		c-0.61-2.83-0.17-6.27-1.38-8.74c-3.04-2.03-6.021-5.19-6.681-8.77c-0.43-2.51,4.301-4.59,1.29-6.64
		c-3.02,0.54-4.05-3.34-7.17-2.43c-36.21-0.82-72.43-1.33-108.63-2.5C383.07,277.92,381.8,299.13,380.53,320.34z"/>
	<path id="jqvmap1_ne" fill="#B0DEF2" stroke="#818181" stroke-linecap="round" stroke-linejoin="round" stroke-opacity="0.25" d="
		M353.38,230.59c10.76,0.96,21.271,2.72,32.03,3.66c-0.37,7.11-0.71,14.23-1.061,21.34c36.49,1.29,73,1.84,109.5,2.56
		c-0.31-1.17-3.13-4.05-4.029-6.15c-1.99-2.11-0.36-5.13-2.45-7.34c-2.42-3.19-1.66-7.14-2.2-10.79c-1.66-2.86-1.45-6.25-2.29-9.26
		c-2.939-2.85-2.34-7.01-3.95-10.49c-1.13-3.1-2.18-6.19-2.62-9.47c-3.51,1.32-2.89-3.07-4.85-4.29c-2.4-1.68-5.57-1.85-7.72-3.93
		c-3.79,0.07-7.65,1.04-11.13,1.94c-2.521-2.2-6.03-3.13-7.91-6.06c-13.61,0.96-27.23-0.49-40.83-1.11
		c-15.5-1.05-31.021-1.79-46.51-2.86c-1.671,14.08-2.83,28.17-4,42.25H353.38z"/>
	<path id="jqvmap1_sd" fill="#93C9E2" stroke="#818181" stroke-linecap="round" stroke-linejoin="round" stroke-opacity="0.25" d="
		M357.44,187.41c25.68,1.58,51.369,3.15,77.06,4.26c3.58-0.01,7.34-0.51,10.81-0.23c1.801,2.9,5.24,3.85,7.69,6
		c3.55-1.45,7.52-1.89,11.25-1.91c2.45,2.67,7.26,2.29,9.15,5.33c1.319,4.76,3.27,1.86,0.18-1.15c-1.53-2.17,1.46-4.6,1.56-6.99
		c1.2-2.87,1.38-5.28-1.58-6.75c-0.5-2.04-0.729-6.65,2.41-5.84c2.62-0.28,0.391-5.28,1.061-7.5c-0.32-9.7,0.189-19.47-0.641-29.13
		c-0.239-3.58-6.26-4.19-5.42-8.4c1.09-1.22,5.811-4.38,2.75-5.4c-27.229-0.89-54.5-1.01-81.67-3.15
		c-9.79-0.62-19.569-1.24-29.359-1.86C360.94,145.6,359.19,166.5,357.44,187.41z"/>
	<path id="jqvmap1_nd" fill="#FFFFFF" stroke="#818181" stroke-linecap="round" stroke-linejoin="round" stroke-opacity="0.25" d="
		M362.88,123.72c26.46,1.49,52.89,3.7,79.4,3.91c10.84,0.26,21.67,0.52,32.51,0.78c0.01-5.53-1.38-10.82-2.5-16.17
		c-1.271-7.42-2.05-14.89-2.13-22.42c-2.61-4.16-4.11-9-3.48-13.94c-0.439-3.25,0.67-6.57,0.301-9.7
		c-0.15-4.01-2.83-4.61-6.311-4.12c-25.15-0.47-50.33-1.05-75.41-3.06c-5.17-0.49-10.33-0.98-15.5-1.47
		C367.47,79.59,365.18,101.66,362.88,123.72L362.88,123.72z"/>
	<path id="jqvmap1_wy" fill="#FFFFFF" stroke="#818181" stroke-linecap="round" stroke-linejoin="round" stroke-opacity="0.25" d="
		M240.16,217.84c37.4,4.49,74.29,8.23,111.689,12.72c2.5-29.2,5.5-57.65,8-86.84c-35.26-4.45-70.52-8.9-105.78-13.34
		c-4.64,29.16-9.27,58.31-13.91,87.47V217.84z"/>
	<path id="jqvmap1_mt" fill="#ADDBF0" stroke="#818181" stroke-linecap="round" stroke-linejoin="round" stroke-opacity="0.25" d="
		M192.59,52.19c0.84,2.76,3.25,5.4,3.2,8.23c-1.5,2.79-1,5.49,0.52,8.15c3.4,0.39,4.18,3.44,5.26,6.16
		c1.43,3.34,2.55,6.88,5.37,9.34c0.88,2.21,5.27,1.18,4.34,4.72c-2.23,6.21-5.45,12.23-7.06,18.56c0.02,3.34,3.4,5.25,5.73,2.22
		c1.61-2.43,5.63-3.04,4.69,0.97c-0.5,5.3,1.81,10.35,2.59,15.53c1.9,2,5.27,3.44,5.68,6.31c-0.71,1.91-0.39,8.78,2.32,5.14
		c1.85-1.89,4.93-0.29,6.85,0.86c3.28-1.63,7.26-1.21,10.34,0.69c3.69,0.41,1.52-5,5.95-4.08c2.71-0.42,2.01,6.69,3.21,4.1
		c0.56-3.26,1.09-6.54,1.68-9.8c35.57,4.49,71.15,8.96,106.721,13.44c2.899-28.44,5.789-56.88,8.689-85.31
		c-28.84-2.29-57.55-5.91-86.19-9.99c-26.71-4.12-53.36-8.71-79.73-14.68c-3.05-0.61-6.99-2.59-6.53,2.19
		c-1.21,5.75-2.42,11.51-3.62,17.26L192.59,52.19z"/>
	<path id="jqvmap1_co" fill="#79B8D4" stroke="#818181" stroke-linecap="round" stroke-linejoin="round" stroke-opacity="0.25" d="
		M260.17,308.529c39.89,4.091,79.51,8.261,119.39,11.91c1.61-28.459,3.23-56.919,4.841-85.379c-37.471-4.17-74.94-8.33-112.41-12.5
		c-4.03,28.98-7.8,56.99-11.83,85.969H260.17z"/>
	<path id="jqvmap1_id" fill="#65AAC9" stroke="#818181" stroke-linecap="round" stroke-linejoin="round" stroke-opacity="0.25" d="
		M169.84,91.72c0.52,3.07,2.27,5.25,4.94,6.78c0.4,3.02-0.61,5.46-3.03,7.31c-2.3,2.7-4.38,5.97-6.09,8.83
		c0.39,2.93-2.57,3.54-4.23,4.8c-1.77,2.31-4.28,4.3-3.93,7.5c-0.64,2.43,4.69,0.57,4.09,4.34c-5.19,11.17-6.78,23.51-10.13,35.32
		c-0.79,3.16-1.22,4.91-2.01,8.08c56.92,12.84,62.26,13.45,93.58,19.41c2.75-17.6,5.5-35.21,8.25-52.81
		c-2.66-0.84-0.58-6.521-4.23-4.97c-1.24,1.7-1.62,4.95-5.17,3.47c-3.11-1.99-6.81-1.34-10.13-0.56c-2.53-1.76-5.91-2.01-7.69,0.88
		c-1.75-0.05-3.29-3.39-2.79-5.36c1.91-3.98-2.85-5.89-5.05-8.27c-0.98-5.88-3.48-11.64-2.5-17.69c-1.86-0.01-4.25,2.69-6.47,3.63
		c-2.21,0.18-4.52-3.09-4.1-5.31c1.19-5.37,4.07-10.37,5.88-15.6c1.95-2.64,1.12-5.57-2.41-5.62c-1.55-3.37-4.92-5.66-5.61-9.53
		c-1.31-2.63-1.42-6.47-5.06-6.76c-0.99-1.85-3.18-4.47-1.91-6.73c2.09-2.98-0.34-5.7-1.53-8.5c-2.13-3.05,0.55-6.68,0.67-10.01
		c0.9-4.35,1.8-8.69,2.69-13.04c-4.18-0.78-8.35-1.56-12.53-2.34C178.84,49.89,174.34,70.8,169.84,91.72L169.84,91.72z"/>
	<path id="jqvmap1_ut" fill="#FFFFFF" stroke="#818181" stroke-linecap="round" stroke-linejoin="round" stroke-opacity="0.25" d="
		M176.34,297.779c27.57,3.921,55.15,7.83,82.72,11.75c4.04-29.079,8.08-58.169,12.13-87.25c-10.83-1.14-21.65-2.33-32.47-3.59
		c1.43-7.93,2.82-15.85,3.84-23.84c-15.27-2.85-30.54-5.71-45.81-8.56c-6.8,37.17-13.6,74.33-20.41,111.5V297.779z"/>
	<path id="jqvmap1_az" fill="#96CCE4" stroke="#818181" stroke-linecap="round" stroke-linejoin="round" stroke-opacity="0.25" d="
		M173.19,314.66c-2.49-0.061-3.05,4.43-6.38,2.939c-0.74-2.869-3.59-2.82-5.59-4.22c-3.74,0.74-2.37,4.58-2.68,7.41
		c-0.52,5.04-0.42,10.21-0.89,15.22c-2.19,2.33-2.44,5.78-0.24,8.19c2.32,2.62,0.58,7.521,4.09,9.09c0.98,3.59-2.89,4.83-5.41,6.09
		c-3.29,2.46-3.28,6.86-3.88,10.47c-1.25,2.44-4.81,2.391-4.92,4.971c0.47,2.18,6.18,0.38,3.42,4.539
		c-0.65,2.75-3.14,3.451-5.62,3.781c-3.6,1.449-2.69,4.699,0.77,5.439c14.69,7.84,28.52,17.13,43.01,25.32
		c5.79,3.189,11.27,7.21,17.27,9.88c11.71,2.83,23.75,3.45,35.68,4.87c5.71-39.381,11.42-78.75,17.13-118.131
		c-27.58-3.93-55.17-7.85-82.75-11.779c-1,5.31-2,10.63-3,15.939L173.19,314.66z"/>
	<path id="jqvmap1_nv" fill="#FFFFFF" stroke="#818181" stroke-linecap="round" stroke-linejoin="round" stroke-opacity="0.25" d="
		M84.84,232.41c22.96,34.61,45.92,69.23,68.88,103.84c3.66,2.65,3.19-3.471,3.27-5.71c0.37-5.431,0.36-11.24,1.08-16.44
		c2.05-2.029,4.26-2,6.08-0.39c2.62-0.16,3.86,5.899,6.03,1.271c2.74-0.82,2.66-3.641,3.13-6.41c7.5-40.87,15-81.75,22.51-122.62
		c-30.72-6.81-61.44-13.63-92.16-20.44c-6.27,22.3-12.54,44.6-18.81,66.91L84.84,232.41z"/>
	<path id="jqvmap1_or" fill="#FFFFFF" stroke="#818181" stroke-linecap="round" stroke-linejoin="round" stroke-opacity="0.25" d="
		M67.16,62.81c-2.92,7.61-4.43,15.76-8.66,22.82c-2.86,8.53-5.96,16.93-10.17,24.89c-3.06,6.61-8,12.31-11.32,18.7
		c-1.03,6.5-0.64,13.05-0.36,19.6c37.23,8.7,74.46,16.69,111.69,25.39c3.45-13.15,6.51-25.75,10.19-38.81
		c1.2-2.48,3.15-6.06-1.1-5.42c-2.58-1.78-0.23-4.45-0.38-6.91c2.3-2.82,4.36-5.82,7.47-7.75c1.75-5.08,5.43-9.19,9.03-13.06
		c1.66-3.48-2.46-3.92-3.39-6.47c-0.25-3.79-3.56-4.26-6.62-4.99c-7.63-2.2-15.38-4.2-23.21-5.54c-4.9,0.03-9.79,0.06-14.69,0.09
		c-0.95-2.84-4.67,1.86-7.11,0.5c-2.61,0.82-4.42-2.63-6.57-1.28c-2.61-0.06-5.23,0.11-7.15-1.87c-3.09-1.53-6.33-1.81-9.5-3.1
		c-1.87,3.03-5.69,1.22-8.53,1.31c-1.65-1.64-5.79-3.02-6.03-4.81c1.1-2.44,0.78-5.93,0.53-8.59c-0.42-3.92-4.72-2.63-6.25-4.49
		C74.59,58.67,69.45,62.45,67.16,62.81z"/>
	<path id="jqvmap1_wa" fill="#FFFFFF" stroke="#818181" stroke-linecap="round" stroke-linejoin="round" stroke-opacity="0.25" d="
		M101.38,8.72c0.05,2.75,2.93,5.39,3.25,8.16c-1.92,2.33-1.78,5.19-1.32,7.71c-1.81,2.64,1.63,4.82,0.67,7.42
		c-3.6,1.52-2.43-3.7-4.86-4.99c-3.34-2.24,1.47-3.87,1.17-5.42c-2.5-1.11-2.24,3.88-3.69,4.17c-4.27,0.62-7.74-2.73-11.84-3.2
		c-4.94-1.91-9.48-4.88-12.51-9.32c-3.13-0.98-1.96,4.97-3.25,6.95c-0.63,2.8,2.59,5.06,1.41,8.21c0.52,3.86-1.29,7.55,0.18,11.29
		c-1.06,2.88,4.75,5.54,2.94,6.39c-3.45-1.05-6.2,3.2-2.25,4.34c1.57,0.97-0.61,6.32-3.3,5.43c-1.83,2.15,1.28,6.86,4.14,4.17
		c3.77-1.55,2.75,3.51,5.83,3.13c2.81-0.24,4.26,3.31,4.54,5.61c0.04,2.48-0.15,6.02-0.26,7.78c2.63,1.76,5.01,4.26,8.46,3.62
		c3.2,0.66,4.7-3.26,7.97-0.5c3.01,0.48,6.37,1.55,8.79,3.66c3.03,0.92,6.02-1.78,8.19,1.05c3.44,1.3,6.67,0.03,9.84-1.4
		c0.99,1.78,4.42,1.32,7,1.3c5.35-0.19,10.68-0.16,15.82,1.55c6.99,1.44,13.78,3.45,20.65,5.4c4.47-20.85,8.94-41.71,13.41-62.56
		c-19.81-3.93-39.37-9.21-58.73-14.66c-7.27-1.53-14.4-3.52-21.46-5.87l-0.42,0.31L101.38,8.72z M95.5,15.16
		c-1.45-1.44-3.35-0.9-0.78,2.47c-0.33-3.79,4.47,0.48,4.26-3.45C98.24,12.75,96.05,14.08,95.5,15.16z M97.81,17.07
		c-3.13,3.04,1.36,2.18,0.16-0.25L97.81,17.07z"/>
	<path id="jqvmap1_ca" fill="#509BBD" stroke="#818181" stroke-linecap="round" stroke-linejoin="round" stroke-opacity="0.25" d="
		M35.06,153.94c-0.1,4.04,0.4,8.21-1.99,11.75c-1.86,3.68-2.55,8.24-6.48,10.38c-1.19,2.11-3.49,3.38-3.59,6.45
		c-1.94,3.49,2.49,5.65,2.91,8.98c1.54,3.39,2.34,6.94,1.63,10.65c0,2.92-2.79,5.01-2.24,8.14c0.05,2.97-2.24,5.87,0.04,8.54
		c2.58,5,6.38,9.93,6.71,15.69c-0.54,2.77-0.99,5.37,1.81,7.17c1.6,1.95,4.49,3.66,2.79,6.46c-1.73,3.87-1.14,8.04-1.09,12.16
		c1.68,2.67,2.83,6.76,6.66,6.53c1.48,2.33,0.97,4.84-0.22,7.13c-2.5,1.53-4.36,2.73-3.66,6.08c0.27,3.49,4.27,5.34,4.36,9.01
		c1.46,6.2,4.13,11.92,7.59,17.25c0.71,2.569,2.16,4.34,2.9,6.41c-0.24,3.329-1.93,6.489-2.41,9.869c-1.66,2.61,1.19,5.52,3.99,5.12
		c4.03,0.149,7.27,3.31,11.01,4.04c3-0.55,4.74,2.9,6.07,5.109c1.54,2.711,2.37,6,5.76,6.881c2.51,1.14,6.19,0.05,7.17,3.449
		c2.41,2.721-2.39,5.051,1.41,5.17c2.73,1.871,5.56-1.739,7.56-0.739c2.13,2.06,4.05,4.2,4.93,7.05c4.3,4.9,1.44,11.77,2.79,17.52
		c14.73,1.94,29.44,4.721,44.27,5.381c2.78,1.189,6.19-4.43,2.84-4.65c-3.13,0.641-2.83-4.02-1.36-4.66
		c3.15-0.88,4.92-3.83,4.65-7.039c0.47-3.98,3.27-7.431,7.22-8.4c3.43-2.041-0.33-3.58-0.79-5.791
		c-0.23-3.649-1.95-6.809-3.62-9.889c2.02-3.66-2.22-3.32-3.16-6.24c-22.6-34.101-45.2-68.19-67.81-102.291
		c6.27-22.44,12.54-44.88,18.81-67.31c-22.04-5.16-44.08-10.31-66.13-15.47c-0.45,1.38-0.9,2.75-1.34,4.13L35.06,153.94z
		 M59.19,338.66c-0.27,3.05,7.99,3.061,4.7,2.07C62.26,340.38,60.72,338.27,59.19,338.66z M54.03,339.04
		c0.33,3.71,5.81,0.51,1.31-0.04C54.9,339.01,54.46,339.02,54.03,339.04z M79.69,357.5c-0.2,1.58,4.42,6,3.16,2.37
		C82.22,358.91,80.8,357.6,79.69,357.5z M77.75,369.13c-0.14,1.55,3.2,3.89,1.32,1.261C78.6,369.721,77.39,366.55,77.75,369.13z"/>
</g>
</svg>
