<svg xmlns="http://www.w3.org/2000/svg" width="959" height="593"><g transform="scale(1) translate(0)"><path class="jqvmap-region" id="jqvmap1_hi" fill="#ffffff" stroke="#818181" stroke-linecap="round" stroke-linejoin="round" stroke-opacity="0.25" stroke-width="1" d="m 244.66 512.25 c -2.48 3.8 2.23 4.04 4.74 5.38 c 3.06 0.16 3.51 -4.28 2.66 -6.56 c -2.72 -0.77 -5.01 -0.19 -7.41 1.19 Z m -9.31 3.97 c -4.02 5.11 3.64 0.48 0.63 -0.09 l -0.5 0.07 l -0.14 0.02 Z m 39.69 7.97 c -0.62 2.09 1.91 6.73 4.39 6.2 c 2.41 -1.46 3.73 1.73 6.48 0.56 c 1.23 -1.48 -3.77 -3.2 -3.7 -6.08 c -0.95 -3.8 -3.28 -3.2 -5.96 -1.28 c -0.41 0.2 -0.81 0.4 -1.22 0.6 Z m 19.94 10.03 c 3.58 0.95 7.91 2.99 11.25 0.47 c -1.05 -1.63 -5.06 -0.59 -7.1 -0.86 c -1.44 0.01 -3.54 -1.63 -4.15 0.39 Z m 12.13 4.38 c 2.33 2.45 3.64 6.83 7.24 7.4 c 2.36 -0.69 6.84 -0.66 7.32 -3.43 c -2.09 -2.51 -5.77 -3.35 -8.88 -4.29 c -2.53 -1.2 -4.11 -3.25 -5.68 0.33 Z m -7.06 1 c -0.29 3.69 5.55 3.98 3.67 0.55 c -0.27 -1.25 -3.83 -1.74 -3.67 -0.55 Z m 23.66 14.69 c 0.27 2.45 3.18 3.93 0.47 6.15 c -0.65 2.42 -5.54 2.87 -2.52 5.53 c 2.36 1.46 2.01 4.85 2.92 7.14 c -0.72 2.69 -1.43 6.78 1.72 8.06 c 2.8 2.95 4.5 -1.93 6.19 -3.68 c 1.27 -1.69 3.85 -4.1 5.94 -2.59 c 3.04 -0.81 6.3 -2.42 7.78 -5.22 c -2.79 -1.31 -4.88 -3.19 -5.57 -6.29 c -2.4 -5.33 -8.95 -6.26 -13.58 -8.98 c -1.29 -0.52 -2.26 -1.62 -3.34 -0.11 Z" original="#ffffff" /><path class="jqvmap-region" id="jqvmap1_ak" fill="#ffffff" stroke="#818181" stroke-linecap="round" stroke-linejoin="round" stroke-opacity="0.25" stroke-width="1" d="m 107.84 436.56 c -2.27 0.55 -4.87 0.32 -6.84 -0.34 c -2.41 1.22 -5.63 4.03 -8.25 1.88 c -3.1 0.93 -3.51 3.84 -5.22 5.97 c -1.82 2.52 -4.21 3.65 -7.31 3.14 c -2.5 -0.94 -5.49 -1.15 -7.5 0.98 c 2.03 4.34 6.39 8.13 5.82 13.23 c -1.85 2.94 6.31 2.99 2.68 5.02 c 0.15 2.8 3.07 5.68 2.91 7.88 c -2.35 2.21 -5.24 -0.38 -7.71 -1.06 c -3.24 -0.64 -2.73 -3.35 -0.82 -5.22 c -1.57 -1.51 -7.35 -1.81 -6.51 1.12 c -2.01 0.04 -3.81 -1.66 -6.27 -0.77 c -3.72 -0.44 -5.97 0.65 -2.94 4.05 c 3.68 1.45 1.06 4.72 1.17 7.57 c 0.76 2.63 3.66 4.89 6.67 4.17 c 3.2 -0.06 5.87 3.59 9.21 1.65 c 2.16 -1.3 5.33 -0.99 4.79 1.89 c -2.53 2.07 -1.36 6.13 -2.78 8.75 c -1.96 1.88 -4.53 1.59 -6.59 0.16 c -1.52 1.37 -4.7 3.68 -6.28 2.22 c 0.72 -3.71 -4.77 -3.63 -5.51 -0.61 c -1.21 3.97 -6.27 4.46 -8.31 7.63 c -0.7 2.42 -1.55 6.7 1.74 6.3 c 1.26 1.11 -1.2 4.8 -2.77 5.52 c 1.62 2.19 2.65 4.59 2.72 7.34 c 1.71 1.55 6.35 1.98 7.5 -0.16 c 2.45 -0.95 1.79 4.1 2.08 5.97 c 2.47 2.95 -4.02 1.28 -1.61 4.56 c -0.85 2.93 -1.76 5.02 2 2.72 c 2.76 -0.47 5.11 -0.69 5.66 2.09 c 2.59 -3.91 2.26 2.78 3.25 4.66 c 0.59 -0.75 1.3 -5.69 3.94 -3.06 c -0.17 4.52 5.33 -0.45 5.78 -0.04 c 0.54 2.92 -1.63 4.24 -2.86 6.41 c -1.51 2.24 -2.07 5.63 -4.21 7.17 c -3.87 -0.42 -3.37 4.1 -5.5 5.02 c -2.65 -0.72 -5.73 0.71 -8.44 1.41 c -1.35 2.41 -3.61 4.2 -5.78 1.81 c -2.56 0.05 -5.63 0.68 -7.63 2.33 c -2.48 2.43 -6.32 3.11 -9.66 2.29 c -2.78 -1.91 -7.11 3.41 -3.11 2.31 c 2.5 -1.91 4.66 0.64 7.25 0.63 c 2.21 -1.15 4.17 -2.75 6.84 -2.06 c 2.32 -3.35 5.1 -0.32 7.92 -1.16 c 2.31 -0.39 7.01 -3.91 5.26 0.66 c 0.09 -2.91 3.42 -2.73 5.54 -2.04 c 4.21 0.96 0.29 -3.16 2.08 -3.43 c 3.47 -2.05 7.52 -2.41 11.2 -3.72 c 5.48 -3.19 11.62 -5.7 16.21 -10.1 c 4.27 -2.97 -2.78 -3.48 -1.21 -6.32 c 1.68 -2.43 4.58 -3.81 7.47 -4.5 c 1.5 -3.07 3.53 -6.11 5.88 -8.52 c 2.49 -1.32 4.83 -3.39 7.83 -2.32 c 2.67 0.71 3.74 5.32 -0.52 3.66 c -1.27 -1.88 -5.56 -0.09 -5.25 2.41 c -0.21 2.44 -2.56 4.22 -3.06 6.66 c 4.79 0.85 0.24 3.54 -1.38 3.8 c 1.67 1.91 5.66 0.6 7.57 -1.14 c 1.25 -1.85 3.43 -3.8 5.41 -4.22 c 1.81 2.8 5.1 -1.16 5.74 2.72 c 0.71 2.78 6.02 -4.86 3.34 -3.1 c -3.03 3.11 -3.78 2.86 -1.94 -1.24 c 1.43 -4.85 -1.76 6.17 -1.45 0.81 c -0.81 -3.19 -0.93 -6.03 3.05 -6.4 c 2.7 -0.86 5.37 -0.87 5.79 2.52 c 0.42 3.48 3.8 2.84 5.95 4.76 c 2.41 2.2 4.76 1.95 7.8 1.78 c 4.34 -0.47 8.01 4.04 12.28 3.17 c 2.49 -0.42 5.1 -5.2 4.29 -0.23 c -2.26 2.83 -0.02 4.12 2.5 5.41 c 3.13 1.35 5.87 3.14 7.94 5.85 c 1.31 3.02 6.05 0.28 6.18 2.43 c -3.83 1.25 -1.23 3.54 0.21 5.47 c 1.81 1.95 0.33 5.72 3.64 5.82 c 1.14 1.28 3.49 7.44 4.01 5.38 c -0.35 -2.32 -0.7 -7.86 1.61 -3.76 c 0.37 1.42 1.04 8.7 2.07 4.74 c 1.07 -4.88 3.18 0.18 2.22 2.93 c 3.33 1.69 -1.23 3.33 0.69 4.88 c 0.69 -3.24 1.31 -0.36 2.16 1.56 c 1.05 1 1.54 3.94 3.13 3.72 c -1.68 -1.72 -2.94 -6.23 0.4 -3 c 2.42 2.79 4.05 2.12 2.74 -1.66 c -2.65 -2.66 0.28 -4.96 2.58 -2.29 c 3.12 -0.05 2.84 5.21 5.28 4.53 c 3.31 -3.17 1.5 -7.87 0.69 -11.7 c -3.3 -1.55 -7.04 -2.54 -10.22 -4.06 c -1.5 -5.33 -6.29 -8.69 -8.4 -13.77 c -0.44 -3.33 -4.71 -2.62 -5.75 -5.23 c -2.32 -1.72 -2.7 -4.4 -4.56 -6.35 c -1.65 -1.53 -5.22 0.95 -5.51 2.94 c 0.59 3.09 -3.23 3.04 -5.06 4.72 c 0.05 -4.27 -4.3 -6.15 -6.7 -9.1 c -1.33 -1.99 -1.32 -5.36 -4.45 -2.34 c -2.37 0.24 -6.38 -0.31 -5.34 -3.62 c 0.1 -27.7 0.2 -55.4 0.31 -83.09 c -2.75 -1.88 -5.88 -4.17 -9.15 -4.4 c -2.52 1.72 -5.07 1.09 -7.39 -0.62 c -2.72 0.23 -5.12 -0.65 -7.7 -2.89 c -3.08 -2.74 -8.58 0.17 -10.98 -3.65 c 1.13 -3.56 -3.22 -4.83 -5 -2.09 c -2.09 0.26 -0.65 -4.31 -3.64 -4.93 c -2.57 -2.85 -4.01 -1.28 -5.86 1.21 Z M 36.38 480.63 c -0.67 3.11 4.27 1.31 4.72 4.66 c 0.24 3.82 5.37 3.9 2.34 -0.08 c -0.1 -3.22 -3.92 -1.83 -5.06 -4.43 c -0.76 -2.02 -0.9 -1.86 -2 -0.16 Z m -17.16 23.16 c 2.57 4.06 1.45 1.37 0.13 -1.28 c -0.36 0.01 0 1 -0.13 1.28 Z m 21.84 14.81 c 1.27 1.79 4.99 5.58 6.22 2.03 c 2.26 -3.3 -3.27 -2.89 -5.23 -3.68 c -1.83 -0.9 -0.88 0.54 -0.99 1.65 Z m 91.72 18.78 c 0.06 3.21 2.81 -1.98 0 0 Z m -31.47 14.69 c -3.2 2.91 -7.24 4.67 -10.56 7.38 c 0.22 2.75 0.99 7.64 4.67 5.15 c 2.5 -1.44 4.98 -2.9 7.45 -4.37 c -1.84 -3.31 -0.81 -3.15 -4.55 -3.48 c -4.15 0.09 1.06 -3.73 2.64 -1.62 c 3.74 -1.04 3.95 -2.36 1.5 -3.66 c 0.7 -1.08 -1 0.61 -1.16 0.59 Z M 55.75 570.75 c 1.42 2.83 3.53 -1.99 0 0 Z m -35.78 0.34 c 0.53 2.46 -4.04 4.84 1.05 3.59 c 4.2 0.47 3.46 -4.35 0.01 -3.84 c -0.35 0.08 -0.7 0.16 -1.06 0.24 Z m 62.19 0.69 c 1.57 2.91 1.31 -2.03 0 0 Z M 58.63 573.13 c 3.23 0.49 0.99 -3.05 0 0 Z m -49 0.09 c -4.84 2.56 -0.44 1.81 2.29 0.58 c 2.89 0.16 5.05 -0.48 0.84 -1.46 c -1.04 0.29 -2.08 0.58 -3.13 0.88 Z m 7.25 1.38 c 1.28 0.21 -2.23 -0.59 0 0 Z" original="#ffffff" /><path class="jqvmap-region" id="jqvmap1_fl" fill="#ffffff" stroke="#818181" stroke-linecap="round" stroke-linejoin="round" stroke-opacity="0.25" stroke-width="1" d="m 748.38 439.94 c 1.69 2.92 1.5 6.12 1.16 9.34 c -4.12 0.54 -2.15 -4.69 -5.56 -3.99 c -6.18 -0.07 -12.34 1.13 -18.54 1.19 c -10.09 0.29 -20.37 2.14 -30.33 0.64 c -2.57 -1.57 -2.84 -6.15 -6.5 -5.33 c -9.12 -0.12 -18.18 1.79 -27.26 2.55 c -5.82 0.63 -11.62 1.37 -17.43 2.12 c -1.42 3.25 2.6 4.37 4.06 6.34 c 0.8 2.28 -1.56 8.42 2.19 7.1 c 4.11 -1.2 8.08 -2.93 12.48 -2.72 c 3.34 -0.82 6.63 -0.73 9.89 0.45 c 4.09 0.8 7.77 3.09 11.41 4.98 c 1.77 1.94 5.5 1.87 5.97 5 c -0.14 3.27 4.32 -0.94 6.5 0.53 c 3.19 -0.8 5.24 -3.68 7.69 -5.5 c 4.86 1.69 0.62 -2.9 3.27 -3.97 c 3.13 -0.83 6.62 -1.39 9.35 0.79 c 3.04 0.57 5.43 2 6.57 4.99 c 3.68 0.02 2.88 4.13 5.48 5.3 c 2.96 0.49 2.98 4.52 6.3 4.3 c 2.91 0.36 5.45 1.15 5.84 4.45 c 2.05 2.11 3.92 4.26 3.09 7.41 c 0.18 3.68 0.12 7.33 -1.44 10.75 c 0.39 3.68 1.37 7.94 3.28 10.78 c 2.25 -3.46 0.17 -3.87 -1.74 -6.03 c 2.19 -1.76 4.86 -0.22 7.3 0.16 c 0.82 3.15 -2.16 5.6 -3.48 8.19 c -3.3 2.21 1.65 4.09 2.73 6.3 c 3.11 3.34 4.35 7.94 7.53 11.26 c 0.78 2.29 2.51 7.47 4.63 3.09 c 2.54 -0.24 3.88 3.44 5.28 5.41 c -0.02 2.26 1.93 7.04 3.59 6.44 c 2.88 -0.8 6.04 0.65 8.28 2.59 c 2.56 3.3 4.58 6.98 4.56 11.27 c 1.37 2.73 4.55 0.44 5.81 -1.14 c 3.74 0.45 7.26 -1.25 9.22 -4.47 c -1.01 -2.36 -0.57 -4.83 -0.32 -7.17 c -0.04 -2.18 4.33 -3.19 2.25 -6.51 c -0.98 -6.33 -0.19 -12.96 -1.87 -19.25 c -2.46 -6.93 -7.54 -12.74 -10.4 -19.56 c -1.51 -2.41 -4.24 -3.92 -4.62 -7.04 c -0.94 -2.28 -2.67 -4.95 -0.07 -6.71 c -0.39 -3.56 -4.86 -5.42 -6.84 -8.41 c -5.38 -5.57 -8.29 -12.94 -12.35 -19.44 c -2.15 -5.53 -4.29 -11.07 -5.91 -16.78 c -3.43 0.07 -7.3 -1.03 -10.46 -0.35 l -0.34 0.37 l -0.26 0.29 Z m 52.91 109.22 c -1.9 4.58 0.72 0.38 0.66 -1.91 c -0.22 0.64 -0.44 1.27 -0.66 1.91 Z m -4.69 9.91 c 2.56 -1.97 3.68 -6.84 1.04 -1.68 c -0.35 0.56 -0.69 1.12 -1.04 1.68 Z m -2.25 2.22 c 1.46 -1.22 2.04 -2.07 0.18 -0.18 l -0.18 0.18 Z m -5.72 4.16 c -5.23 3.69 4.03 -2.14 0.33 -0.19 l -0.33 0.19 Z m -10.72 3.22 c -3.41 3.16 5.71 -0.32 4.1 -0.81 c -1.8 -0.56 -2.56 -0.71 -4.1 0.81 Z m -4.59 3.16 c 0.08 0.16 0.4 -0.3 0 0 Z" original="#ffffff" /><path class="jqvmap-region" id="jqvmap1_nh" fill="#ffffff" stroke="#818181" stroke-linecap="round" stroke-linejoin="round" stroke-opacity="0.25" stroke-width="1" d="m 862.56 94 c -1.4 -0.41 -3.87 -0.72 -3.05 3 c 0.22 3.63 -0.73 7.84 2.23 10.59 c 0.33 2.78 0.08 5.36 -2.17 7.29 c -0.19 2.83 -5.98 2.58 -3.35 5.32 c 1.16 7.35 -0.56 15.03 -0.62 22.51 c 1.2 1.95 0.98 4.39 0.76 6.75 c -1.07 3.79 4.84 -0.05 6.89 0.06 c 3.93 -1.29 8.46 -1.74 12.04 -3.54 c 0.77 -3.1 4.37 -2.75 5.94 -4.96 c 2.59 -3.52 -3.01 -2.73 -2 -6.59 c -3.83 0.01 -4.27 -2.46 -4.66 -5.62 c -3.84 -11.98 -7.32 -24.45 -11.49 -36.1 c -0.18 0.43 -0.35 0.85 -0.53 1.28 Z" original="#ffffff" /><path class="jqvmap-region" id="jqvmap1_mi" fill="#ffffff" stroke="#818181" stroke-linecap="round" stroke-linejoin="round" stroke-opacity="0.25" stroke-width="1" d="M 697.86 177.24 L 694.63 168.99 L 692.36 159.94 L 689.94 156.71 L 687.35 154.93 L 685.74 156.06 L 681.86 157.84 L 679.92 162.85 L 677.17 166.57 L 676.04 167.21 L 674.58 166.57 C 674.58 166.57 671.99 165.11 672.16 164.47 C 672.32 163.82 672.64 159.45 672.64 159.45 L 676.04 158.16 L 676.84 154.77 L 677.49 152.18 L 679.92 150.56 L 679.59 140.54 L 677.98 138.28 L 676.68 137.47 L 675.87 135.37 L 676.68 134.56 L 678.3 134.88 L 678.46 133.27 L 676.04 131 L 674.74 128.42 L 672.16 128.42 L 667.63 126.96 L 662.13 123.57 L 659.38 123.57 L 658.74 124.21 L 657.77 123.73 L 654.7 121.46 L 651.79 123.24 L 648.88 125.51 L 649.2 129.06 L 650.17 129.39 L 652.27 129.87 L 652.76 130.68 L 650.17 131.49 L 647.58 131.81 L 646.13 133.59 L 645.81 135.69 L 646.13 137.31 L 646.45 142.8 L 642.9 144.9 L 642.25 144.74 L 642.25 140.54 L 643.54 138.12 L 644.19 135.69 L 643.38 134.88 L 641.44 135.69 L 640.47 139.89 L 637.72 141.02 L 635.94 142.96 L 635.78 143.93 L 636.43 144.74 L 635.78 147.33 L 633.52 147.81 L 633.52 148.95 L 634.33 151.37 L 633.2 157.51 L 631.58 161.56 L 632.23 166.24 L 632.71 167.38 L 631.9 169.8 L 631.58 170.61 L 631.26 173.36 L 634.81 179.34 L 637.72 185.8 L 639.18 190.65 L 638.37 195.34 L 637.4 201.32 L 634.97 206.5 L 634.65 209.25 L 631.39 212.33 L 635.8 212.17 L 657.22 209.91 L 664.5 208.92 L 664.59 210.58 L 671.45 209.37 L 681.74 207.87 L 685.6 207.41 L 685.74 206.82 L 685.9 205.37 L 688 201.65 L 690 199.91 L 689.78 194.86 L 691.37 193.26 L 692.46 192.92 L 692.69 189.36 L 694.22 186.33 L 695.27 186.94 L 695.44 187.58 L 696.24 187.74 L 698.18 186.77 L 697.86 177.24 Z M 581.62 82.06 L 583.45 80 L 585.62 79.2 L 590.99 75.31 L 593.28 74.74 L 593.74 75.2 L 588.59 80.34 L 585.28 82.29 L 583.22 83.2 L 581.62 82.06 Z M 667.79 114.19 L 668.44 116.69 L 671.67 116.85 L 672.97 115.64 C 672.97 115.64 672.89 114.19 672.56 114.03 C 672.24 113.86 670.95 112.17 670.95 112.17 L 668.76 112.41 L 667.15 112.57 L 666.82 113.7 L 667.79 114.19 Z M 567.49 111.21 L 568.21 110.63 L 570.96 109.82 L 574.51 107.56 L 574.51 106.59 L 575.16 105.94 L 581.14 104.97 L 583.57 103.03 L 587.93 100.93 L 588.09 99.64 L 590.03 96.73 L 591.81 95.92 L 593.1 94.14 L 595.37 91.88 L 599.73 89.46 L 604.42 88.97 L 605.55 90.1 L 605.23 91.07 L 601.51 92.04 L 600.06 95.11 L 597.79 95.92 L 597.31 98.35 L 594.88 101.58 L 594.56 104.17 L 595.37 104.65 L 596.34 103.52 L 599.89 100.61 L 601.19 101.9 L 603.45 101.9 L 606.68 102.87 L 608.14 104 L 609.59 107.08 L 612.34 109.82 L 616.22 109.66 L 617.68 108.69 L 619.29 109.99 L 620.91 110.47 L 622.2 109.66 L 623.33 109.66 L 624.95 108.69 L 628.99 105.14 L 632.39 104 L 639.02 103.68 L 643.54 101.74 L 646.13 100.45 L 647.58 100.61 L 647.58 106.27 L 648.07 106.59 L 650.98 107.4 L 652.92 106.91 L 659.06 105.3 L 660.19 104.17 L 661.65 104.65 L 661.65 111.6 L 664.88 114.67 L 666.17 115.32 L 667.47 116.29 L 666.17 116.61 L 665.37 116.29 L 661.65 115.81 L 659.55 116.45 L 657.28 116.29 L 654.05 117.75 L 652.27 117.75 L 646.45 116.45 L 641.28 116.61 L 639.34 119.2 L 632.39 119.85 L 629.96 120.66 L 628.83 123.73 L 627.54 124.86 L 627.05 124.7 L 625.6 123.08 L 621.07 125.51 L 620.42 125.51 L 619.29 123.89 L 618.48 124.05 L 616.54 128.42 L 615.57 132.46 L 612.39 139.46 L 611.22 138.42 L 609.85 137.39 L 607.9 127.1 L 604.36 125.73 L 602.31 123.45 L 590.19 120.7 L 587.33 119.67 L 579.1 117.5 L 571.21 116.36 L 567.49 111.21 Z" original="#ffffff" /><path class="jqvmap-region" id="jqvmap1_vt" fill="#ffffff" stroke="#818181" stroke-linecap="round" stroke-linejoin="round" stroke-opacity="0.25" stroke-width="1" d="m 833.16 106.59 c 0.19 6 4.65 11.21 3.72 17.28 c -2.48 4.23 4.52 7.29 2.22 11.58 c 0.9 1.59 4.66 1.96 4.06 5.25 c 1.08 4.21 2.86 8.34 1.84 12.76 c 3.35 -0.51 7.06 -1.17 10.13 -1.97 c -0.21 -2.13 1.51 -5.75 -0.53 -7.81 c 0.2 -7.64 1.01 -15.26 1.13 -22.91 c -3.25 -2.41 0.32 -3.79 2.12 -5.18 c 1.96 -2.28 3.9 -5.07 2.6 -8.1 c -2.62 -1.63 -1.02 -5.94 -2.39 -7.22 c -8.3 2.1 -16.59 4.21 -24.89 6.31 Z" original="#ffffff" /><path class="jqvmap-region" id="jqvmap1_me" fill="#b4e0f4" stroke="#818181" stroke-linecap="round" stroke-linejoin="round" stroke-opacity="0.25" stroke-width="1" d="m 889.88 40.22 c -2.16 1.31 -3.69 2.74 -4.84 4.69 c -2.29 0.6 -4.99 -1.37 -4.88 -3.94 c -2.97 -0.82 -3.33 3.68 -4.37 5.71 c -1.09 4.29 -3.27 8.39 -3.97 12.69 c -0.06 3.04 1 6.63 -1.35 9.09 c 0.08 2.92 -0.75 6.18 2 8.16 c -1.37 5.7 -6.23 10.36 -5.41 16.56 c -4.27 -2.21 -1.74 2.47 -1.09 4.73 c 3.51 11.08 7.19 22.16 10.25 33.35 c 0.21 3.01 5.81 1.35 4.53 5.7 c 2.9 2 2.06 -3.92 2.66 -5.87 c -1.01 -3.29 2.7 -4.63 0.66 -7.62 c 0.94 -1.05 2.92 -5.9 4.61 -3.46 c 2.03 1.03 5.28 -1.89 6.74 -3.19 c -0.98 -4.02 4.21 -1.75 4.73 -5.32 c -1.11 -2.61 0.74 -5.45 -0.57 -7.44 c -2.42 -1.59 3.53 -4.63 3.31 -0.78 c 2.27 0.48 2.15 2.8 3.66 3.93 c 1.94 -2.82 -2.15 -3.81 0.35 -6.03 c 2.43 -0.81 3.1 -3.96 6 -3.31 c -0.17 1.46 1.03 3.34 2.26 1.38 c 2.94 -2.9 5.24 -7.08 9.37 -8.34 c 1.17 -2.61 3.34 -5.74 0.71 -8.24 c -0.55 -1.64 -3.68 -4.84 -4.15 -2.58 c -0.75 2.6 -4.66 -0.65 -4.92 -2.22 c 0.1 -2.8 0.29 -7.17 -3.8 -5.81 c -3.96 1.36 -3.64 -3.04 -4.69 -5.61 C 905.22 58.3 902.75 50.15 900.28 42 c -2.86 -1.25 -5.71 -2.92 -8.81 -3.38 c -0.53 0.53 -1.06 1.06 -1.59 1.59 Z m 20.47 61 c -2.81 1.7 1.87 5.16 1.13 1.22 c 1.48 -0.9 0.13 -2.4 -1.13 -1.22 Z m -7.81 7.81 c 3.16 6.67 2.63 -3.59 0 0 Z" original="#b4e0f4" /><path class="jqvmap-region" id="jqvmap1_ri" fill="#ffffff" stroke="#818181" stroke-linecap="round" stroke-linejoin="round" stroke-opacity="0.25" stroke-width="1" d="m 871 164.28 c 1.15 4.66 2.29 9.31 3.44 13.97 c 2.56 -0.49 4.66 -2.29 5.84 -4.56 c 4.17 0.76 4 -2.64 1.51 -4.97 c -1.79 -1.94 -3.16 -5.31 -5.74 -5.92 c -1.68 0.49 -3.37 0.99 -5.05 1.48 Z" original="#ffffff" /><path class="jqvmap-region" id="jqvmap1_ny" fill="#ffffff" stroke="#818181" stroke-linecap="round" stroke-linejoin="round" stroke-opacity="0.25" stroke-width="1" d="m 825.56 108.66 c -2.7 1.12 -5.45 1.68 -8.33 1.43 c -5.07 0.72 -10.17 2.73 -12.92 7.31 c -2.84 3.43 -4.89 7.49 -7.18 11.2 c -1.65 2.36 -5.82 3.73 -5.55 6.84 c -0.17 3.56 5.77 0.73 4.43 4.38 c -2.69 2.3 0.8 4.23 0.56 6.59 c 0.5 3.47 -4.26 1.99 -5.36 4 c -1.62 2.71 -3.35 6.62 -7.22 6.05 c -3.04 -0.43 -5.35 2.05 -7.98 2.63 c -2.5 -0.75 -4.7 -2.05 -7.59 -1.31 c -5.31 0.21 -10.62 1.98 -15.23 4.53 c -0.29 1.77 0.61 6.25 3.17 6.14 c 1.55 2.48 2.09 4.96 -0.63 6.72 c -1.51 1.76 -1.8 4.25 -4.16 5.3 c -1.93 1.14 -2.68 3.51 -4.8 4.54 c 0.33 3.07 -0.22 7.29 4.08 5.12 c 22.14 -4.26 44.26 -8.68 66.23 -13.74 c 0.98 3.85 5.67 1.32 6.44 4 c 0.64 2.93 1.36 7.4 5.33 6.88 c 3.14 1.9 6.9 3.68 10.69 4.22 c 2.71 0.47 7.18 1.43 6.44 5.06 c -0.33 1.97 -1.62 7.56 1.97 5.93 c 5.3 -1.65 10.96 -2.84 15.06 -6.85 c 3.23 -2.49 6.76 -4.64 9.35 -7.86 c -2.99 -2.44 -4.65 0.46 -6.81 2.42 c -2.91 1.56 -6.01 3.51 -9.16 4.32 c -2.6 -0.63 -4.83 -0.86 -6.18 2.07 c -1.03 2.04 -4.86 2.98 -3.98 -0.15 c 4.26 -1.87 -2.17 -3.97 -0.33 -6.21 c 1.19 -3.13 0.56 -6.87 0.42 -10.21 c -1.43 -7.38 -3.69 -14.76 -2.54 -22.36 c -0.08 -4.46 1.55 -8.97 -0.51 -13.21 c -1.22 -2.56 -0.47 -6.83 -4.05 -7.34 c -2.99 -0.66 0.75 -4.31 -1.57 -6.2 c -1.7 -2.43 -3.17 -4.91 -1.54 -7.81 c 0.38 -5.77 -3.83 -10.57 -3.55 -16.35 c -2.32 0.65 -4.65 1.29 -6.97 1.94 Z" original="#ffffff" /><path class="jqvmap-region" id="jqvmap1_pa" fill="#9fd2e9" stroke="#818181" stroke-linecap="round" stroke-linejoin="round" stroke-opacity="0.25" stroke-width="1" d="m 798.88 181.63 c -17.5 3.38 -34.87 7.42 -52.47 10.28 c -0.61 -2 0.48 -8.42 -2.41 -4.31 c -2.18 2.73 -5.48 3.74 -8.09 5.97 c 1.52 9.75 2.63 19.57 5.44 29.05 c 1.14 6.09 2.27 12.17 3.41 18.26 c 8.85 -1.42 17.79 -2.25 26.51 -4.41 c 16.39 -3.45 33.03 -6.46 49.33 -9.87 c 2.48 -3.07 8.03 -1.69 8.97 -6.19 c 0.64 -2.36 4.86 -3.99 4.33 -5.9 c -2.3 -1.89 -5.94 -2.77 -6.39 -6.13 c -3.14 1.09 -4.42 -3.94 -3.12 -5.32 c 3.86 -1.1 -0.49 -3.68 0.55 -5.96 c 2.52 -1.88 1.12 -5.15 2.81 -7.07 c 3.87 -2.7 -2.98 -1.1 -3.72 -3.99 c -1.35 -2.18 -0.28 -7.24 -4.16 -5.92 c -2.34 -1.13 -3.87 -3.75 -7.09 -1.7 c -4.64 1.07 -9.28 2.15 -13.92 3.22 Z" original="#9fd2e9" /><path class="jqvmap-region" id="jqvmap1_nj" fill="#ffffff" stroke="#818181" stroke-linecap="round" stroke-linejoin="round" stroke-opacity="0.25" stroke-width="1" d="m 827.84 191.34 c 1.03 2.99 -1.82 4.8 -2.06 7.47 c 2.86 1.63 0.49 4.87 -0.92 5.73 c -0.41 3.86 4.01 1.68 4.16 5.14 c 1.37 2.19 4.72 3.02 6.26 4.94 c -0.15 2.61 -3.85 3.5 -4.69 6.06 c -0.26 3.07 -4.09 3.19 -4.18 5.96 c -0.99 2.38 -0.74 5.09 1.7 6.47 c 2.85 2.76 6.86 3.99 10.73 4.38 c 0.48 1.55 -1.84 7.18 1.1 3.59 c 1.5 -2.42 0.59 -5.95 3.11 -8.01 c 2.5 -4.08 5.03 -8.84 4.88 -13.61 c -1.35 -4.07 0.8 -9.01 -1.81 -12.82 c -1.1 1.32 -6.17 1.23 -4.13 -0.8 c 2.39 -1.39 3.37 -3.62 2.39 -6.31 c 0.21 -2.31 1.58 -5.42 -1.69 -6.19 c -4.35 -1.15 -8.82 -2.13 -12.88 -4.26 c -0.66 0.75 -1.31 1.5 -1.97 2.25 Z" original="#ffffff" /><path class="jqvmap-region" id="jqvmap1_de" fill="#398bb0" stroke="#818181" stroke-linecap="round" stroke-linejoin="round" stroke-opacity="0.25" stroke-width="1" d="m 824.88 225.34 c -3.72 0.25 -3.47 3.52 -1.91 6.13 c 3.35 6.89 3.86 14.58 6.03 21.81 c 3.45 0.11 6.81 -0.49 10.16 -1.25 c -1.2 -2.17 -0.68 -6.38 -3.32 -6.38 c -2.9 -1.2 -4.17 -3.69 -4.9 -6.58 c -0.91 -3.11 -3.62 -4.96 -5.48 -7.35 c -1.85 -1.82 0.94 -5.5 -0.26 -6.47 l -0.33 0.09 Z" original="#398bb0" /><path class="jqvmap-region" id="jqvmap1_md" fill="#b1def2" stroke="#818181" stroke-linecap="round" stroke-linejoin="round" stroke-opacity="0.25" stroke-width="1" d="m 813.59 229.19 c -17.31 3.18 -34.53 6.83 -51.78 10.28 c 0.74 3.02 1.31 6.08 1.78 9.16 c 2.14 -1.9 3.29 -5.35 6.59 -5.34 c 2.14 -1.85 2.67 -5.25 5.77 -3.55 c 3.46 0.18 5.43 -5.35 9.01 -3.85 c 2.63 1.63 5.66 2.79 7.34 5.59 c 4.19 0.11 3.68 3.73 5.74 4.96 c 2.73 1.11 5.02 1.18 6.38 -0.53 c 4.29 1.38 2.24 3.74 1.44 6.9 c 0.09 2.97 -3.7 4.92 -1.66 7.97 c 3.1 1.31 6.4 1.2 9.63 1.4 c 2.17 1.58 6.83 1.03 3.79 -2.1 c 0.41 -2.74 -3.08 -3.35 -3.32 -6.04 c -1.7 -2.67 -1.42 -5.47 -0.36 -8.32 c 1.68 -2.42 -2.83 -3.82 -0.4 -5.41 c 1.25 -1.53 0.43 -4.16 2.98 -4.7 c 1.62 -3.02 5.1 -1.45 2.35 1.02 c -2.54 2.98 -0.81 4.5 0.57 6.3 c 1.41 3.55 -0.68 5.07 -1.53 7.31 c -0.22 -0.81 3.62 -1.01 3.22 1.79 c -3.15 1.64 -1.45 6.12 1.09 7.31 c 2.98 0.99 5.58 -1.8 6.98 2.14 c 1.5 3.75 4.92 0.81 7.41 -0.02 c 2.74 -1.21 3.47 -4.93 2.78 -7.7 c -1.13 -1.58 -4.82 0.92 -7.13 0.4 c -3.86 1.26 -4.9 -1.25 -5.28 -4.64 c -1.68 -5.97 -2.14 -12.33 -5.16 -17.9 c -0.04 -4.32 -2.71 -4.2 -6.07 -2.91 c -0.73 0.16 -1.45 0.31 -2.18 0.47 Z m 10.94 32.59 c 1.32 0.99 0.59 4.97 2.06 4.63 c -0.48 -1.31 -0.36 -4.99 -2.06 -4.63 Z" original="#b1def2" /><path class="jqvmap-region" id="jqvmap1_va" fill="#ffffff" stroke="#818181" stroke-linecap="round" stroke-linejoin="round" stroke-opacity="0.25" stroke-width="1" d="m 792.88 242.88 c -0.16 1.46 0.24 5.89 -2.4 4.29 c -2.58 -0.67 -6.42 -3.2 -8.23 -2.73 c 0.7 3.72 -1.46 6.77 -2.99 9.94 c -3.05 1.14 -2.29 5.83 -5.84 5.58 c -1.62 1.74 -1.47 5.31 -2.45 7.73 c -3.09 1.14 -5.37 -0.48 -7.28 -1.75 c 0.11 6.5 -3.72 11.95 -5.91 17.84 c -1.69 1.73 1.19 3.8 -0.74 5.77 c -1.35 3.56 -3.79 2.72 -6.19 4.19 c -2.72 1.1 -4.9 0.5 -5.4 4.61 c -2.07 1.14 -4.83 2.63 -6.91 0.47 c -2.38 1.51 -5.02 3.21 -7.81 1.6 c -2.69 -0.01 -3.9 -6.55 -6.07 -2.94 c -3.27 4.09 -7.89 7.48 -10.21 12.09 c 0.43 3.25 -4.46 3.32 -6.42 5.15 c -4.27 1.95 3.62 -0.11 5.16 -0.07 c 5.56 -0.79 11.14 -1.37 16.76 -1.36 c 1.95 -2.65 4.98 -1.81 7.77 -1.65 c 7.86 -0.32 15.65 -2.12 23.48 -2.99 c 12.85 -1.4 25.44 -4.27 38.04 -7.05 c 11.65 -2.52 23.3 -5.03 34.96 -7.55 c -1.64 -2.66 -2.75 -6.67 -6.42 -4.14 c -1.99 2.03 -6.61 -1.82 -2.7 -2.48 c 2.65 -1.62 -1.75 -4.07 -1.8 -5.97 c -2.73 -0.62 -2.88 -5.12 0.54 -3.6 c -0.17 -1.37 -1.24 -3.62 -1.62 -5.68 c 1.47 -3.51 -0.84 -4.97 -3.72 -5.16 c 0.31 -3.42 -2.9 -2.93 -5.22 -3.97 c -3.33 0.21 -7.06 -0.25 -9.91 -1.66 c -1.22 -2.41 -0.91 -5.12 1.25 -6.88 c 1.39 -2.83 -0.28 -5.7 -3.3 -6.27 c -2.65 -0.83 -6.97 -0.29 -5.73 -4.3 c -0.83 -0.3 -2.05 -1.06 -2.69 -1.06 Z m 39.16 21.59 c 0.44 4.71 -3.15 8.7 -2.62 13.48 c -0.34 4.11 2.64 5.72 3.48 0.92 c 1.71 -3.04 -0.23 -6.47 0.8 -9.73 c 0.4 -2.53 3.66 -3.88 3.52 -6.73 c -1.73 0.69 -3.46 1.38 -5.19 2.06 Z" original="#ffffff" /><path class="jqvmap-region" id="jqvmap1_wv" fill="#ffffff" stroke="#818181" stroke-linecap="round" stroke-linejoin="round" stroke-opacity="0.25" stroke-width="1" d="m 739.75 223.25 c -1.6 2.23 1.3 5.02 0.25 7.75 c -0.18 4.04 -0.63 8.11 -0.84 12.13 c -1.94 3.58 -4.43 7.35 -8.16 9.13 c -3.15 -1.33 -3.92 3.25 -5.76 4.98 c -1.56 2.28 2.64 4.93 -0.3 6.69 c -2.57 3.58 -2.6 -4.8 -4.46 -0.71 c -1.32 2.59 0.02 6.02 -1.35 8.33 c -1.82 1.54 -0.53 5.19 -4.16 4.81 c -2.23 0.13 -1.45 6.19 1 6.81 c 2.24 1.47 2.49 4.74 5.5 5.92 c 1.92 1.96 2.28 5.18 5.39 6.05 c 1.64 2.19 3.07 4.96 6.25 4.88 c 2.63 0.5 4.77 -3.86 7.22 -1.35 c 1.49 0.81 3.93 -0.57 4.58 -1.83 c 0.43 -4.57 3.42 -2.71 6.03 -4.39 c 2.39 -0.94 4.82 -0.98 5.62 -4.44 c -1.26 -2.59 0.3 -5 1.56 -7.64 c 2.23 -4.81 4.72 -9.61 4.67 -15.05 c 2.65 -2.31 3.72 3.56 7.05 1.41 c 1.64 -1.77 1.12 -5.67 2.6 -7.59 c 3.47 0.39 2.97 -3.96 5.76 -5.21 c 2.29 -3.11 3.52 -6.8 3.06 -10.7 c 1.06 -1.29 5.1 1.62 7.23 2.15 c 3.3 3.35 4.34 -1.98 2.85 -4.05 c -2 -2.28 -5.12 -3.7 -7.62 -4.75 c -3.31 0.98 -5.44 5.47 -9.38 3.97 c -1.86 -0.23 -2.38 3.98 -4.86 3.88 c -2.89 0.71 -3.79 4.38 -6.03 6.22 c -1.1 -0.06 -0.99 -4.82 -1.62 -6.64 c -0.01 -3.93 -1.77 -5.3 -5.48 -3.82 c -4.21 0.6 -8.41 1.23 -12.61 1.91 c -1.17 -6.45 -2.29 -12.92 -3.44 -19.38 l -0.35 0.35 l -0.18 0.18 Z" original="#ffffff" /><path class="jqvmap-region" id="jqvmap1_oh" fill="#ffffff" stroke="#818181" stroke-linecap="round" stroke-linejoin="round" stroke-opacity="0.25" stroke-width="1" d="m 729.5 197.78 c -4.85 2.06 -7.38 6.9 -11.47 9.97 c -4.08 0.86 -8.09 1.75 -11.72 3.88 c -3.41 1.61 -4.39 -4.09 -7.67 -2.63 c -3.13 1.35 -5.49 -1.1 -8.11 -2.41 c -8.6 1.15 -17.15 2.64 -25.66 4.38 c 1.45 17.83 4.12 35.53 5.87 53.33 c -0.69 3.82 4.06 2.26 6.23 1.48 c 2.74 0.41 4.83 2.16 5.48 4.94 c 1.26 2.48 5.82 -0.87 6.96 2.54 c 2.19 1.53 4.46 -2.33 7.03 -0.58 c 2.52 0.04 5.62 1.51 6.84 -1.56 c 1.49 -0.55 5.37 -3.85 5.41 -0.71 c 0.38 2.53 3.82 3.57 5.77 4.7 c 3.53 0.63 2.32 -3.91 4.21 -5.51 c -0.11 -2.74 0.21 -5.73 1.39 -8.13 c 2.53 -2.81 3.8 4.53 4.98 0.39 c -2.02 -2.27 -0.99 -5.41 0.93 -7.41 c 1.07 -4.06 4.05 -2.41 6.5 -4.39 c 2.93 -3.16 6.59 -6.57 5.97 -11.27 c 0.44 -4.71 1.18 -9.75 -0.53 -14.23 c 1.47 -2.48 2.58 -4.29 0.96 -7.33 c -2.04 -7.53 -2.56 -15.37 -3.93 -23.04 c -1.81 1.2 -3.63 2.4 -5.44 3.59 Z" original="#ffffff" /><path class="jqvmap-region" id="jqvmap1_in" fill="#539dbe" stroke="#818181" stroke-linecap="round" stroke-linejoin="round" stroke-opacity="0.25" stroke-width="1" d="m 658.66 210.31 c -9.12 0.93 -18.35 1.98 -27.41 2.68 c -2.6 0.39 -4.21 5.08 -6.89 2.98 c -3.83 -2.84 -2.64 1.83 -2.41 4.45 c 1.1 14.81 2.73 29.61 3.44 44.42 c -0.76 3.69 -1.39 7.89 1.36 10.91 c 0.1 2.99 1.4 6.28 -1.14 8.65 c -1.83 2.73 -2.55 6.09 -5.02 8.42 c 0.09 2.08 -2.02 8.2 1.63 5.16 c 3.49 -0.6 7.25 -1.53 10.69 -1.34 c 2.36 4.08 2.67 -0.62 5.26 -1.29 c 2.03 -2.62 4.78 2.05 5.34 1.04 c -1.26 -3.41 3.05 -3.77 5.1 -5.22 c 1.09 0.63 6.05 3.38 5.3 -0.64 c -0.46 -2.47 2.02 -4.71 3.65 -6.34 c 3.11 -1.39 4.33 -3.9 4.16 -7.23 c 1.83 -1 4.93 -1.01 6.97 -2.47 c 4.23 -1.03 0.26 -3.48 1.22 -5.92 c -0.83 -12.56 -2.8 -25.13 -4.08 -37.69 c -0.85 -6.99 -1.44 -14.01 -2.14 -21.02 c -1.68 0.16 -3.35 0.31 -5.03 0.47 Z" original="#539dbe" /><path class="jqvmap-region" id="jqvmap1_il" fill="#80bcd7" stroke="#818181" stroke-linecap="round" stroke-linejoin="round" stroke-opacity="0.25" stroke-width="1" d="m 569.75 200.44 c -0.29 2.58 4.2 1.83 3.73 5.07 c 2.07 2.09 5.71 4.21 4.38 7.77 c -0.31 3.04 -2.61 5.44 -3.08 8.4 c -2.38 2.71 -6.06 2.98 -9.31 3.94 c -1.61 2.47 -1.05 4.91 1.28 6.47 c 0.63 3.25 -1.08 5.07 -2.74 7.38 c 1.41 3.63 -2.39 2.86 -3.56 5.02 c 1.08 3.12 -2.11 3.8 -2.53 6.64 c 0.19 3.95 1.33 8.21 3.28 11.58 c 3.68 3.96 7.38 7.9 12.21 10.47 c -0.61 2.88 -0.64 6.7 3.43 5.71 c 2.05 0 6.18 0.38 6.26 2.68 c -0.19 4.39 -3.6 8.24 -3.28 12.53 c 1.6 3.83 5.33 6.26 8.59 8.42 c 3.37 -0.29 5.36 1.27 5.9 4.6 c 1.01 2.64 3.84 4.73 1.73 7.67 c 0.55 1.74 2.58 7.7 4.31 4.05 c 1.21 -2.98 5.41 -4.78 8.07 -2.46 c 3.1 2.46 5.94 0.47 3.13 -2.8 c -0.98 -3.39 2.61 -4.96 5.37 -5.33 c 1.01 -1.55 -1.6 -4.46 1.4 -5.97 c 1.8 -3.97 -0.56 -9.39 3.32 -12.49 c 1.43 -2.97 3.23 -5.97 4.4 -8.97 c 0.13 -3 -0.7 -5.7 -2.34 -8.16 c -0.45 -4.59 1.31 -9.09 0.02 -13.65 c -1.16 -15 -2.22 -30.05 -3.67 -45.01 c -1.02 -3.1 -1.61 -6.46 -4.04 -8.77 c -2.27 -1.83 -0.51 -5.93 -1.97 -7.32 c -14.76 0.83 -29.52 1.67 -44.28 2.5 Z" original="#80bcd7" /><path class="jqvmap-region" id="jqvmap1_ct" fill="#ffffff" stroke="#818181" stroke-linecap="round" stroke-linejoin="round" stroke-opacity="0.25" stroke-width="1" d="m 865.78 165.41 c -6.91 1.54 -13.81 3.08 -20.72 4.63 c 2.17 6.2 2.74 12.83 2.44 19.34 c -2.62 4.3 2.61 2.38 3.97 -0.21 c 2.09 -1.89 4.19 -3.71 5.99 -5.88 c 2.06 1.35 4.78 -1.86 7.44 -1.46 c 2.98 -0.68 5.69 -2.24 8.56 -3.26 c -1.15 -4.67 -2.29 -9.33 -3.44 -14 c -1.42 0.28 -2.83 0.56 -4.25 0.84 Z" original="#ffffff" /><path class="jqvmap-region" id="jqvmap1_wi" fill="#ffffff" stroke="#818181" stroke-linecap="round" stroke-linejoin="round" stroke-opacity="0.25" stroke-width="1" d="m 559.53 104.97 c -4.06 2.75 -8.71 4.92 -13.53 5.84 c -2.88 -1.08 -5.54 -1.12 -5.57 2.68 c -0.48 3.34 0.51 7.03 -0.47 10.17 c -2.02 3.26 -6.91 4.03 -7.36 8.38 c -2.63 2.78 2.21 3.06 2.23 5.53 c 1.79 2.9 -2.13 4.74 -1.33 7.65 c 0.29 2.93 -0.4 6.49 1.14 8.93 c 1.33 3.48 5.88 0.21 6.64 3.93 c 1.56 2.26 5.47 1.03 6.19 4.78 c 2.15 5.1 9.7 4.85 11.21 10.39 c 0.68 3.38 0.35 7.34 1.94 10.32 c 3.26 1.05 1.94 4.34 0.25 6.21 c -0.79 3.96 2.53 8.34 6.75 8.25 c 2.28 1.6 4.86 1.65 7.83 1.19 c 13.03 -0.77 26.07 -1.53 39.1 -2.3 c -0.02 -4.45 -1.98 -8.61 -1.86 -13.13 c -1.7 -2.04 -0.86 -4.17 -0.04 -6.39 c 0.32 -2.84 3.07 -4.93 1.51 -7.87 c -1.05 -2.94 -0.88 -6.21 1.73 -8.27 c -0.2 -2.83 -0.5 -5.03 -0.16 -7.93 c -1.14 -4.2 2.64 -7.5 3.69 -11.36 c 0.92 -1.13 3.15 -8.34 0.73 -4.93 c -2.65 3.81 -4.99 8.01 -8.18 11.29 c -0.86 2.06 -3.21 4.55 -5.21 4.5 c -2.57 -1.26 0.28 -4.49 0.9 -6.41 c 0.47 -2.94 3.2 -4.25 4.09 -6.85 c -3.31 -1.29 -2.77 -5.03 -3.54 -7.92 c 0.02 -3.09 -1.23 -5.08 -4.29 -5.57 c -2.14 -3.67 -7.04 -2.78 -10.59 -4.12 c -7.13 -1.87 -14.21 -4.39 -21.67 -4.99 c -2.48 -0.54 -2.84 -5.51 -5.51 -4.73 c -1.71 -1.54 -3.85 -0.7 -5.82 0.13 c -2.8 -1.32 0.68 -4.59 1.5 -6.38 c 2.18 -1.34 -1.53 -2.14 -2.31 -1 Z" original="#ffffff" /><path class="jqvmap-region" id="jqvmap1_nc" fill="#ffffff" stroke="#818181" stroke-linecap="round" stroke-linejoin="round" stroke-opacity="0.25" stroke-width="1" d="m 830.06 295.97 c -18.3 3.8 -36.53 8 -54.86 11.65 c -12.74 1.51 -25.38 4.07 -38.18 4.94 c -3.32 -0.82 -1.17 3.72 -2.5 5.53 c -2.62 1.34 -3.49 4.59 -5.03 6.38 c -3.24 -1.36 -5.07 1.46 -6.34 3.97 c -1.09 -0.57 -2.96 0.03 -3.41 -1.41 c -2.02 1.96 -4.37 3.73 -4.31 6.81 c -3.66 1.1 -6.31 3.82 -9.28 5.96 c -2.64 0.94 -5.76 2.16 -7.4 4.35 c 0.73 4.06 -2.98 3.3 -5.1 5.29 c -1.98 4.69 2.74 2.66 5.58 2.5 c 6.41 -1.19 13.32 -0.49 19.18 -3.73 c 5.04 -1.9 9.41 -5.9 15.06 -5.67 c 6.5 -0.64 13.15 -0.6 19.62 -0.69 c 2.99 0.53 3.36 4.79 5.58 5.01 c 5.37 -0.81 10.87 -1.67 16.25 -1.79 c 5.38 1.36 9.61 5.45 14.52 7.93 c 3.59 2.64 6.93 5.66 10.43 8.44 c 3.15 -0.86 6.32 -1.58 9.59 -1.72 c 1.06 -4.55 2.04 -9.29 5.39 -12.78 c 4.2 -4.27 9.23 -8.29 15.33 -9.29 c 2.91 1.95 3.69 -2.9 5.27 -4.53 c 2.72 -5 -2.44 3.91 -2.46 -1.22 c -3.87 0.7 -5.43 -0.26 -3.29 -4 c 2.77 -4.25 -2.73 -2.51 -2.12 -6.02 c -1.42 -3.76 2.84 2.19 5.06 0.81 c 2.81 0.12 5.1 -1.87 5.59 -4.6 c 0.45 -2.9 4.59 -2.7 3.28 -6.48 c -4.02 -2.43 4.25 -0.66 0.4 -3.93 c -3.52 -3.44 -5.24 -8.33 -7.23 -12.76 c -1.54 0.35 -3.08 0.71 -4.63 1.06 Z m 17.13 23.72 c 1.55 2.61 -4.64 4.26 -0.52 2.69 c 1.38 -1.92 0.21 -5.22 0.24 -7.62 c -0.74 -2.05 0.37 4.57 0.28 4.94 Z" original="#ffffff" /><path class="jqvmap-region" id="jqvmap1_dc" fill="#ffffff" stroke="#818181" stroke-linecap="round" stroke-linejoin="round" stroke-opacity="0.25" stroke-width="1" d="m 803.44 248.16 c 2.67 3.43 3.85 -1.02 0.55 -0.75 l -0.29 0.4 l -0.25 0.35 Z" original="#ffffff" /><path class="jqvmap-region" id="jqvmap1_ma" fill="#8ec6df" stroke="#818181" stroke-linecap="round" stroke-linejoin="round" stroke-opacity="0.25" stroke-width="1" d="m 877.59 144.41 c -1.04 3.1 -4.01 3.5 -6.79 4.13 c -8.62 2.32 -17.17 4.6 -25.96 6.12 c -0.11 4.77 -1.17 9.59 -0.03 14.31 c 10.66 -2.6 21.54 -4.29 32 -7.44 c 3.57 2.81 6.01 6.73 8.28 10.59 c 2.13 -0.78 0.01 -5.15 3.77 -5.38 c 2.93 -3.28 1.83 4.78 3.17 2.62 c 2.13 -3.09 6.1 -3.9 9.41 -5.21 c -0.11 -3.41 -2.21 -8.55 -6.38 -7.53 c 1.64 -0.1 4.89 0.87 4.91 3.82 c 0.85 2.24 -2.55 3.71 -4.35 4.24 c -3.37 0.51 -4.99 -1.76 -6.32 -4.47 c -1.38 -2.05 -3.58 -6.56 -6.3 -3.6 c -1.89 -1.72 -3.13 -4.04 -1.33 -6.3 c 2.3 -2.34 1.23 -6.2 -1.28 -7.16 c -0.93 0.41 -1.86 0.82 -2.79 1.24 Z M 902.25 172.69 c -1.6 2.76 3.05 -2.44 0.08 -0.32 l -0.08 0.32 Z m -11.28 1.28 c 1.59 0.78 6.09 -2.26 1.78 -2.03 c -0.59 0.68 -1.19 1.35 -1.78 2.03 Z" original="#8ec6df" /><path class="jqvmap-region" id="jqvmap1_tn" fill="#99cde5" stroke="#818181" stroke-linecap="round" stroke-linejoin="round" stroke-opacity="0.25" stroke-width="1" d="m 730.41 314.34 c -8.87 -0.11 -17.76 1.5 -26.57 2.73 c -10.24 2.86 -20.99 2.66 -31.48 4.02 c -16.34 1.45 -32.65 3.29 -48.96 4.95 c -4.57 -1.71 -0.43 5.74 -5.06 4.14 c -6.97 0.06 -13.87 1.23 -20.84 0.71 c -0.95 4.26 -1.37 9.04 -3.6 12.76 c -3.45 1.82 -4.01 5.81 -4.43 9.33 c -3.1 1.1 -4.68 2.61 -2.53 5.59 c -1.75 3.9 -0.58 5.24 3.51 3.98 c 33.91 -3.26 67.83 -6.53 101.74 -9.79 c -0.23 -2.54 0.72 -5.31 3.53 -5.69 c 3.11 -0.4 0.99 -5.41 4.88 -5.81 c 2.77 -2.02 6.49 -2.19 8.62 -5.18 c 1.76 -2.26 6.31 -1.64 5.78 -5.38 c 1.19 -1.77 3.1 -3.84 5.03 -4.85 c 1.04 -0.39 0.28 1.78 1.72 1.19 c 2.38 0.56 2.2 -4.36 5.22 -3.86 c 3.3 1.27 2.68 -2.92 4.96 -4.18 c 2.05 -0.94 3.81 -6.68 0.92 -6.59 c -0.81 0.64 -1.63 1.27 -2.44 1.91 Z" original="#99cde5" /><path class="jqvmap-region" id="jqvmap1_ar" fill="#75b5d1" stroke="#818181" stroke-linecap="round" stroke-linejoin="round" stroke-opacity="0.25" stroke-width="1" d="m 509.47 335.31 c 1.73 4.9 1.5 10.02 1.53 15.12 c 2.15 12.21 1.13 24.64 1.47 36.97 c 0.02 3.71 0.04 7.42 0.06 11.13 c 2.06 3.2 5.05 -1.45 7.69 1.47 c 1.53 1.76 -0.88 7.54 2.97 6.49 c 17.61 -0.36 35.23 -0.72 52.84 -1.08 c 1.97 -2.6 0.41 -5.9 -1.28 -8.22 c 3.3 -1.61 -1.59 -3.96 0.84 -6.53 c 0.75 -2.77 0.62 -6.34 3.78 -7.69 c -1.88 -3.07 2.08 -5.24 3.19 -7.88 c 3.77 -0.38 1.58 -3.3 2.64 -5.42 c 1.12 -2.67 2.56 -5.28 4.85 -6.58 c 1.2 -4.12 0.21 -2.67 -1.53 -5.61 c -2.76 -3.32 1.95 -3.96 2.36 -6.84 c -0.05 -1.94 3.31 -6.69 1.22 -6.75 c -2.65 0.85 -5.34 -0.18 -8.02 -0.33 c -0.09 -3.38 4.4 -3.88 4.22 -7.3 c 0.58 -3.87 -3.58 -3.68 -6.34 -3.26 c -24.17 0.77 -48.34 1.54 -72.5 2.31 Z" original="#75b5d1" /><path class="jqvmap-region" id="jqvmap1_mo" fill="#ffffff" stroke="#818181" stroke-linecap="round" stroke-linejoin="round" stroke-opacity="0.25" stroke-width="1" d="m 490.44 245.63 c -2.39 -0.46 -0.19 4.05 0.07 5.6 c 2.45 3.32 4.51 7.86 8.55 9.22 c 2.81 -0.24 3.61 2.67 2.79 4.84 c -3.22 1.64 -1.72 5.03 0.19 7.07 c 0.9 2.55 4.61 3.05 4.89 5.61 c 2.1 12.97 1.12 26.14 1.51 39.22 c 0 5.72 0.08 11.44 0.72 17.13 c 24.99 -0.94 49.98 -1.8 74.97 -2.51 c 3.02 -1.12 4.35 1.72 5.31 3.98 c 0.52 3.48 -2.86 4.46 -4.14 6.86 c 2.37 0.64 5.57 0.65 8.21 -0.08 c 1.46 -3.59 1.87 -7.45 2.38 -11.22 c 0.84 -2.83 5.27 -2.89 4.61 -6.03 c 1.37 -2.94 0.14 -4.6 -2.22 -4.28 c -2.15 -1.81 -2.84 -5.03 -2.86 -7.6 c 1.45 -2.84 -2.08 -5.07 -2.44 -7.89 c -0.66 -3.24 -5.34 -0.87 -6.89 -3.66 c -2.64 -2.34 -6.24 -3.94 -6.91 -7.76 c -0.94 -3.21 1.52 -6.47 2.17 -9.64 c 2.2 -3.53 -1.34 -4.7 -4.33 -4.5 c -2.66 0.39 -5.34 -1.15 -4.81 -4.1 c 0.86 -4.07 -4.71 -4.05 -6.43 -6.93 c -2.7 -3.4 -6.72 -6.05 -7.25 -10.67 c -1.1 -3.16 -2.12 -6.86 -0.62 -10.06 c -2.3 -1.34 -2.28 -5.77 -5.37 -4.89 c -20.69 0.77 -41.38 1.53 -62.06 2.3 Z" original="#ffffff" /><path class="jqvmap-region" id="jqvmap1_ga" fill="#a8d8ed" stroke="#818181" stroke-linecap="round" stroke-linejoin="round" stroke-opacity="0.25" stroke-width="1" d="m 672.78 356 c -0.74 7.06 4.28 12.69 5.29 19.4 c 1.36 6.57 3.44 12.96 5.03 19.44 c 0.94 4.88 2.17 9.95 5.53 13.75 c -0.85 3.5 3.37 3.17 2.59 6.44 c -1.89 4.45 -3.57 9.65 -0.84 14.13 c 0.05 2.63 0.94 5.4 -0.38 7.88 c 2.95 0.94 1.45 4.01 3.07 6.01 c 1.35 2.67 3.68 4.75 6.83 4 c 12.35 -0.01 24.69 -1.31 37.03 -1.92 c 3.32 -0.58 6.67 -0.74 10.04 -0.59 c -0.78 4.24 3.04 4.15 2.09 -0.09 c -0.9 -2.14 -2.94 -6.23 0.59 -6.62 c 3.2 0.5 6.42 0.91 9.66 1.02 c -0.84 -3.8 -0.8 -7.57 0.5 -11.27 c 0.2 -3.54 2.62 -6.73 2.21 -10.21 c -0.72 -2.93 3.26 -5.26 2.85 -8.05 c -2.19 1.37 -5.29 -0.71 -5.34 -3.19 c -0.56 -3.12 -2.71 -5.83 -6.03 -6.06 c -1.33 -3.9 -2.62 -8.17 -4.99 -11.43 c -3.12 -1.07 -6.13 -2.99 -7.17 -6.29 c -2.06 -2.33 -5.23 -3.21 -6.66 -6.16 c -2.08 -2.2 -5.24 -2.83 -7.66 -4.19 c -0.76 -2.53 -3.21 -4.09 -3.94 -6.67 c -1.36 -2.63 -2.97 -4.65 -6.15 -3.77 c -2.33 -1.57 -7.15 -3.38 -5.31 -6.97 c 2.02 -2.01 3.76 -4.11 -0.8 -3.11 c -12.68 1.51 -25.37 3.01 -38.05 4.52 Z" original="#a8d8ed" /><path class="jqvmap-region" id="jqvmap1_sc" fill="#bee7fa" stroke="#818181" stroke-linecap="round" stroke-linejoin="round" stroke-opacity="0.25" stroke-width="1" d="m 737.03 343.19 c -4.26 0.4 -8.64 0.43 -12.24 3.07 c -3.2 1.75 -6.48 3.19 -9.88 4.49 c 2.21 3.31 -4.28 2.74 -2.34 6.44 c 2.27 2.24 5.2 4.13 8.5 3.28 c 2.53 3.15 3.83 6.94 6.53 9.88 c 0.91 2.76 5.13 2.06 6.85 4.46 c 2.18 1.38 2.96 4.25 5.62 5.01 c 2.99 1.95 3.36 6.38 7.26 7.24 c 3.61 0.62 3.77 4.77 5.34 7.38 c 0.38 3.35 2.02 4.84 4.79 5.96 c 3.36 1.79 1.76 7.23 5.67 8.16 c 3.63 -1.38 5.8 -4.63 8.38 -7.34 c -2.35 -3.93 0.29 -3.32 3.01 -4.44 c 1.95 -2.4 5.02 -3.3 6.25 -6.28 c 2.17 -2 3.86 -4.52 5.4 -6.9 c 2.81 -0.17 3.42 -3.58 4.92 -5.03 c -0.28 -4.13 1.3 -7.89 3.12 -11.47 c 1.03 -2.11 7.03 -4.5 3.47 -6.34 c -5.97 -5.35 -12.78 -9.5 -19.71 -13.47 c -4.45 -2.68 -9.74 -0.07 -14.57 -0.06 c -2.57 -0.23 -6.63 2.48 -7.32 -1.28 c -1.66 -4.5 -6.93 -2.82 -10.63 -2.96 c -2.8 0.07 -5.61 0.14 -8.41 0.21 Z" original="#bee7fa" /><path class="jqvmap-region" id="jqvmap1_ky" fill="#ffffff" stroke="#818181" stroke-linecap="round" stroke-linejoin="round" stroke-opacity="0.25" stroke-width="1" d="m 675 267.5 c -2.76 -0.77 -6 1.11 -3.38 3.78 c 1.52 3.15 -3.12 4.12 -5.19 5.27 c -2.94 0.53 -4.71 1.29 -4.3 4.82 c -1.15 2.66 -5.3 3.24 -6.32 6.32 c -2.16 1.4 0.74 6.22 -2.84 5.92 c -3.06 0.61 -4.36 -2.79 -7.09 0.11 c -2.26 0.51 -1.1 6.98 -3.85 3.1 c -2.27 -2.54 -5.57 0.14 -6.16 2.81 c -1.91 1.07 -3.4 -3.73 -6.02 -1.91 c -3.32 0.61 -7.48 0.47 -9.92 2.91 c 0.08 2.65 -3.39 3.78 -1.7 6.05 c 2.34 2.66 -2.23 2.68 -3.86 3.3 c -3.57 1.35 -0.68 4.35 -0.76 6.72 c 0.33 3.45 -3.76 1.44 -5.49 0.72 c -2.5 -2.29 -6.26 -0.38 -7.13 2.53 c 2.86 2.28 -0.04 4.76 0.41 7.66 c -3.47 2.04 -3.19 2.73 0.94 2.35 c 5.84 0.01 11.64 -0.95 17.5 -0.76 c -0.7 -3.74 0.98 -4.99 4.56 -4.19 c 24.33 -3.01 48.82 -4.7 73.16 -7.43 c 4.3 -0.7 8.2 -2.38 11.75 -4.88 c 3.3 -0.8 4.04 -2.71 5.12 -5.35 c 3.46 -4.09 7.13 -8.06 10.79 -12 c -3.27 -1.24 -3.03 -5.51 -6.21 -6.95 c -2.6 -1.25 -2.07 -4.66 -5.16 -5.36 c -2.38 -2.64 0.8 -7.28 -3.02 -8.87 c -3.02 -0.01 -2.37 -4.65 -4.57 -3.51 c -2.95 0.61 -3.67 4.78 -7.02 3.29 c -2.69 -0.23 -5.51 -1.19 -7.82 0.71 c -3 0.83 -3.99 -3.61 -7.44 -2.06 c -3.51 0.82 -2.17 -5.19 -5.65 -5.26 C 677.17 266.43 676.21 267.17 675 267.5 Z" original="#ffffff" /><path class="jqvmap-region" id="jqvmap1_al" fill="#a9d9ee" stroke="#818181" stroke-linecap="round" stroke-linejoin="round" stroke-opacity="0.25" stroke-width="1" d="m 628.53 359.63 c -0.2 14.37 0.12 28.75 -0.54 43.12 c -0.04 9.01 -0.88 18.1 -0.07 27.07 c 1.55 10 2.94 20.01 3.85 30.09 c 3.07 1.09 3.69 -1.92 4.4 -4.18 c -0.3 -3.89 4.27 -3.02 4.89 -0.04 c 0.72 2.06 4.08 5.27 0.77 6.65 c -0.15 0.92 6.17 -0.9 5.88 -2.89 c -0.44 -3.01 0.64 -6.86 -2.87 -8.19 c -2.29 -0.88 -3.03 -5.59 -0.32 -5.67 c 14.08 -1.86 28.21 -3.59 42.35 -4.8 c 2.7 1.07 6.76 -0.25 2.97 -2.5 c -1.8 -2 0.95 -5.03 -0.27 -7.65 c -0.31 -3.1 -2.63 -5.9 -1.31 -9.15 c 0.01 -2.92 2.49 -5.36 1.93 -8.3 c -3.52 -0.45 -1.34 -5.11 -4.26 -6.7 c -3.48 -5.82 -3.36 -13.04 -5.96 -19.21 c -2.02 -8.09 -3.34 -16.41 -7.25 -23.88 c -0.51 -2.39 -1.08 -4.85 -0.72 -7.31 c -14.49 1.18 -28.98 2.35 -43.47 3.53 Z" original="#a9d9ee" /><path class="jqvmap-region" id="jqvmap1_la" fill="#afddf1" stroke="#818181" stroke-linecap="round" stroke-linejoin="round" stroke-opacity="0.25" stroke-width="1" d="m 521.09 407.28 c 0.1 7.53 -0.24 15.32 1.67 22.61 c 2.08 2.49 2.82 5.51 3.15 8.67 c 1.87 2.78 5.27 4.95 4.59 8.72 c 1.61 2.18 -0.21 5.69 0.08 8.38 c 0.42 2.64 -4.36 4.89 -2.01 7.12 c 1.07 2.26 -0.92 5.31 -0.53 7.95 c 0.38 3.22 -2.37 5.7 -1.55 8.93 c 5.18 -2.4 10.98 -0.86 16.47 -1.09 c 5.72 1.7 11.56 4.87 17.56 4.26 c 2.93 -2.25 5.94 0.36 8.98 0.93 c 1.08 -3.4 -4.22 -0.81 -5.8 -2.2 c -1.91 -0.36 -2.89 -2.3 -1.17 -3.4 c 2.08 -1.1 4.08 -1.09 5.66 0.04 c 2.15 -1.39 5.6 -0.24 6.26 2.38 c -0.33 3.62 3.42 1.7 5.28 3.15 c 3.83 1.5 -1.41 4.07 0.83 5.37 c 2.88 0.97 5.73 2.94 8.62 3.29 c 3.51 -0.05 2.81 -4.53 6.47 -4.17 c 1.83 -2.9 4.44 -0.25 4.39 2.31 c 1.53 1.64 4 -3.68 1.98 -3.66 c 0.22 -3.37 2.17 -3.21 4.31 -5.41 c 1.59 0.95 0.91 2.82 1.41 4.16 c 3.33 0.39 7.44 1.09 9.34 4.06 c 2.79 0.08 5.17 1.1 5.56 -2.56 c -2.68 -0.27 -4.15 -3.88 -7.35 -3.19 c -2.31 0.06 -6.3 -1.62 -6.15 -3.77 c 1.62 -3.62 2.23 -1.74 2.03 -4.38 c 2.88 1.09 5.69 -2.27 3.22 -4.47 c 0.46 -4.62 -3.73 -0.15 -3.34 2.19 c -1.36 1.21 -6.35 -0.96 -4.6 -3.27 c 1.71 -1.84 4.2 -4.5 2.19 -6.95 c -0.13 -3.26 -2.69 -5.21 -4.47 -7.38 c 0.52 -2.7 2.26 -7.35 -2.36 -5.46 c -10.43 1.28 -20.97 0.69 -31.45 1.12 c -1.61 -3.72 -0.02 -7.76 0.16 -11.59 c 2.66 -4.86 5.46 -9.65 8.25 -14.44 c -2.04 -2.82 3.52 -4.45 -0.74 -6.48 c -0.53 -2.15 -1.29 -4.65 -2.32 -6.83 c -0.08 -3.1 0.9 -7.3 -3.62 -5.79 c -17 0.28 -34 0.57 -51 0.85 Z" original="#afddf1" /><path class="jqvmap-region" id="jqvmap1_ms" fill="#ffffff" stroke="#818181" stroke-linecap="round" stroke-linejoin="round" stroke-opacity="0.25" stroke-width="1" d="m 591.03 363.5 c -1.45 1.74 -4.03 3.15 -4.63 6.03 c -1.4 2.22 1.43 5.74 -2.69 6.07 c -1.48 1.97 -4.77 4.42 -3.4 7.17 c -1.36 1.83 -3.59 3.95 -3.48 7.01 c -2.16 2.66 1.55 5.28 -0.27 7.12 c -0.45 1.84 2.25 4.42 1.35 7.03 c -1.92 2.71 -1.63 6.55 -0.61 9.53 c 1.6 2.4 0.78 5.54 3.73 6.94 c -0.95 2.53 -1.41 3.75 -1.87 6.31 c -2.55 4.96 -6.07 9.62 -7.89 14.84 c 0.01 2.98 -1.44 6.14 -0.14 8.97 c 11.4 -0.36 22.87 0.25 34.19 -1.5 c 2.75 2.21 -2.19 6.39 1.33 8.15 c 2.82 1.62 2.28 5.18 3.89 7.63 c 2.07 -1.86 2.51 -6.19 5.82 -4.07 c 3.21 -0.67 6.85 -3.02 9.89 -0.64 c 3.62 0.73 6.01 -0.27 4.42 -4.26 c -0.81 -10.1 -2.99 -20.07 -3.84 -30.15 c 0.14 -21.99 1.48 -43.98 0.64 -65.97 c -12.15 1.26 -24.29 2.52 -36.44 3.78 Z" original="#ffffff" /><path class="jqvmap-region" id="jqvmap1_ia" fill="#ffffff" stroke="#818181" stroke-linecap="round" stroke-linejoin="round" stroke-opacity="0.25" stroke-width="1" d="m 476.25 181.16 c -3.42 -0.05 -2.16 5.68 0.72 6.29 c 0.54 2.07 -0.75 5.06 -1.41 7.35 c -2.13 2.82 -0.93 5.45 1.04 7.92 c 1.22 4.34 2.24 8.85 4.05 13.06 c 0.6 3.22 1.29 6.38 3.41 9 c 0.02 3.49 1.27 6.69 2.3 9.91 c -0.04 3.54 0.03 7.05 2.08 10.09 c 22.2 -1.02 44.44 -1.75 66.66 -2.63 c 0.77 1.43 3.25 7.11 4.37 4.25 c -0.96 -2.5 1.19 -4.52 3.57 -4.72 c -0.88 -2.62 1.19 -4.59 2.5 -6.28 c 1.27 -2.92 -1.39 -4.02 -2.41 -6.31 c 0.69 -2.9 1.79 -5.3 5.13 -5.46 c 2.88 -0.83 6.57 -1.81 6.65 -5.41 c 1.76 -3.04 3.73 -8.01 -0.26 -10.18 c -2.74 -1.06 -1.75 -5.27 -5.21 -5.14 c -0.64 -1.97 -0.85 -4.76 -4.19 -4.21 c -2.75 -0.8 -4.55 -3.47 -5.37 -6 c -1.36 -2.89 2.01 -4.72 1.65 -7.28 c -3.82 -0.4 -1.19 -6.5 -5.03 -5.47 c -26.75 0.41 -53.5 0.81 -80.25 1.22 Z" original="#ffffff" /><path class="jqvmap-region" id="jqvmap1_mn" fill="#b0ddf2" stroke="#818181" stroke-linecap="round" stroke-linejoin="round" stroke-opacity="0.25" stroke-width="1" d="m 497.03 53.84 c -0.69 2.52 0.93 7.42 -1.31 8.34 c -9.65 -0.01 -19.29 -0.02 -28.94 -0.03 c 1.16 2.87 2.18 5.76 0.97 8.81 c 0.05 5.74 -0.79 11.86 2.51 16.95 c 2.04 3.78 0.64 8.47 1.5 12.6 c 0.82 6.84 1.76 13.67 3.55 20.32 c 0.05 3.83 0.88 7.8 0.03 11.53 c -1.57 1.74 -4.91 3.29 -2.22 5.78 c 1.89 1.83 5.05 2.94 4.58 6.1 c 0.28 11.9 0.25 23.83 0.42 35.75 c 26.72 -0.38 53.44 -0.75 80.16 -1.13 c -0.15 -3.62 -0.46 -7.93 -4.36 -9.47 c -3.02 -1.66 -6.24 -3.1 -7.63 -6.5 c -0.72 -3.61 -5.32 -1.16 -6.05 -4.61 c -1.56 -2.09 -5.29 -0.37 -6.57 -3.78 c -1.66 -2.1 -0.52 -5.5 -1.1 -8.1 c -1.34 -2.93 1.65 -4.99 1.47 -7.54 c -0.2 -3.22 -5.36 -3.85 -2.24 -7.43 c 0.41 -4.47 5.39 -5.33 7.61 -8.59 c 0.24 -3.87 -0.73 -8.14 0.52 -11.77 c 1.76 -3.14 5.17 -5.1 8.28 -6.26 c 1.92 -2.08 3.66 -4.57 6.13 -5.81 c 2.54 -4.97 6.04 -9.99 11.81 -11.4 c 4.55 -1.98 9.12 -3.92 13.6 -6.04 c 0.73 -3.15 -3.7 -0.18 -5.06 0.03 c -0.82 -3.87 -4.2 -3.09 -7.28 -2.87 c -2.25 -0.87 -5.34 2.83 -6 -0.66 c -1.13 -3.5 -4.51 0.72 -5.88 2.13 c -2.33 1.63 -6.22 1.16 -8.06 -0.56 c 0.94 -3.05 -4.61 -0.39 -4.53 -3.96 c -0.16 -2.3 -3.48 1.3 -5.77 -1.2 c -3.04 -0.91 -5.5 -3.22 -8.29 -4.38 c -2.49 0.4 -5.86 -2.38 -6.7 1.5 c -1.17 0.79 -7.15 1.83 -5.93 -1.54 c -2.99 0.03 -6.03 -0.05 -7.53 -1.75 c -2.6 0.59 -5.72 -0.41 -5.9 -3.43 c -0.88 -3.28 -1.44 -6.61 -1.88 -9.98 c -1.23 -0.6 -2.54 -1.02 -3.91 -1.06 Z" original="#b0ddf2" /><path class="jqvmap-region" id="jqvmap1_ok" fill="#666666" fill-opacity="0.7" stroke="#818181" stroke-linecap="round" stroke-linejoin="round" stroke-opacity="0.25" stroke-width="1" d="m 363.31 330.03 c 17.51 1.12 35.04 1.73 52.56 2.47 c -1.37 13.62 -2.89 27.23 -2.83 40.93 c -0.92 3.93 3.48 5.78 6.14 7.66 c 0.56 -5.56 2.96 1.46 4.25 -1.31 c 0.93 -1.5 5.57 1.68 3.39 4.42 c 1.59 0.66 4.76 0.51 6.73 1.82 c 2.79 -0.99 5.16 3.32 7.03 1.26 c 1.82 -1.93 5.59 -0.31 6.5 2.02 c 2.44 0.79 1.71 5.84 4.76 3.05 c 1.39 -1.65 6.25 -1.17 6.69 1.21 c 1.28 1.5 5.69 3.72 7.39 1.92 c 0.33 -2.75 3.38 -5.95 4.59 -1.83 c 3.59 0.38 6.96 2 10.46 3 c 2.28 -1.86 2.44 -4.68 6.53 -3.41 c 2.53 1.92 3.8 -1.41 6.31 -1.16 c 0.85 2.42 5.2 2.41 6.19 -0.5 c 3.2 -0.2 3.66 3.71 6.55 4.35 c 1.86 0.4 6.31 3.63 5.36 0.18 c -0.32 -12.27 0.1 -24.59 -0.7 -36.82 c -1.15 -6.03 -1.01 -12.18 -1.43 -18.25 c -1.32 -5.29 -2.05 -10.73 -2.07 -16.18 c -20.01 0.66 -40.04 -0.04 -60.06 -0.22 c -27.85 -1.32 -55.73 -2.3 -83.53 -4.56 c -0.27 3.31 -0.54 6.63 -0.81 9.94 Z" original="#ffffff" /><path class="jqvmap-region" id="jqvmap1_tx" fill="#ffffff" stroke="#818181" stroke-linecap="round" stroke-linejoin="round" stroke-opacity="0.25" stroke-width="1" d="m 359.47 330.97 c 2.34 -0.11 -0.86 -1.81 0 0 Z m 0.72 18.31 c -1.64 20.84 -2.52 41.75 -4.68 62.55 c -0.51 4.33 -0.99 8.66 -1.51 12.98 c -17.84 -0.87 -35.67 -1.93 -53.42 -3.89 c -4.16 -0.41 -8.32 -0.76 -12.48 -1.11 c -0.67 3.74 2.27 3.68 4.04 6.12 c 2.26 1.83 1.13 6.03 4.65 6.5 c 3.52 0.48 2.9 4.6 5.45 6.34 c 3.38 3.15 5.5 7.91 10.27 9.06 c 1.91 1.27 4 3.22 4.53 5.46 c 0.69 3.96 4.53 7.02 3.47 11.33 c -0.88 5.15 2.22 9.63 5.93 12.88 c 2.18 2.95 5.14 4.76 8.63 5.78 c 1.88 1.95 3.01 3.88 5.72 4.88 c 2.59 0.18 5.38 4.34 7.35 1.18 c 2.59 -3.14 5.48 -6.41 6.05 -10.55 c 1.26 -2.82 3.58 -4.32 6.5 -5.06 c 2.72 -1.59 5.32 -2.13 7.47 0.62 c 4.91 0.57 10.2 0.53 14.79 2.22 c 2.83 1.43 2.56 4.53 5.17 6.33 c 1.73 2.05 4.83 3.37 5.81 5.82 c 1.37 2.07 2.66 4.26 2.69 7.03 c 1.62 4.34 4.17 8.51 5.31 12.94 c -0.24 2.77 4.65 2.49 4.95 5.51 c 2.24 4.08 4.37 9.17 9.21 10.49 c 3.28 2 0.03 5.04 0.91 7.5 c 3.28 0.87 -0.01 4.68 0.94 6.67 c 2.53 1.36 4.37 3.2 4.22 6.44 c 0.39 3.34 2.13 6.83 5.69 7.54 c 3.01 1.93 6.69 2.13 9.87 3.4 c 2.28 1.79 5.15 4.09 8.16 2.83 c 3.46 0.46 6.77 1.29 9.37 3.75 c 1.43 2.54 6.51 -0.91 4.31 -2.89 c -2.04 -3.39 -1.3 -7.79 -2.83 -11.46 c -0.63 -3.07 -2.39 -5.95 -0.99 -9.1 c 1.17 -4.9 2.87 -9.76 4.04 -14.71 c -3.37 -1.01 -2.07 -5.47 1.21 -4.71 c 3.99 0.42 3.65 -6.43 7.81 -6.05 c 5.25 -1.56 9.07 -6 14.16 -8.05 c 6.91 -2.81 13.62 -6.46 18.72 -12.05 c 2.58 -2.98 7.09 -3.95 8.69 -7.75 c 5 -2.22 9.8 -4.93 15.22 -6 c -0.97 -2.64 0.52 -4.86 1.32 -7.22 c 0.39 -2.99 0.19 -6.07 1.18 -8.94 c -3.15 -2.27 0.38 -4.91 1.38 -7.41 c -0.2 -2.8 1.42 -6.25 0.09 -8.66 c 0.3 -2.93 -1.49 -5.14 -3.35 -7.29 c -2.46 -2.64 -1.11 -6.91 -3.87 -9.52 c -2.53 -4.57 -1.59 -10.19 -2.25 -15.22 c 0.02 -5 0.19 -10 -0.5 -14.97 c -2.63 -2.31 -5.52 2.33 -7.52 -1.37 c -3.1 -2.07 -7.66 -2.1 -9.73 -5.68 c -2.31 -2.48 -3.82 2.84 -7.18 0.96 c -1.91 -2.73 -3.59 0.03 -5.98 0.18 c -2.27 -1.15 -6.07 -1.48 -6.09 1.76 c -2.76 2.37 -5.95 -0.93 -8.94 -1.28 c -3 1.38 -5.23 -3.83 -6.3 -1.87 c -0.15 2.66 -2.52 5.1 -5.13 3.34 c -3.23 -0.15 -4.91 -2.49 -6.57 -3.89 c -2.95 -1.74 -4.3 2.32 -6.94 0.88 c -1.48 -1.39 -1.87 -3.6 -3.92 -5.65 c -3.06 -2.83 -5.03 3.17 -7.13 0.23 c -2.05 -2.11 -5.57 -0.83 -7.94 -2.69 c -3.56 0.59 -5.54 -0.24 -4.13 -4.11 c -1.89 -1.85 -2.28 1.21 -4.77 -0.14 c -0.59 -0.41 -3.45 1.78 -5 -1.11 c -1.9 -1.9 -5.13 -3.22 -4.18 -6.45 c 0.03 -10.58 0.25 -21.15 1.66 -31.65 c 0.3 -2.99 0.6 -5.98 0.89 -8.98 c -17.65 -0.63 -35.3 -1.27 -52.94 -2.22 c -0.52 6.07 -1.04 12.15 -1.56 18.22 Z M 466.53 518.63 c -5.2 7.17 2.93 -3.27 0 0 Z" original="#ffffff" /><path class="jqvmap-region" id="jqvmap1_nm" fill="#ffffff" fill-opacity="1" stroke="#818181" stroke-linecap="round" stroke-linejoin="round" stroke-opacity="0.25" stroke-width="1" d="m 242.72 428.78 c 4.82 0.63 9.65 1.25 14.47 1.88 c 0.43 -3.33 0.85 -6.67 1.28 -10 c 9.7 0.89 19.4 1.86 29.09 2.78 c -0.9 -3.14 -1.39 -5.98 2.84 -4.5 c 18.29 1.28 36.48 3.79 54.81 4.49 c 2.45 -0.6 7.66 2.13 7.99 -1.01 c 3.06 -22.93 3.75 -46.09 5.59 -69.14 c 0.54 -7.79 1.39 -15.56 2.02 -23.34 c 3.21 0.65 1.17 -4.81 2.07 -6.86 c 1.79 -4.38 -2.87 -3.37 -5.73 -3.85 c -32.35 -3.3 -64.71 -6.59 -97.06 -9.89 c -5.79 39.81 -11.58 79.63 -17.38 119.44 Z" original="#ffffff" /><path class="jqvmap-region" id="jqvmap1_ks" fill="#ffffff" stroke="#818181" stroke-linecap="round" stroke-linejoin="round" stroke-opacity="0.25" stroke-width="1" d="m 380.53 320.34 c 25.06 1.17 50.11 2.71 75.19 3.35 c 17.22 0.07 34.44 0.63 51.66 0.18 c -0.25 -12.69 0.23 -25.42 -0.47 -38.08 c -0.61 -2.83 -0.17 -6.27 -1.38 -8.74 c -3.04 -2.03 -6.02 -5.19 -6.68 -8.77 c -0.43 -2.51 4.3 -4.59 1.29 -6.64 c -3.02 0.54 -4.05 -3.34 -7.17 -2.43 c -36.21 -0.82 -72.43 -1.33 -108.63 -2.5 c -1.27 21.21 -2.54 42.42 -3.81 63.63 Z" original="#ffffff" /><path class="jqvmap-region" id="jqvmap1_ne" fill="#b0def2" stroke="#818181" stroke-linecap="round" stroke-linejoin="round" stroke-opacity="0.25" stroke-width="1" d="m 353.38 230.59 c 10.76 0.96 21.27 2.72 32.03 3.66 c -0.37 7.11 -0.71 14.23 -1.06 21.34 c 36.49 1.29 73 1.84 109.5 2.56 c -0.31 -1.17 -3.13 -4.05 -4.03 -6.15 c -1.99 -2.11 -0.36 -5.13 -2.45 -7.34 c -2.42 -3.19 -1.66 -7.14 -2.2 -10.79 c -1.66 -2.86 -1.45 -6.25 -2.29 -9.26 c -2.94 -2.85 -2.34 -7.01 -3.95 -10.49 c -1.13 -3.1 -2.18 -6.19 -2.62 -9.47 c -3.51 1.32 -2.89 -3.07 -4.85 -4.29 c -2.4 -1.68 -5.57 -1.85 -7.72 -3.93 c -3.79 0.07 -7.65 1.04 -11.13 1.94 c -2.52 -2.2 -6.03 -3.13 -7.91 -6.06 c -13.61 0.96 -27.23 -0.49 -40.83 -1.11 c -15.5 -1.05 -31.02 -1.79 -46.51 -2.86 c -1.67 14.08 -2.83 28.17 -4 42.25 Z" original="#b0def2" /><path class="jqvmap-region" id="jqvmap1_sd" fill="#93c9e2" stroke="#818181" stroke-linecap="round" stroke-linejoin="round" stroke-opacity="0.25" stroke-width="1" d="m 357.44 187.41 c 25.68 1.58 51.37 3.15 77.06 4.26 c 3.58 -0.01 7.34 -0.51 10.81 -0.23 c 1.8 2.9 5.24 3.85 7.69 6 c 3.55 -1.45 7.52 -1.89 11.25 -1.91 c 2.45 2.67 7.26 2.29 9.15 5.33 c 1.32 4.76 3.27 1.86 0.18 -1.15 c -1.53 -2.17 1.46 -4.6 1.56 -6.99 c 1.2 -2.87 1.38 -5.28 -1.58 -6.75 c -0.5 -2.04 -0.73 -6.65 2.41 -5.84 c 2.62 -0.28 0.39 -5.28 1.06 -7.5 c -0.32 -9.7 0.19 -19.47 -0.64 -29.13 c -0.24 -3.58 -6.26 -4.19 -5.42 -8.4 c 1.09 -1.22 5.81 -4.38 2.75 -5.4 c -27.23 -0.89 -54.5 -1.01 -81.67 -3.15 c -9.79 -0.62 -19.57 -1.24 -29.36 -1.86 c -1.75 20.91 -3.5 41.81 -5.25 62.72 Z" original="#93c9e2" /><path class="jqvmap-region" id="jqvmap1_nd" fill="#ffffff" stroke="#818181" stroke-linecap="round" stroke-linejoin="round" stroke-opacity="0.25" stroke-width="1" d="m 362.88 123.72 c 26.46 1.49 52.89 3.7 79.4 3.91 c 10.84 0.26 21.67 0.52 32.51 0.78 c 0.01 -5.53 -1.38 -10.82 -2.5 -16.17 c -1.27 -7.42 -2.05 -14.89 -2.13 -22.42 c -2.61 -4.16 -4.11 -9 -3.48 -13.94 c -0.44 -3.25 0.67 -6.57 0.3 -9.7 c -0.15 -4.01 -2.83 -4.61 -6.31 -4.12 c -25.15 -0.47 -50.33 -1.05 -75.41 -3.06 c -5.17 -0.49 -10.33 -0.98 -15.5 -1.47 c -2.29 22.06 -4.58 44.13 -6.88 66.19 Z" original="#ffffff" /><path class="jqvmap-region" id="jqvmap1_wy" fill="#ffffff" fill-opacity="1" stroke="#818181" stroke-linecap="round" stroke-linejoin="round" stroke-opacity="0.25" stroke-width="1" d="m 240.16 217.84 c 37.4 4.49 74.29 8.23 111.69 12.72 c 2.5 -29.2 5.5 -57.65 8 -86.84 c -35.26 -4.45 -70.52 -8.9 -105.78 -13.34 c -4.64 29.16 -9.27 58.31 -13.91 87.47 Z" original="#ffffff" /><path class="jqvmap-region" id="jqvmap1_mt" fill="#addbf0" fill-opacity="1" stroke="#818181" stroke-linecap="round" stroke-linejoin="round" stroke-opacity="0.25" stroke-width="1" d="m 192.59 52.19 c 0.84 2.76 3.25 5.4 3.2 8.23 c -1.5 2.79 -1 5.49 0.52 8.15 c 3.4 0.39 4.18 3.44 5.26 6.16 c 1.43 3.34 2.55 6.88 5.37 9.34 c 0.88 2.21 5.27 1.18 4.34 4.72 c -2.23 6.21 -5.45 12.23 -7.06 18.56 c 0.02 3.34 3.4 5.25 5.73 2.22 c 1.61 -2.43 5.63 -3.04 4.69 0.97 c -0.5 5.3 1.81 10.35 2.59 15.53 c 1.9 2 5.27 3.44 5.68 6.31 c -0.71 1.91 -0.39 8.78 2.32 5.14 c 1.85 -1.89 4.93 -0.29 6.85 0.86 c 3.28 -1.63 7.26 -1.21 10.34 0.69 c 3.69 0.41 1.52 -5 5.95 -4.08 c 2.71 -0.42 2.01 6.69 3.21 4.1 c 0.56 -3.26 1.09 -6.54 1.68 -9.8 c 35.57 4.49 71.15 8.96 106.72 13.44 c 2.9 -28.44 5.79 -56.88 8.69 -85.31 c -28.84 -2.29 -57.55 -5.91 -86.19 -9.99 c -26.71 -4.12 -53.36 -8.71 -79.73 -14.68 c -3.05 -0.61 -6.99 -2.59 -6.53 2.19 c -1.21 5.75 -2.42 11.51 -3.62 17.26 Z" original="#addbf0" /><path class="jqvmap-region" id="jqvmap1_co" fill="#79b8d4" fill-opacity="1" stroke="#818181" stroke-linecap="round" stroke-linejoin="round" stroke-opacity="0.25" stroke-width="1" d="m 260.17 308.53 c 39.89 4.09 79.51 8.26 119.39 11.91 c 1.61 -28.46 3.23 -56.92 4.84 -85.38 c -37.47 -4.17 -74.94 -8.33 -112.41 -12.5 c -4.03 28.98 -7.8 56.99 -11.83 85.97 Z" original="#79b8d4" /><path class="jqvmap-region" id="jqvmap1_id" fill="#65aac9" stroke="#818181" stroke-linecap="round" stroke-linejoin="round" stroke-opacity="0.25" stroke-width="1" d="m 169.84 91.72 c 0.52 3.07 2.27 5.25 4.94 6.78 c 0.4 3.02 -0.61 5.46 -3.03 7.31 c -2.3 2.7 -4.38 5.97 -6.09 8.83 c 0.39 2.93 -2.57 3.54 -4.23 4.8 c -1.77 2.31 -4.28 4.3 -3.93 7.5 c -0.64 2.43 4.69 0.57 4.09 4.34 c -5.19 11.17 -6.78 23.51 -10.13 35.32 c -0.79 3.16 -1.22 4.91 -2.01 8.08 c 56.92 12.84 62.26 13.45 93.58 19.41 c 2.75 -17.6 5.5 -35.21 8.25 -52.81 c -2.66 -0.84 -0.58 -6.52 -4.23 -4.97 c -1.24 1.7 -1.62 4.95 -5.17 3.47 c -3.11 -1.99 -6.81 -1.34 -10.13 -0.56 c -2.53 -1.76 -5.91 -2.01 -7.69 0.88 c -1.75 -0.05 -3.29 -3.39 -2.79 -5.36 c 1.91 -3.98 -2.85 -5.89 -5.05 -8.27 c -0.98 -5.88 -3.48 -11.64 -2.5 -17.69 c -1.86 -0.01 -4.25 2.69 -6.47 3.63 c -2.21 0.18 -4.52 -3.09 -4.1 -5.31 c 1.19 -5.37 4.07 -10.37 5.88 -15.6 c 1.95 -2.64 1.12 -5.57 -2.41 -5.62 c -1.55 -3.37 -4.92 -5.66 -5.61 -9.53 c -1.31 -2.63 -1.42 -6.47 -5.06 -6.76 c -0.99 -1.85 -3.18 -4.47 -1.91 -6.73 c 2.09 -2.98 -0.34 -5.7 -1.53 -8.5 c -2.13 -3.05 0.55 -6.68 0.67 -10.01 c 0.9 -4.35 1.8 -8.69 2.69 -13.04 c -4.18 -0.78 -8.35 -1.56 -12.53 -2.34 c -4.5 20.92 -9 41.83 -13.5 62.75 Z" original="#65aac9" /><path class="jqvmap-region" id="jqvmap1_ut" fill="#ffffff" stroke="#818181" stroke-linecap="round" stroke-linejoin="round" stroke-opacity="0.25" stroke-width="1" d="m 176.34 297.78 c 27.57 3.92 55.15 7.83 82.72 11.75 c 4.04 -29.08 8.08 -58.17 12.13 -87.25 c -10.83 -1.14 -21.65 -2.33 -32.47 -3.59 c 1.43 -7.93 2.82 -15.85 3.84 -23.84 c -15.27 -2.85 -30.54 -5.71 -45.81 -8.56 c -6.8 37.17 -13.6 74.33 -20.41 111.5 Z" original="#ffffff" /><path class="jqvmap-region" id="jqvmap1_az" fill="#96cce4" stroke="#818181" stroke-linecap="round" stroke-linejoin="round" stroke-opacity="0.25" stroke-width="1" d="m 173.19 314.66 c -2.49 -0.06 -3.05 4.43 -6.38 2.94 c -0.74 -2.87 -3.59 -2.82 -5.59 -4.22 c -3.74 0.74 -2.37 4.58 -2.68 7.41 c -0.52 5.04 -0.42 10.21 -0.89 15.22 c -2.19 2.33 -2.44 5.78 -0.24 8.19 c 2.32 2.62 0.58 7.52 4.09 9.09 c 0.98 3.59 -2.89 4.83 -5.41 6.09 c -3.29 2.46 -3.28 6.86 -3.88 10.47 c -1.25 2.44 -4.81 2.39 -4.92 4.97 c 0.47 2.18 6.18 0.38 3.42 4.54 c -0.65 2.75 -3.14 3.45 -5.62 3.78 c -3.6 1.45 -2.69 4.7 0.77 5.44 c 14.69 7.84 28.52 17.13 43.01 25.32 c 5.79 3.19 11.27 7.21 17.27 9.88 c 11.71 2.83 23.75 3.45 35.68 4.87 c 5.71 -39.38 11.42 -78.75 17.13 -118.13 c -27.58 -3.93 -55.17 -7.85 -82.75 -11.78 c -1 5.31 -2 10.63 -3 15.94 Z" original="#96cce4" /><path class="jqvmap-region" id="jqvmap1_nv" fill="#ffffff" stroke="#818181" stroke-linecap="round" stroke-linejoin="round" stroke-opacity="0.25" stroke-width="1" d="m 84.84 232.41 c 22.96 34.61 45.92 69.23 68.88 103.84 c 3.66 2.65 3.19 -3.47 3.27 -5.71 c 0.37 -5.43 0.36 -11.24 1.08 -16.44 c 2.05 -2.03 4.26 -2 6.08 -0.39 c 2.62 -0.16 3.86 5.9 6.03 1.27 c 2.74 -0.82 2.66 -3.64 3.13 -6.41 c 7.5 -40.87 15 -81.75 22.51 -122.62 c -30.72 -6.81 -61.44 -13.63 -92.16 -20.44 c -6.27 22.3 -12.54 44.6 -18.81 66.91 Z" original="#ffffff" /><path class="jqvmap-region" id="jqvmap1_or" fill="#ffffff" stroke="#818181" stroke-linecap="round" stroke-linejoin="round" stroke-opacity="0.25" stroke-width="1" d="M 67.16 62.81 C 64.24 70.42 62.73 78.57 58.5 85.63 c -2.86 8.53 -5.96 16.93 -10.17 24.89 c -3.06 6.61 -8 12.31 -11.32 18.7 c -1.03 6.5 -0.64 13.05 -0.36 19.6 c 37.23 8.7 74.46 16.69 111.69 25.39 c 3.45 -13.15 6.51 -25.75 10.19 -38.81 c 1.2 -2.48 3.15 -6.06 -1.1 -5.42 c -2.58 -1.78 -0.23 -4.45 -0.38 -6.91 c 2.3 -2.82 4.36 -5.82 7.47 -7.75 c 1.75 -5.08 5.43 -9.19 9.03 -13.06 c 1.66 -3.48 -2.46 -3.92 -3.39 -6.47 c -0.25 -3.79 -3.56 -4.26 -6.62 -4.99 c -7.63 -2.2 -15.38 -4.2 -23.21 -5.54 c -4.9 0.03 -9.79 0.06 -14.69 0.09 c -0.95 -2.84 -4.67 1.86 -7.11 0.5 c -2.61 0.82 -4.42 -2.63 -6.57 -1.28 c -2.61 -0.06 -5.23 0.11 -7.15 -1.87 c -3.09 -1.53 -6.33 -1.81 -9.5 -3.1 c -1.87 3.03 -5.69 1.22 -8.53 1.31 c -1.65 -1.64 -5.79 -3.02 -6.03 -4.81 c 1.1 -2.44 0.78 -5.93 0.53 -8.59 c -0.42 -3.92 -4.72 -2.63 -6.25 -4.49 C 74.59 58.67 69.45 62.45 67.16 62.81 Z" original="#ffffff" /><path class="jqvmap-region" id="jqvmap1_wa" fill="#ffffff" stroke="#818181" stroke-linecap="round" stroke-linejoin="round" stroke-opacity="0.25" stroke-width="1" d="m 101.38 8.72 c 0.05 2.75 2.93 5.39 3.25 8.16 c -1.92 2.33 -1.78 5.19 -1.32 7.71 c -1.81 2.64 1.63 4.82 0.67 7.42 c -3.6 1.52 -2.43 -3.7 -4.86 -4.99 c -3.34 -2.24 1.47 -3.87 1.17 -5.42 c -2.5 -1.11 -2.24 3.88 -3.69 4.17 C 92.33 26.39 88.86 23.04 84.76 22.57 C 79.82 20.66 75.28 17.69 72.25 13.25 c -3.13 -0.98 -1.96 4.97 -3.25 6.95 c -0.63 2.8 2.59 5.06 1.41 8.21 c 0.52 3.86 -1.29 7.55 0.18 11.29 c -1.06 2.88 4.75 5.54 2.94 6.39 c -3.45 -1.05 -6.2 3.2 -2.25 4.34 c 1.57 0.97 -0.61 6.32 -3.3 5.43 c -1.83 2.15 1.28 6.86 4.14 4.17 c 3.77 -1.55 2.75 3.51 5.83 3.13 c 2.81 -0.24 4.26 3.31 4.54 5.61 c 0.04 2.48 -0.15 6.02 -0.26 7.78 c 2.63 1.76 5.01 4.26 8.46 3.62 c 3.2 0.66 4.7 -3.26 7.97 -0.5 c 3.01 0.48 6.37 1.55 8.79 3.66 c 3.03 0.92 6.02 -1.78 8.19 1.05 c 3.44 1.3 6.67 0.03 9.84 -1.4 c 0.99 1.78 4.42 1.32 7 1.3 c 5.35 -0.19 10.68 -0.16 15.82 1.55 c 6.99 1.44 13.78 3.45 20.65 5.4 c 4.47 -20.85 8.94 -41.71 13.41 -62.56 c -19.81 -3.93 -39.37 -9.21 -58.73 -14.66 c -7.27 -1.53 -14.4 -3.52 -21.46 -5.87 L 101.75 8.45 L 101.38 8.72 Z M 95.5 15.16 C 94.05 13.72 92.15 14.26 94.72 17.63 C 94.39 13.84 99.19 18.11 98.98 14.18 C 98.24 12.75 96.05 14.08 95.5 15.16 Z m 2.31 1.91 c -3.13 3.04 1.36 2.18 0.16 -0.25 l -0.16 0.25 Z" original="#ffffff" /><path class="jqvmap-region" id="jqvmap1_ca" fill="#509bbd" stroke="#818181" stroke-linecap="round" stroke-linejoin="round" stroke-opacity="0.25" stroke-width="1" d="m 35.06 153.94 c -0.1 4.04 0.4 8.21 -1.99 11.75 c -1.86 3.68 -2.55 8.24 -6.48 10.38 c -1.19 2.11 -3.49 3.38 -3.59 6.45 c -1.94 3.49 2.49 5.65 2.91 8.98 c 1.54 3.39 2.34 6.94 1.63 10.65 c 0 2.92 -2.79 5.01 -2.24 8.14 c 0.05 2.97 -2.24 5.87 0.04 8.54 c 2.58 5 6.38 9.93 6.71 15.69 c -0.54 2.77 -0.99 5.37 1.81 7.17 c 1.6 1.95 4.49 3.66 2.79 6.46 c -1.73 3.87 -1.14 8.04 -1.09 12.16 c 1.68 2.67 2.83 6.76 6.66 6.53 c 1.48 2.33 0.97 4.84 -0.22 7.13 c -2.5 1.53 -4.36 2.73 -3.66 6.08 c 0.27 3.49 4.27 5.34 4.36 9.01 c 1.46 6.2 4.13 11.92 7.59 17.25 c 0.71 2.57 2.16 4.34 2.9 6.41 c -0.24 3.33 -1.93 6.49 -2.41 9.87 c -1.66 2.61 1.19 5.52 3.99 5.12 c 4.03 0.15 7.27 3.31 11.01 4.04 c 3 -0.55 4.74 2.9 6.07 5.11 c 1.54 2.71 2.37 6 5.76 6.88 c 2.51 1.14 6.19 0.05 7.17 3.45 c 2.41 2.72 -2.39 5.05 1.41 5.17 c 2.73 1.87 5.56 -1.74 7.56 -0.74 c 2.13 2.06 4.05 4.2 4.93 7.05 c 4.3 4.9 1.44 11.77 2.79 17.52 c 14.73 1.94 29.44 4.72 44.27 5.38 c 2.78 1.19 6.19 -4.43 2.84 -4.65 c -3.13 0.64 -2.83 -4.02 -1.36 -4.66 c 3.15 -0.88 4.92 -3.83 4.65 -7.04 c 0.47 -3.98 3.27 -7.43 7.22 -8.4 c 3.43 -2.04 -0.33 -3.58 -0.79 -5.79 c -0.23 -3.65 -1.95 -6.81 -3.62 -9.89 c 2.02 -3.66 -2.22 -3.32 -3.16 -6.24 c -22.6 -34.1 -45.2 -68.19 -67.81 -102.29 c 6.27 -22.44 12.54 -44.88 18.81 -67.31 c -22.04 -5.16 -44.08 -10.31 -66.13 -15.47 c -0.45 1.38 -0.9 2.75 -1.34 4.13 Z m 24.13 184.72 c -0.27 3.05 7.99 3.06 4.7 2.07 c -1.63 -0.35 -3.17 -2.46 -4.7 -2.07 Z m -5.16 0.38 c 0.33 3.71 5.81 0.51 1.31 -0.04 c -0.44 0.01 -0.88 0.02 -1.31 0.04 Z M 79.69 357.5 c -0.2 1.58 4.42 6 3.16 2.37 C 82.22 358.91 80.8 357.6 79.69 357.5 Z M 77.75 369.13 c -0.14 1.55 3.2 3.89 1.32 1.26 C 78.6 369.72 77.39 366.55 77.75 369.13 Z" original="#509bbd" /></g></svg>