<?xml version="1.0" encoding="utf-8"?>
<!-- Generator: Adobe Illustrator 15.1.0, SVG Export Plug-In . SVG Version: 6.00 Build 0)  -->
<!DOCTYPE svg PUBLIC "-//W3C//DTD SVG 1.1//EN" "http://www.w3.org/Graphics/SVG/1.1/DTD/svg11.dtd">
<svg version="1.1" id="Layer_1" xmlns="http://www.w3.org/2000/svg" xmlns:xlink="http://www.w3.org/1999/xlink" x="0px" y="0px"
	 width="959px" height="593px" viewBox="0 0 959 593" enable-background="new 0 0 959 593" xml:space="preserve">
<path id="clinton" inkscape:label="Clinton, NY" fill="#D0D0D0" stroke="#000000" stroke-width="0.8922" stroke-linejoin="bevel" d="
	M674.421,38.603l-0.485,1.913l-0.449,19.085l-0.229,24.353l1.583,4.863l1.105,1.342l2.056,1.76l-10.147,1.677l-0.072,2.164
	l-2.239,3.881l-6.205,2.893l-7.839,3.12l-6.374,0.192l-13.188,2.244l-1.321-8.577l-1.499-8.193l-3.52-15.141l-5.747-27.059
	l-1.014-5.664l12.394-1.28l20.321-1.44L674.421,38.603"/>
<path id="essex" inkscape:label="Essex, NY" fill="#D0D0D0" stroke="#000000" stroke-width="0.8922" stroke-linejoin="bevel" d="
	M631.937,108.088l13.188-2.244l6.374-0.192l7.839-3.12l6.205-2.893l2.239-3.881l0.072-2.164l10.147-1.677l2.951,5.229l0.689,2.661
	l0.743,4.223l0.038,0.079l-0.101,1.251l-1.303,4.67l0.177,14.246l-5.033,8.866l-1.723,9.361l-0.665,3.687l-0.49,3.802l-0.006,0.034
	l0.101,0.417l5.433,23.989l0.923,2.738l-4.845,0.852l-50.893,9.653l0.703-4.287l-0.182-1.746l-8.672-3.36l-3.15,0.781l-1.057,0.456
	l-1.008,1.169l-10.871-12.668l6.418-5.451l-2.975-17.286l15.438-2.741l-5.571-30.874L631.937,108.088"/>
<path id="orleans" inkscape:label="Orleans, NY" fill="#D0D0D0" stroke="#000000" stroke-width="0.8922" stroke-linejoin="bevel" d="
	M297.895,268.709l-5.606,0.254l-29.027,0.336l-4.581,0.272l0.032-28.076l39.11,0.401L297.895,268.709"/>
<path id="genesee" inkscape:label="Genesee, NY" fill="#D0D0D0" stroke="#000000" stroke-width="0.8922" stroke-linejoin="bevel" d="
	M297.895,268.709l7.52,16.724l-3.59,14.509l-42.861-0.219l-0.129-25.511l-0.154-4.64l4.581-0.272l29.027-0.336L297.895,268.709"/>
<path id="wyoming" inkscape:label="Wyoming, NY" fill="#D0D0D0" stroke="#000000" stroke-width="0.8922" stroke-linejoin="bevel" d="
	M258.963,299.723l42.861,0.219l0.158,22.496l-2.564,5.586l-3.512,2.102l-1.381,3.727l-1.247,3.972l0.056,0.382l1.851,1.316
	l-22.809,0.217l-13.139-1.669l-0.093-28.258l-2.123-0.012l0.099-10.073L258.963,299.723"/>
<path id="livingston" inkscape:label="Livingston, NY" fill="#D0D0D0" stroke="#000000" stroke-width="0.8922" stroke-linejoin="bevel" d="
	M305.415,285.433l15.047-0.28l0.8,0.96l0.266,0.79l-1.026,3.039l-0.132,0.233l-2.176,0.094l-0.148,0.133l0.156,0.311l10.195-0.074
	l4.736-0.545l1.102,1.262l0.524,1.315l0.74,3.161l0.206,4.462l-0.028,0.155l-2.988,0.065l-1.845,10.537l1.235,10.528l8.368,0.039
	l0.934,5.23l0.068,5.52l-19.498,12.589l-9.935-0.278l-0.075-4.995l-16.755-0.162l-1.851-1.316l-0.056-0.382l1.247-3.972l1.381-3.727
	l3.512-2.102l2.564-5.586l-0.158-22.496L305.415,285.433"/>
<path id="schenectady" inkscape:label="Schenectady, NY" fill="#D0D0D0" stroke="#000000" stroke-width="0.8922" stroke-linejoin="bevel" d="
	M625.747,278.86l3.206,0.091l10.381,4.97l3.165,3.271l0.475,2.861l6.13,7.442l0.519,0.373l1.077,0.114l-30.902,7.301l-7.424-7.34
	l-0.098-0.346l0.546-1.458l14.062-10.617L625.747,278.86"/>
<path id="montgomery" inkscape:label="Montgomery, NY" fill="#D0D0D0" stroke="#000000" stroke-width="0.8922" stroke-linejoin="bevel" d="
	M625.27,275.712l0.478,3.148l1.136,6.663l-14.062,10.617l-0.546,1.458l0.098,0.346l-6.236,1.983l-9.681,1.557l-9.222-4.15
	l-7.341-1.605l-9.842-3.456l-0.694-21.293l18.606,6.303l4.475-0.173L625.27,275.712"/>
<path id="fulton" inkscape:label="Fulton, NY" fill="#D0D0D0" stroke="#000000" stroke-width="0.8922" stroke-linejoin="bevel" d="
	M572.073,243.242l15.171,6.006l25.826-3.601l6.968-1.032l5.231,31.097l-32.831,1.397l-4.475,0.173l-18.606-6.303L572.073,243.242"/>
<path id="seneca" inkscape:label="Seneca, NY" fill="#D0D0D0" stroke="#000000" stroke-width="0.8922" stroke-linejoin="bevel" d="
	M405.674,279.391l-1.85,7.313l0.349,19.876l0.077,2.22l0.813,5.705l0.243,0.904l0.461,0.984l5.052,9.198l-2.337,8.936l-16.774,1.021
	l-7.067-25.618l-0.989-11.511l0.219-0.526l0.232-0.207l1.045-0.299l-0.383-16.242L405.674,279.391"/>
<path id="ontario" inkscape:label="Ontario, NY" fill="#D0D0D0" stroke="#000000" stroke-width="0.8922" stroke-linejoin="bevel" d="
	M384.766,281.146l0.383,16.242l-1.045,0.299l-0.232,0.207l-0.219,0.526l0.989,11.511l-28.636,0.91l-2.037,3.352l-0.819,2.277
	l-1.533,5.266l0.273,10.567l-10.44,0.065l-0.068-5.52l-0.934-5.23l-8.368-0.039l-1.235-10.528l1.845-10.537l2.988-0.065l0.028-0.155
	l-0.206-4.462l-0.74-3.161l-0.524-1.315l-1.102-1.262l8.22-0.023l-0.378-10.567l9.553-0.155l10.428-0.776l9.442-0.228l0.119,3.173
	L384.766,281.146"/>
<path id="yates" inkscape:label="Yates, NY" fill="#D0D0D0" stroke="#000000" stroke-width="0.8922" stroke-linejoin="bevel" d="
	M384.641,309.931l7.067,25.618l-17.739,7.056l-3.126-1.22l-0.475-0.607l-0.108-5.296l0.195-2.656l0.224-0.942l-18.791,0.42
	l-0.273-10.567l1.533-5.266l0.819-2.277l2.037-3.352L384.641,309.931"/>
<path id="schuyler" inkscape:label="Schuyler, NY" fill="#D0D0D0" stroke="#000000" stroke-width="0.8922" stroke-linejoin="bevel" d="
	M391.708,335.549l16.774-1.021l0.569,7.947l0.745,10.111l-0.272,1.996l0.148,10.278l6.137,0.043l0.086,3.937l-1.879,1.787
	l-3.686-0.382l-4.035-1.781l-0.253-4.586l-8.979,0.214l-10.549,0.958l0.011,1.028l-10.498,0.967l-0.902-0.003l-0.713-13.523
	l-0.442-10.914L391.708,335.549"/>
<path id="tompkins" inkscape:label="Tompkins, NY" fill="#D0D0D0" stroke="#000000" stroke-width="0.8922" stroke-linejoin="bevel" d="
	M410.819,325.592l17.401-0.865l0.163,0.968l16.244-1.028l1.789,24.95l-23.74,15.205l-6.867,0.082l-6.137-0.043l-0.148-10.278
	l0.272-1.996l-0.745-10.111l-0.569-7.947L410.819,325.592"/>
<path id="cayuga" inkscape:label="Cayuga, NY" fill="#D0D0D0" stroke="#000000" stroke-width="0.8922" stroke-linejoin="bevel" d="
	M412.488,233.636l1.261,13.626l3.444,5.154l7.262-0.404l0.263,3.358l0.753,9.174l0.234,4.984l-0.141,0.089l-1.464-0.22l-0.521,0.437
	l-0.161,0.592l0.939,10.705l3.98,18.289l7.833-0.632l5.049,4.7l2.048,3.075l0.096,1.046l1.262,17.058l-16.244,1.028l-0.163-0.968
	l-17.401,0.865l-5.052-9.198l-0.461-0.984l-0.243-0.904l-0.813-5.705l-0.077-2.22l-0.349-19.876l1.85-7.313l-1.6-36.892
	L412.488,233.636"/>
<path id="onondaga" inkscape:label="Onodaga, NY" fill="#D0D0D0" stroke="#000000" stroke-width="0.8922" stroke-linejoin="bevel" d="
	M465.519,259.254l1.299,1.829l4.411,8.927l1.935,11.463l2.004,22.874l-31.803,3.262l-0.096-1.046l-2.048-3.075l-5.049-4.7
	l-7.833,0.632l-3.98-18.289l-0.939-10.705l0.161-0.592l0.521-0.437l1.464,0.22l0.141-0.089l-0.234-4.984l-0.753-9.174l12.944-0.894
	l11.519-3.398l9.642,4.756L465.519,259.254"/>
<path id="cortland" inkscape:label="Cortland, NY" fill="#D0D0D0" stroke="#000000" stroke-width="0.8922" stroke-linejoin="bevel" d="
	M475.168,304.347l0.766,7.734l3.366,35.54l-22.464,1.351l-10.42,0.645l-1.789-24.95l-1.262-17.058L475.168,304.347"/>
<path id="chenango" inkscape:label="Chenango, NY" fill="#D0D0D0" stroke="#000000" stroke-width="0.8922" stroke-linejoin="bevel" d="
	M475.934,312.081l33.208-3.293l5.64,0.248l11.104-1.106l-8.179,50.085l0.259,13.786l-9.707,0.322l-8.835,0.294l-5.385-3.92
	l-10.393-1.67l-1.346,0.582l-0.699-1.81l-2.301-17.979L475.934,312.081"/>
<path id="madison" inkscape:label="Madison, NY" fill="#D0D0D0" stroke="#000000" stroke-width="0.8922" stroke-linejoin="bevel" d="
	M465.519,259.254l9.229,2.93l9.039-2.212l3.985,1.17l1.752,1.378l4.557,3.804l8.877,8.506l1.172,10.587l0.023,1.642l9.299,7.545
	l15.843-1.543l-3.408,14.869l-11.104,1.106l-5.64-0.248l-33.208,3.293l-0.766-7.734l-2.004-22.874l-1.935-11.463l-4.411-8.927
	L465.519,259.254"/>
<path id="oneida" inkscape:label="Oneida, NY" fill="#D0D0D0" stroke="#000000" stroke-width="0.8922" stroke-linejoin="bevel" d="
	M537.299,206.705l4.157,32.73l1.132,11.89l-6.965,13.002l-4.757,7.721l1.405,19.911l-2.978,1.102l-15.843,1.543l-9.299-7.545
	l-0.023-1.642l-1.172-10.587l-8.877-8.506l-4.557-3.804l-1.752-1.378l-3.985-1.17l-9.039,2.212l1.15-18.955l-2.031-0.613
	l5.442-18.509l4.887,1.373l18.737,5.178L537.299,206.705"/>
<path id="lewis" inkscape:label="Lewis, NY" fill="#D0D0D0" stroke="#000000" stroke-width="0.8922" stroke-linejoin="bevel" d="
	M506.722,138.342l23.315,12.984l7.262,55.378l-34.365,23.953l-18.737-5.178l-2.417-25.193l-1.397-11.402l2.009-10.554l17.459-10.906
	l3.229-4.938l0.895-7.027l-4.965-3.595L506.722,138.342"/>
<path id="herkimer" inkscape:label="Herkimer, NY" fill="#D0D0D0" stroke="#000000" stroke-width="0.8922" stroke-linejoin="bevel" d="
	M530.037,151.327l26.199,1.986l9.556,67.023l-6.925,17.298l13.206,5.607l-2.716,27.738l0.694,21.293l-9.899-3.626l-0.782,7.586
	l-1.202,0.972l-16.697-8.934l-3.035,5.738l-5.959,0.644l-0.205-2.693l-1.405-19.911l4.757-7.721l6.965-13.002l-1.132-11.89
	l-4.157-32.73L530.037,151.327"/>
<path id="otsego" inkscape:label="Otsego, NY" fill="#D0D0D0" stroke="#000000" stroke-width="0.8922" stroke-linejoin="bevel" d="
	M579.894,295.729l-1.253,4.387l-0.084,3.217l0.123,1.578l3.209,11.273l0.577,2.884l-3.146,7.241l-3.088,5.641l-11.165,1.139
	l-16.563,10.259l-8.429,5.509l-4.108,3.342l-9.143,4.646l-2.242,0.454l-6.875,0.717l8.179-50.085l3.408-14.869l2.978-1.102
	l0.205,2.693l5.959-0.644l3.035-5.738l16.697,8.934l1.202-0.972l0.782-7.586l9.899,3.626L579.894,295.729"/>
<path id="schoharie" inkscape:label="Schoharie, NY" fill="#D0D0D0" stroke="#000000" stroke-width="0.8922" stroke-linejoin="bevel" d="
	M612.373,297.944l7.424,7.34l1.395,1.395l-0.156,5.779l-1.682,5.699l-2.468,10.55l-2.376,12.781l0.183,1.447l0.752-0.146
	l-15.699,6.936l-23.513-17.775l3.088-5.641l3.146-7.241l-0.577-2.884l-3.209-11.273l-0.123-1.578l0.084-3.217l1.253-4.387
	l7.341,1.605l9.222,4.15l9.681-1.557L612.373,297.944"/>
<path id="albany" inkscape:label="Albany, NY" fill="#D0D0D0" stroke="#000000" stroke-width="0.8922" stroke-linejoin="bevel" d="
	M650.699,297.983l11.113-1.144l-6.949,37.368l-39.419,8.581l-0.752,0.146l-0.183-1.447l2.376-12.781l2.468-10.55l1.682-5.699
	l0.156-5.779l-1.395-1.395L650.699,297.983"/>
<path id="saratoga" inkscape:label="Saratoga, NY" fill="#D0D0D0" stroke="#000000" stroke-width="0.8922" stroke-linejoin="bevel" d="
	M617.683,231.16l22.9-4.252l0.793,1.493l3.656,8.791l0.507,6.421l0.727,0.582l5.106,2.425l7.891-5.275l5.935-5.225l0.455,1.11
	l2.709,22.39l-0.024,2.201l-1.055,7.821l-1.117,3.925l-1.932,4.835l-2.421,18.438l-11.113,1.144l-1.077-0.114l-0.519-0.373
	l-6.13-7.442l-0.475-2.861l-3.165-3.271l-10.381-4.97l-3.206-0.091l-0.478-3.148l-5.231-31.097L617.683,231.16"/>
<path id="warren" inkscape:label="Warren, NY" fill="#D0D0D0" stroke="#000000" stroke-width="0.8922" stroke-linejoin="bevel" d="
	M623.999,187.675l50.893-9.653l-1.85,9.175l-1.748,6.754l-6.542,10.263l-2.183,3.657l-1.598,3.957l-0.24,0.737l-0.044,1.625
	l4.51,21.931l-5.935,5.225l-7.891,5.275l-5.106-2.425l-0.727-0.582l-0.507-6.421l-3.656-8.791l-0.793-1.493l-22.9,4.252
	l-6.614-40.991L623.999,187.675"/>
<path id="hamilton" inkscape:label="Hamilton, NY" fill="#D0D0D0" stroke="#000000" stroke-width="0.8922" stroke-linejoin="bevel" d="
	M603.206,145.283l2.975,17.286l-6.418,5.451l10.871,12.668l1.008-1.169l1.057-0.456l3.15-0.781l8.672,3.36l0.182,1.746l-0.703,4.287
	l-12.931,2.494l6.614,40.991l2.355,13.456l-6.968,1.032l-25.826,3.601l-15.171-6.006l-13.206-5.607l6.925-17.298l-9.556-67.023
	l26.21-4.547L603.206,145.283"/>
<path id="franklin" inkscape:label="Franklin, NY" fill="#D0D0D0" stroke="#000000" stroke-width="0.8922" stroke-linejoin="bevel" d="
	M631.937,108.088l-18.864,3.581l5.571,30.874l-15.438,2.741l-20.76,3.482l0.374-8.264l-1.333-9.106l-7.766-48.759l-4.657-31.722
	l-6.387,0.27l-0.896-6.128l2.111,0.265l33.507-0.334l11.759-0.501l8.7-0.924l0.977-0.108l1.014,5.664l5.747,27.059l3.52,15.141
	l1.499,8.193L631.937,108.088"/>
<path id="stlawrence" inkscape:label="St. Lawrence, NY" fill="#D0D0D0" stroke="#000000" stroke-width="0.8922" stroke-linejoin="bevel" d="
	M561.782,45.056l0.896,6.128l6.387-0.27l4.657,31.722l7.766,48.759l1.333,9.106l-0.374,8.264l-26.21,4.547l-26.199-1.986
	l-23.315-12.984l-5.495-3.31l-16.248-9.069l-13.056-7.819l4.014-8.023l3.319-5.25l5.443-6.127l16.193-17.349l4.606-4.437
	l34.834-27.637l1.66-0.758l11.704-4.221l2.045,0.045L561.782,45.056"/>
<path id="jefferson" inkscape:label="Jefferson, NY" fill="#D0D0D0" stroke="#000000" stroke-width="0.8922" stroke-linejoin="bevel" d="
	M471.923,118.144l13.056,7.819l16.248,9.069l5.495,3.31l-7.714,13.522l4.965,3.595l-0.895,7.027l-3.229,4.938l-17.459,10.906
	l-2.009,10.554l1.397,11.402l-16.804-1.073l-3.936,1.004l0.212,3.15l-14.794-0.83l-2.819-14.323l7.649-10.506l0.474-0.565
	l0.152-1.734l-0.936-4.826l-0.421-0.81l-0.598-0.316l-6.822-1.836l-4.532-2.95l-6.685-6.916l-0.646-3.388l0.182-1.308l0.631-2.516
	l3.351-7.681l21.56-15.976L471.923,118.144"/>
<path id="oswego" inkscape:label="Oswego, NY" fill="#D0D0D0" stroke="#000000" stroke-width="0.8922" stroke-linejoin="bevel" d="
	M446.458,202.538l14.794,0.83l-0.212-3.15l3.936-1.004l16.804,1.073l2.417,25.193l-4.887-1.373l-5.442,18.509l2.031,0.613
	l-1.15,18.955l-9.229-2.93l-6.695-3.42l-9.642-4.756l-11.519,3.398l-12.944,0.894l-0.263-3.358l-7.262,0.404l-3.444-5.154
	l-1.261-13.626l4.578-3.587l11.86-8.729l0.572-0.224l3.479-0.436l1.98,1.385l1.216,0.135l2.813-0.188l5.06-2.037l0.579-0.466
	l0.854-1.395l0.619-1.767l0.47-1.721l0.288-2.966l0.048-5.675L446.458,202.538"/>
<path id="wayne" inkscape:label="Wayne, NY" fill="#D0D0D0" stroke="#000000" stroke-width="0.8922" stroke-linejoin="bevel" d="
	M404.074,242.499l1.6,36.892l-20.908,1.755l-14.249,0.37l-0.119-3.173l-9.442,0.228l-10.428,0.776l-0.779-28.088l5.027-0.484
	l14.279-1.024l2.638-0.097l3.747,0.72l2.781,1.078l6.34-0.013l0.509-0.072l13.028-4.791l2.179-1.086L404.074,242.499"/>
<path id="monroe" inkscape:label="Monroe, NY" fill="#D0D0D0" stroke="#000000" stroke-width="0.8922" stroke-linejoin="bevel" d="
	M297.895,268.709l-0.072-26.812l3.48,0.14l13.025,2.587l8.075,3.537l3.466,2.873l0.55,0.381l6.448,4.112l2.227,0.809l1.411,0.131
	l13.244-5.208l0.779,28.088l-9.553,0.155l0.378,10.567l-8.22,0.023l-4.736,0.545l-10.195,0.074l-0.156-0.311l0.148-0.133
	l2.176-0.094l0.132-0.233l1.026-3.039l-0.266-0.79l-0.8-0.96l-15.047,0.28L297.895,268.709"/>
<path id="niagara" inkscape:label="Niagara, NY" fill="#D0D0D0" stroke="#000000" stroke-width="0.8922" stroke-linejoin="bevel" d="
	M258.68,269.572l0.154,4.64l-2.047,0.648l-9.098,1.265l-29.166,0.709l-6.968,0.054l-2.531-0.987l-0.644-1.834l-0.343-19.803
	l19.729-6.413l16.672-4.678l7.234-1.423l4.896-0.64l0.521,0.059l1.622,0.328L258.68,269.572"/>
<path id="erie" inkscape:label="Erie, NY" fill="#D0D0D0" stroke="#000000" stroke-width="0.8922" stroke-linejoin="bevel" d="
	M258.834,274.212l0.129,25.511l-1.842,0.004l-0.099,10.073l2.123,0.012l0.093,28.258l-11.432,2.924l-9.969,3.24l-10.615,4.566
	l-2.156,0.47l-2.115,0.15l-4.421-3.374l-9.706-8.034l-6.407-3.651l0.602-2.354l1.54-2.749l5.255-8.721l2.547-1.462l6.285-3.532
	l2.194-0.578l4.194-3.821l1.283-1.609l0.163-0.902l-1.8-7.104l-3.117-9.238l-0.814-1.571l-1.125-1.026l-3.369-1.253l-3.296-2.144
	l-0.687-1.107l-0.242-2.584l-0.474-5.716l6.968-0.054l29.166-0.709l9.098-1.265L258.834,274.212"/>
<path id="chautauqua" inkscape:label="Chautauqua, NY" fill="#D0D0D0" stroke="#000000" stroke-width="0.8922" stroke-linejoin="bevel" d="
	M208.824,338.012l-0.049,62.341l-46.702-0.131l-1.31,0.003l-11.582-0.086l0.048-15.299l0.085-12.946l0.063-3.095l3.738-1.681
	l6.164-3.555l8.425-5.484l7.891-5.465l2.078-1.998l1.989-2.883l4.525-4.088l9.281-4.932l8.947-4.354L208.824,338.012"/>
<path id="cattaraugus" inkscape:label="Cattaraugus, NY" fill="#D0D0D0" stroke="#000000" stroke-width="0.8922" stroke-linejoin="bevel" d="
	M259.239,338.069l13.139,1.669l0.54,60.359l-24.594,0.1l-23.661,0.32l-3.766-0.023l-12.122-0.142l0.049-62.341l9.706,8.034
	l4.421,3.374l2.115-0.15l2.156-0.47l10.615-4.566l9.969-3.24L259.239,338.069"/>
<path id="allegany" inkscape:label="Allegany, NY" fill="#D0D0D0" stroke="#000000" stroke-width="0.8922" stroke-linejoin="bevel" d="
	M295.186,339.521l16.755,0.162l0.075,4.995l9.935,0.278l-1.533,54.674l-38.87,0.323l-8.63,0.144l-0.54-60.359L295.186,339.521"/>
<path id="steuben" inkscape:label="Steuben, NY" fill="#D0D0D0" stroke="#000000" stroke-width="0.8922" stroke-linejoin="bevel" d="
	M341.449,332.368l10.44-0.065l18.791-0.42l-0.224,0.942l-0.195,2.656l0.108,5.296l0.475,0.607l3.126,1.22l0.442,10.914l0.713,13.523
	l0.902,0.003l10.498-0.967l0.64,32.102l-54.806,1.212l-11.941,0.239l1.533-54.674L341.449,332.368"/>
<path id="chemung" inkscape:label="Chemung, NY" fill="#D0D0D0" stroke="#000000" stroke-width="0.8922" stroke-linejoin="bevel" d="
	M422.676,364.821l-0.818,32.627l-31.411,0.597l-3.282,0.135l-0.64-32.102l-0.011-1.028l10.549-0.958l8.979-0.214l0.253,4.586
	l4.035,1.781l3.686,0.382l1.879-1.787l-0.086-3.937L422.676,364.821"/>
<path id="tioga" inkscape:label="Tioga, NY" fill="#D0D0D0" stroke="#000000" stroke-width="0.8922" stroke-linejoin="bevel" d="
	M456.836,348.972l0.486,0.938l4.166,15.782l0.078,0.759l0.11,4.588l-0.417,3.68l-2.465,0.219l1.548,21.57l-3.487,0.097
	l-34.998,0.845l0.818-32.627l23.74-15.205L456.836,348.972"/>
<path id="broome" inkscape:label="Broome, NY" fill="#D0D0D0" stroke="#000000" stroke-width="0.8922" stroke-linejoin="bevel" d="
	M479.3,347.621l2.301,17.979l0.699,1.81l1.346-0.582l10.393,1.67l5.385,3.92l8.835-0.294l9.707-0.322l5.875,22.422l-10.524,0.43
	l-52.974,1.854l-1.548-21.57l2.465-0.219l0.417-3.68l-0.11-4.588l-0.078-0.759l-4.166-15.782l-0.486-0.938L479.3,347.621"/>
<path id="delaware" inkscape:label="Delaware, NY" fill="#D0D0D0" stroke="#000000" stroke-width="0.8922" stroke-linejoin="bevel" d="
	M576.232,331.949l23.513,17.775l1.343,0.604l-8.42,17.534l7.449,3.378l-27.13,18.969l-30.337,20.479l-10.05-3.573l-1.637-6.146
	l-1.237-1.685l-4.355-4.415l-1.53-0.646l-5.875-22.422l-0.259-13.786l6.875-0.717l2.242-0.454l9.143-4.646l4.108-3.342l8.429-5.509
	l16.563-10.259L576.232,331.949"/>
<path id="sullivan" inkscape:label="Sullivan, NY" fill="#D0D0D0" stroke="#000000" stroke-width="0.8922" stroke-linejoin="bevel" d="
	M542.65,410.688l30.337-20.479l10.976,5.616l17.632,9.35l-2.634,4.793l-4.583,6.857l-2.408,3.93l7.415,5.224l8.472,5.653
	l2.687,6.122l-3.347,2.054l-2.19,3.121l-3.206,5.307l-23.665,2.313l-0.683,0.354l-0.135,0.259l0.255,4.474l0.669,2.678l-3.795-0.259
	l-6.72-0.84l-1.335-0.94l-8.176-6.307l-2.131-2.916l-2.996-4.205l-1.327-5.595L542.65,410.688"/>
<path id="greene" inkscape:label="Greene, NY" fill="#D0D0D0" stroke="#000000" stroke-width="0.8922" stroke-linejoin="bevel" d="
	M654.863,334.208l0.445,0.08l0.241,0.238l0.314,1.985l0.267,16.304l-0.187,2.904l-0.485,1.508l-4.657,7.463l-3.905,7.424
	l-0.66,1.598l-7.523-4.915l-3.887,0.538l-2.309,8.686l-13.315-0.683l-6.521-0.362l-12.563-5.734l-7.449-3.378l8.42-17.534
	l-1.343-0.604l15.699-6.936L654.863,334.208"/>
<path id="newyork" inkscape:label="New York, NY" fill="#D0D0D0" stroke="#000000" stroke-width="0.8922" stroke-linejoin="bevel" d="
	M656.902,527.497l-0.001,0.78L654,535.632l-1.486,0.883l-7.108,4.368l-0.143-2.647l2.709-10.508l4.115-9.863l4.823,3.597
	L656.902,527.497"/>
<path id="ulster" inkscape:label="Ulster, NY" fill="#D0D0D0" stroke="#000000" stroke-width="0.8922" stroke-linejoin="bevel" d="
	M644.93,379.398l-1.868,19.689l1.926,16.034l1.129,3.948l-0.172,16.966l-8.527,1.536l-6.217,0.11l-5.114-1.1l-5.706-3.313
	l-9.837,4.485l-2.687-6.122l-8.472-5.653l-7.415-5.224l2.408-3.93l4.583-6.857l2.634-4.793l-17.632-9.35l-10.976-5.616l27.13-18.969
	l12.563,5.734l6.521,0.362l13.315,0.683l2.309-8.686l3.887-0.538l7.523,4.915L644.93,379.398"/>
<path id="bronx" inkscape:label="Bronx, NY" fill="#D0D0D0" stroke="#000000" stroke-width="0.8922" stroke-linejoin="bevel" d="
	M653.22,513.644l11.799,3.596l0.072,8.928l-8.188,1.33l0.008-6.036l-4.823-3.597L653.22,513.644"/>
<path id="kings" inkscape:label="Kings, NY" fill="#D0D0D0" stroke="#000000" stroke-width="0.8922" stroke-linejoin="bevel" d="
	M645.405,540.883l7.108-4.368l2.043,0.945l1.684,6.969l-2.647,9.969l-5.363-1.286l-2.715-6.252L645.405,540.883"/>
<path id="rockland" inkscape:label="Rockland, NY" fill="#D0D0D0" stroke="#000000" stroke-width="0.8922" stroke-linejoin="bevel" d="
	M645.126,467.193l1.691,6.236l3.811,7.841l3.59,5.913l0.299,1.392l0.239,15.757l-28.327-14.35l-1.864-0.955l20.623-22.178
	L645.126,467.193"/>
<path id="nassau" inkscape:label="Nassau, NY" fill="#D0D0D0" stroke="#000000" stroke-width="0.8922" stroke-linejoin="bevel" d="
	M697.887,546.873l-28.441,4.346l-2.474-24.969l22.517-15.303L697.887,546.873"/>
<path id="orange" inkscape:label="Orange, NY" fill="#D0D0D0" stroke="#000000" stroke-width="0.8922" stroke-linejoin="bevel" d="
	M645.944,436.036l-1.456,17.611l0.699,13.202l-20.623,22.178l-11.642-6.429l-29.13-16.485l-5.552-7.799l-0.669-2.678l-0.255-4.474
	l0.135-0.259l0.683-0.354l23.665-2.313l3.206-5.307l2.19-3.121l3.347-2.054l9.837-4.485l5.706,3.313l5.114,1.1l6.217-0.11
	L645.944,436.036"/>
<path id="queens" inkscape:label="Queens, NY" fill="#D0D0D0" stroke="#000000" stroke-width="0.8922" stroke-linejoin="bevel" d="
	M656.902,527.497l8.188-1.33l1.881,0.083l2.474,24.969l-15.853,3.179l2.647-9.969l-1.684-6.969l-2.043-0.945l1.486-0.883
	l2.901-7.354L656.902,527.497"/>
<path id="suffolk" inkscape:label="Suffolk, NY" fill="#D0D0D0" stroke="#000000" stroke-width="0.8922" stroke-linejoin="bevel" d="
	M697.887,546.873l-8.398-35.926l0.308-2.194l0.563-0.562l7.21-1.304l15.162,4.779l54.828-14.304l15.41-12.511l5.253-1.639
	l21.597,11.916l-1.486,2.352l-23.402,13.921l-6.21,3.209l-49.213,23.726l-7.644,2.916l-5.394,2.021l-2.647,0.84l-1.937,0.521
	L697.887,546.873"/>
<path id="westchester" inkscape:label="Westchester, NY" fill="#D0D0D0" stroke="#000000" stroke-width="0.8922" stroke-linejoin="bevel" d="
	M645.126,467.193l37.252-7.256l-0.052,8.243l-5.989,17.794l-0.608,0.431l-7.309,5.18l6.798,12.982l-10.199,12.672l-11.799-3.596
	l1.536-9.312l-0.239-15.757l-0.299-1.392l-3.59-5.913l-3.811-7.841L645.126,467.193"/>
<path id="putnam" inkscape:label="Putnam, NY" fill="#D0D0D0" stroke="#000000" stroke-width="0.8922" stroke-linejoin="bevel" d="
	M682.556,441.264l-0.178,18.674l-37.252,7.256l0.062-0.344l-0.699-13.202l3.78-5.948l30.102-6.092L682.556,441.264"/>
<path id="dutchess" inkscape:label="Dutchess, NY" fill="#D0D0D0" stroke="#000000" stroke-width="0.8922" stroke-linejoin="bevel" d="
	M682.698,380.657l-0.009,44.449l-0.134,16.157l-4.186,0.344l-30.102,6.092l-3.78,5.948l1.456-17.611l0.172-16.966l-1.129-3.948
	l-1.926-16.034l1.868-19.689l1.201-0.279l1.055,0.235l12.815,5.62l3.959,1.901l15.824,2.285l2.093-8.458L682.698,380.657"/>
<path id="columbia" inkscape:label="Columbia, NY" fill="#D0D0D0" stroke="#000000" stroke-width="0.8922" stroke-linejoin="bevel" d="
	M654.863,334.208l36.056-7.398l-10.255,49.709l1.213,4.185l-2.093,8.458l-15.824-2.285l-3.959-1.901l-12.815-5.62l-1.055-0.235
	l-1.201,0.279l1.307-5.687l0.66-1.598l3.905-7.424l4.657-7.463l0.485-1.508l0.187-2.904l-0.267-16.304l-0.314-1.985l-0.241-0.238
	L654.863,334.208"/>
<path id="rensselaer" inkscape:label="Rensselaer, NY" fill="#D0D0D0" stroke="#000000" stroke-width="0.8922" stroke-linejoin="bevel" d="
	M664.233,278.401l30.276-2.059l2.16,22.783l-5.751,27.684l-36.056,7.398l6.949-37.368L664.233,278.401"/>
<path id="washington" inkscape:label="Washington, NY" fill="#D0D0D0" stroke="#000000" stroke-width="0.8922" stroke-linejoin="bevel" d="
	M679.736,177.17l1.904,6.23l-3.039,8.115l-1.273,4.515l-0.387,6.756l0.233,0.476l2.491,1.599l13.058,5.457l0.786,23.147l1,42.876
	l-30.276,2.059l1.932-4.835l1.117-3.925l1.055-7.821l0.024-2.201l-2.709-22.39l-0.455-1.11l-4.51-21.931l0.044-1.625l0.24-0.737
	l1.598-3.957l2.183-3.657l6.542-10.263l1.748-6.754l1.85-9.175L679.736,177.17"/>
</svg>
