<?xml version="1.0" encoding="iso-8859-1"?>
<!-- Generator: Adobe Illustrator 15.1.0, SVG Export Plug-In . SVG Version: 6.00 Build 0)  -->
<!DOCTYPE svg PUBLIC "-//W3C//DTD SVG 1.1//EN" "http://www.w3.org/Graphics/SVG/1.1/DTD/svg11.dtd">
<svg version="1.1" id="Layer_1" xmlns="http://www.w3.org/2000/svg" xmlns:xlink="http://www.w3.org/1999/xlink" x="0px" y="0px"
	 width="71px" height="44.167px" viewBox="0 0 71 44.167" style="enable-background:new 0 0 71 44.167;" xml:space="preserve">
<path id="jqvmap1_pae_3_" style="fill:#FFFFFF;stroke:#828282;stroke-linecap:round;stroke-linejoin:round;stroke-opacity:0.25;" d="
	M41.016,33.877c6.288-1.238,12.587-2.437,18.801-3.736c1.42-1.758,4.598-0.968,5.135-3.544c0.367-1.351,2.782-2.284,2.479-3.378
	c-1.316-1.082-3.4-1.586-3.658-3.509c-1.798,0.624-2.53-2.256-1.786-3.045c2.21-0.631-0.28-2.107,0.314-3.413
	c1.443-1.076,0.642-2.948,1.609-4.047c2.215-1.545-1.706-0.63-2.13-2.284c-0.772-1.248-0.16-4.145-2.382-3.389
	c-1.339-0.646-2.215-2.146-4.059-0.973c-2.656,0.613-5.313,1.231-7.969,1.843l0.012-0.005c-3.658,0.707-7.307,1.464-10.955,2.22
	L41.016,33.877z"/>
<path id="jqvmap1_pae_2_" style="fill:#FFFFFF;stroke:#828282;stroke-linecap:round;stroke-linejoin:round;stroke-opacity:0.25;" d="
	M24.817,5.423c-6.25,1.295-12.502,2.583-18.806,3.608c-0.349-1.145,0.275-4.82-1.379-2.467C3.384,8.127,1.494,8.705,0,9.981
	c0.87,5.582,1.506,11.204,3.114,16.63c0.652,3.486,1.3,6.968,1.952,10.454c5.066-0.813,10.185-1.288,15.176-2.524
	c3.053-0.643,6.121-1.259,9.192-1.864L24.817,5.423z"/>
</svg>
