<?xml version="1.0" encoding="utf-8"?>
<!-- Generator: Adobe Illustrator 15.1.0, SVG Export Plug-In . SVG Version: 6.00 Build 0)  -->
<!DOCTYPE svg PUBLIC "-//W3C//DTD SVG 1.1//EN" "http://www.w3.org/Graphics/SVG/1.1/DTD/svg11.dtd">
<svg version="1.1" id="Layer_1" xmlns="http://www.w3.org/2000/svg" xmlns:xlink="http://www.w3.org/1999/xlink" x="0px" y="0px"
	 width="959px" height="593px" viewBox="0 0 959 593" enable-background="new 0 0 959 593" xml:space="preserve">
<path id="jqvmap1_pa" display="none" fill="#9FD2E9" stroke="#818181" stroke-linecap="round" stroke-linejoin="round" stroke-opacity="0.25" d="M-100.12-88.37c-17.5,3.38-34.87,7.42-52.47,10.28c-0.61-2,0.479-8.42-2.41-4.31c-2.18,2.73-5.479,3.74-8.09,5.97c1.52,9.75,2.63,19.57,5.439,29.05c1.141,6.09,2.271,12.17,3.41,18.26c8.851-1.42,17.79-2.25,26.51-4.41c16.391-3.45,33.03-6.46,49.33-9.87c2.48-3.07,8.03-1.69,8.971-6.19c0.64-2.36,4.859-3.99,4.33-5.9c-2.301-1.89-5.94-2.77-6.391-6.13c-3.14,1.09-4.42-3.94-3.12-5.32c3.86-1.1-0.489-3.68,0.551-5.96c2.52-1.88,1.119-5.15,2.81-7.07c3.87-2.7-2.98-1.1-3.72-3.99c-1.351-2.18-0.28-7.24-4.16-5.92c-2.34-1.13-3.87-3.75-7.09-1.7c-4.641,1.07-9.28,2.15-13.92,3.22L-100.12-88.37z"/>
<path id="jqvmap1_pae_3_" fill="#2DB34A" d="M468.899,457.473c75.382-1.163,150.762-1.079,225.391-3.114c20.116-17.386,55.255-1.58,66.861-30.274c7.066-14.879,36.98-20.619,35.77-33.922c-12.977-15.268-36.041-25.472-35.004-48.262c-22.126,3.459-24.566-31.405-14.314-38.982c26.91-2.677,1.177-24.972,10.781-38.848c18.957-9.437,13.604-32.774,27.094-43.474c28.868-13.249-18.43-10.861-19.886-30.898c-6.315-16.06,6.832-48.31-20.466-44.204c-14.155-10.286-21.146-29.479-44.953-19.758c-32.016,1.537-64.077,3.131-96.091,4.657l0.145-0.032c-43.81,0.532-87.635,1.657-131.446,2.778L468.899,457.473z"/>
<path id="jqvmap1_paw" fill="#2DB34A" d="M470.094,133.621c-75.051,1.912-150.111,3.741-225.225,2.419c-1.639-13.988,13.272-55.218-10.799-31.443c-17.716,15.48-40.798,18.218-60.761,29.859c-1.607,66.431-6.012,132.834,1.253,199.001c0.251,41.718,0.464,83.382,0.717,125.087c60.338,1.185,120.584,6.4,180.942,2.534c36.679-1.052,73.475-1.753,110.292-2.336L470.094,133.621z"/>
</svg>
